<?xml version="1.0" encoding="UTF-8"?>
<svg id="Ebene_2" data-name="Ebene 2" xmlns="http://www.w3.org/2000/svg" viewBox="0 0 1487.31 930.46">
  <defs>
    <style>
      .cls-1 {
        letter-spacing: .01em;
      }

      .cls-2 {
        letter-spacing: .01em;
      }

      .cls-2, .cls-3, .cls-4, .cls-5, .cls-6, .cls-7, .cls-8 {
        font-family: MiriamLibre-Regular, 'Miriam Libre';
      }

      .cls-2, .cls-3, .cls-6 {
        font-size: 40.54px;
        isolation: isolate;
      }

      .cls-3 {
        letter-spacing: .03em;
      }

      .cls-4 {
        letter-spacing: 0em;
      }

      .cls-4, .cls-5, .cls-9, .cls-8 {
        font-size: 30px;
      }

      .cls-10 {
        letter-spacing: -.02em;
      }

      .cls-11 {
        letter-spacing: 0em;
      }

      .cls-12 {
        opacity: .7;
      }

      .cls-12, .cls-13, .cls-14, .cls-15, .cls-16, .cls-17, .cls-18, .cls-19 {
        stroke-width: 0px;
      }

      .cls-12, .cls-14 {
        fill: #808e99;
      }

      .cls-20, .cls-9, .cls-7, .cls-15 {
        fill: #fff;
      }

      .cls-21, .cls-8 {
        letter-spacing: -.06em;
      }

      .cls-22 {
        stroke-linejoin: round;
      }

      .cls-22, .cls-23 {
        stroke-linecap: round;
      }

      .cls-22, .cls-23, .cls-24 {
        fill: none;
      }

      .cls-22, .cls-24 {
        stroke: #fff;
        stroke-width: 5.1px;
      }

      .cls-25 {
        letter-spacing: .01em;
      }

      .cls-26 {
        letter-spacing: .02em;
      }

      .cls-27 {
        letter-spacing: .01em;
      }

      .cls-28 {
        font-size: 40px;
      }

      .cls-28, .cls-9, .cls-29, .cls-30, .cls-31, .cls-32 {
        font-family: MiriamLibre-Bold, 'Miriam Libre';
        font-weight: 700;
      }

      .cls-33 {
        letter-spacing: -.02em;
      }

      .cls-29, .cls-30, .cls-31, .cls-32 {
        font-size: 45px;
      }

      .cls-23 {
        stroke: #f5c663;
        stroke-miterlimit: 10;
        stroke-width: 5.67px;
      }

      .cls-30 {
        letter-spacing: 0em;
      }

      .cls-31 {
        letter-spacing: -.03em;
      }

      .cls-34 {
        letter-spacing: 0em;
      }

      .cls-35, .cls-32 {
        letter-spacing: 0em;
      }

      .cls-24 {
        stroke-miterlimit: 66.67;
      }

      .cls-7 {
        font-size: 35px;
      }

      .cls-36 {
        letter-spacing: 0em;
      }

      .cls-37 {
        letter-spacing: 0em;
      }

      .cls-38 {
        letter-spacing: 0em;
      }

      .cls-39 {
        letter-spacing: 0em;
      }

      .cls-16 {
        fill: #fafbfc;
      }

      .cls-17 {
        fill: #f5c663;
      }

      .cls-18 {
        fill: #008187;
      }

      .cls-19 {
        fill: #008087;
      }

      .cls-40 {
        letter-spacing: 0em;
      }

      .cls-41 {
        letter-spacing: 0em;
      }

      .cls-42 {
        letter-spacing: 0em;
      }
    </style>
  </defs>
  <g id="Free-Desk">
    <g>
      <path id="Rectangle-3" class="cls-12" d="m1113.7,683.47h364.2v246.99h-364.2v-246.99Z"/>
      <text class="cls-9" transform="translate(1213.52 886.9)"><tspan x="0" y="0">Sh</tspan><tspan class="cls-40" x="34.89" y="0">a</tspan><tspan class="cls-37" x="51.99" y="0">r</tspan><tspan class="cls-42" x="66.69" y="0">ep</tspan><tspan class="cls-37" x="102.96" y="0">o</tspan><tspan x="120.42" y="0">i</tspan><tspan class="cls-40" x="132.3" y="0">n</tspan><tspan x="150.66" y="0">t</tspan></text>
      <g>
        <path class="cls-15" d="m1298.03,790.73c-13.53,0-24.54,11.01-24.54,24.54s11.01,24.54,24.54,24.54,24.54-11.01,24.54-24.54-11.01-24.54-24.54-24.54Zm0,43.68c-10.55,0-19.14-8.59-19.14-19.14s8.59-19.14,19.14-19.14,19.14,8.59,19.14,19.14-8.59,19.14-19.14,19.14Z"/>
        <path class="cls-15" d="m1328.44,758.29c-1.45-.15-3.02-.29-4.47-.31h0c-.08-.02-.17,0-.25-.01-.01,0-.03,0-.05,0h0c-8.45-.24-16.24,2.48-20.92,8.01v7.22c4.63-5.92,12.58-9.75,20.98-9.82,1.16.01,2.8.15,3.94.26,12.69,1.81,22.26,12.86,22.26,25.7,0,14.32-10.3,25.97-24.62,25.97l-.49,5.4c17.3,0,30.51-14.07,30.51-31.37,0-15.51-11.56-28.86-26.9-31.05Z"/>
        <path class="cls-15" d="m1295.3,730.61c15.31,0,27.29,10.67,29.73,25.59l5.51.43c-2.03-17.92-17.18-31.43-35.24-31.43-15.73,0-29.75,10.56-34.08,25.67l5.64.05c3.68-12.81,15.1-20.32,28.44-20.32Z"/>
        <path class="cls-15" d="m1246.13,804.35v-43.68c0-1.52,1.24-2.76,2.76-2.76h43.68c1.52,0,2.76,1.24,2.76,2.76v28.23h5.4v-28.23c0-4.5-3.66-8.16-8.16-8.16h-43.68c-4.5,0-8.16,3.66-8.16,8.16v43.68c0,4.5,3.66,8.16,8.16,8.16h22.89v-5.4h-22.89c-1.52,0-2.76-1.24-2.76-2.76Z"/>
        <path class="cls-15" d="m1269.08,791.39h-.18c-1.29,0-6.47-1.87-7.49-2.71l-1.1-.9v8.12l.37.19c1.18.59,6.88,1.64,8.63,1.64h.11c4.31,0,7.53-1.02,9.55-3.04,1.52-1.51,2.29-3.54,2.29-6.03,0-5.66-5.39-8.1-9.32-9.87-2.22-1.01-4.32-1.95-4.32-2.99,0-.6.89-2.17,4.89-2.17s5.7,1.31,6.3,1.75l1.19.81v-7.61l-.44-.16c-1.04-.39-4.51-1.12-7.41-1.12-10.79,0-11.96,6.31-11.96,9.03,0,5.6,5.04,7.74,9.09,9.46,2.57,1.09,4.79,2.03,4.79,3.44,0,.46-.15.83-.46,1.13-.72.72-2.25,1.07-4.53,1.03Z"/>
      </g>
    </g>
    <g id="Group-3">
      <path id="Rectangle" class="cls-18" d="m513.9,145.01h454.41v785.45h-454.41V145.01Z"/>
    </g>
    <path id="Rectangle-2" class="cls-12" d="m1113.83,412.37h364.2v246.99h-364.2v-246.99Z"/>
    <path id="Rectangle-5" class="cls-12" d="m0,145.01h364.2v785.45H0V145.01Z"/>
    <text class="cls-9" transform="translate(690.96 878.66)"><tspan class="cls-35" x="0" y="0">B</tspan><tspan x="17.91" y="0">ac</tspan><tspan class="cls-10" x="50.97" y="0">k</tspan><tspan x="67.92" y="0">e</tspan><tspan class="cls-42" x="85.47" y="0">n</tspan><tspan x="104.13" y="0">d</tspan></text>
    <text class="cls-9" transform="translate(1227.19 615.71)"><tspan x="0" y="0">E</tspan><tspan class="cls-33" x="16.29" y="0">x</tspan><tspan x="32.79" y="0">chan</tspan><tspan class="cls-40" x="102.87" y="0">g</tspan><tspan x="120.66" y="0">e</tspan></text>
    <path class="cls-16" d="m1305.9,456s-.09.04-.13.06l-56.88,10.73c-.97.18-1.67,1.04-1.65,2.03v75.74c-.02.99.68,1.85,1.65,2.03l56.88,10.92c.59.11,1.2-.04,1.67-.42.46-.38.74-.94.75-1.55v-18.28h38.6c1.12,0,2.03-.91,2.03-2.03v-56.88c0-1.12-.91-2.03-2.03-2.03h-38.6v-18.28c0-.59-.25-1.14-.68-1.53-.44-.39-1.02-.57-1.6-.5Zm-1.78,4.44v17.27c-.12.4-.12.81,0,1.21v55.93c-.06.27-.06.56,0,.83v17.46l-52.82-10.22v-72.44l52.82-10.03Zm4.06,19.93h36.57v52.82h-36.57v-6.09h3.24c1.42-.21,13-15.02,11.17-16.44-1.42-1.42-6.3,6.46-12.19,10.73h-2.22v-13.59c3.14,2.1,6.06,3.52,6.73,2.86,1.04-1.04-2.82-3.71-6.73-7.36v-11.11h3.43l2.29,2.03c.4.4.8.4,1.21,0l1.59-1.65c.4-.4.4-.8,0-1.21l-4.63-4.7c-.21-.21-.62-.38-.83-.38h-3.05v-5.9Zm-21.97,5.71l-18.47,2.03v36.76l19.11,1.84v-7.55l-12-.57v-8.76l10.6.19v-7.3l-10.6.19v-8.51l11.36-.83v-7.49Zm38.85.38c-1.42.21-12.8,15.02-11.17,16.44,1.42,1.42,6.3-6.46,12.19-10.73h6.67v7.68l-2.03,2.03c-.4.4-.4.8,0,1.21l1.65,1.65c.4.4.8.4,1.21,0l4.7-4.7c.21-.21.38-.56.38-.76v-11.43c0-.81-.6-1.4-1.21-1.4h-12.38Zm-2.79,16.32c-.2,0-.4.02-.51.13-1.42,1.42,6.71,6.11,10.98,12v6.48h-7.68l-2.29-2.03c-.4-.4-.8-.4-1.21,0l-1.59,1.65c-.4.4-.4.8,0,1.21l4.63,4.7c.21.21.62.38.83.38h11.81c.61,0,1.21-.6,1.21-1.21v-12c0-1.52-13.2-11.4-16.19-11.3Z"/>
    <g>
      <g>
        <path class="cls-22" d="m196.1,437.17h-99.78c-8.67,0-15.71,7.03-15.71,15.71v109.94c0,8.67,7.03,15.71,15.71,15.71h149.2c8.67,0,15.71-7.03,15.71-15.71v-58.64"/>
        <path class="cls-22" d="m80.61,473.31h121.9"/>
        <path class="cls-24" d="m108.1,458.77c-1.08,0-1.96-.88-1.96-1.96s.88-1.96,1.96-1.96"/>
        <path class="cls-24" d="m108.1,458.77c1.08,0,1.96-.88,1.96-1.96s-.88-1.96-1.96-1.96"/>
        <g>
          <path class="cls-24" d="m131.66,458.77c-1.08,0-1.96-.88-1.96-1.96s.88-1.96,1.96-1.96"/>
          <path class="cls-24" d="m131.66,458.77c1.08,0,1.96-.88,1.96-1.96s-.88-1.96-1.96-1.96"/>
        </g>
        <g>
          <path class="cls-24" d="m155.22,458.77c-1.08,0-1.96-.88-1.96-1.96s.88-1.96,1.96-1.96"/>
          <path class="cls-24" d="m155.22,458.77c1.08,0,1.96-.88,1.96-1.96s-.88-1.96-1.96-1.96"/>
        </g>
      </g>
      <path class="cls-15" d="m273.27,442.03c-.97,0-1.88-.18-2.73-.54-.82-.36-1.55-.86-2.19-1.49-.63-.63-1.13-1.36-1.49-2.19-.36-.85-.54-1.76-.54-2.73s.18-1.85.54-2.7c.36-.85.86-1.58,1.49-2.19.63-.63,1.36-1.13,2.19-1.49.85-.38,1.76-.56,2.73-.54.95-.02,1.85.16,2.7.54.85.36,1.59.86,2.22,1.49.61.61,1.11,1.34,1.49,2.19.36.85.54,1.74.54,2.7s-.18,1.88-.54,2.73c-.36.82-.86,1.55-1.49,2.19-.63.63-1.37,1.13-2.22,1.49-.85.36-1.74.54-2.7.54m0-9.9c-.82,0-1.55.29-2.19.86-.53.57-.79,1.27-.79,2.09s.26,1.53.79,2.13c.63.53,1.36.79,2.19.79s1.52-.26,2.09-.79c.59-.53.89-1.24.89-2.13,0-.82-.3-1.52-.89-2.09-.57-.57-1.27-.86-2.09-.86m8.91,14.85v14.82c0,1.33-.25,2.6-.76,3.81-.55,1.21-1.26,2.25-2.13,3.14-.91.91-1.97,1.62-3.17,2.13-1.25.53-2.53.79-3.84.79-.8,0-1.61-.12-2.41-.35-.82-.15-1.58-.41-2.25-.79-.51,1.67-1.26,3.19-2.25,4.57-.99,1.37-2.16,2.55-3.49,3.52-1.33.97-2.8,1.71-4.41,2.22-1.61.57-3.28.86-5.01.86-2.03,0-3.94-.35-5.74-1.05-1.73-.7-3.32-1.69-4.76-2.98-1.4-1.21-2.55-2.64-3.46-4.31-.93-1.69-1.53-3.53-1.81-5.52h-15.32c-.7,0-1.32-.26-1.87-.79-.51-.51-.76-1.12-.76-1.84v-26.46c0-.72.25-1.34.76-1.87.55-.51,1.17-.76,1.87-.76h22.75c-.61-1.27-.92-2.59-.92-3.97,0-1.29.24-2.51.73-3.65.47-1.06,1.12-2.03,1.97-2.92.85-.82,1.84-1.48,2.98-1.97,1.06-.49,2.24-.73,3.55-.73,1.29,0,2.5.24,3.62.73,1.12.49,2.1,1.14,2.95,1.97.85.89,1.5,1.86,1.97,2.92.49,1.14.73,2.36.73,3.65s-.24,2.47-.73,3.62c-.47,1.12-1.12,2.09-1.97,2.92-.85.85-1.83,1.51-2.95,2-1.12.49-2.33.73-3.62.73-.32,0-.65-.02-.98-.06-.32-.04-.65-.1-.98-.16v2.86h28.74c.82,0,1.53.29,2.13.86.57.57.86,1.27.86,2.09m-29.73-20.08c-.74,0-1.41.12-2,.35-.7.27-1.29.66-1.78,1.14-.47.49-.84,1.05-1.11,1.68-.27.66-.41,1.34-.41,2.06s.14,1.43.41,2.06c.27.63.65,1.19,1.11,1.68.49.47,1.08.85,1.78,1.14.59.27,1.26.41,2,.41s1.4-.14,2.03-.41c.63-.3,1.19-.68,1.68-1.14.49-.49.87-1.05,1.14-1.68.3-.63.44-1.32.44-2.06s-.15-1.41-.44-2.06c-.27-.63-.66-1.2-1.14-1.68-.49-.49-1.05-.87-1.68-1.14-.63-.23-1.31-.35-2.03-.35m-15.39,19.61h5.96v-4.95h-16.88v4.95h5.96v15.86h4.95m27.28,3.46v-17.83h-13.9v17.2c0,.72-.25,1.33-.76,1.84-.55.53-1.17.79-1.87.79h-7.14c.27,1.42.77,2.74,1.49,3.97.72,1.21,1.59,2.25,2.6,3.14,1.02.87,2.18,1.55,3.49,2.06,1.29.44,2.69.67,4.19.67,1.63,0,3.16-.29,4.6-.86,1.44-.63,2.71-1.49,3.81-2.57,1.08-1.08,1.92-2.34,2.54-3.78.63-1.44.95-2.98.95-4.63m13.86-4.03v-13.8h-9.9v18.12c.53.53,1.13.93,1.81,1.21.63.25,1.35.38,2.16.38s1.6-.16,2.32-.48,1.34-.74,1.87-1.27c.55-.53.97-1.16,1.27-1.9.32-.72.48-1.47.48-2.25Z"/>
      <g id="UC-UC-Free">
        <g>
          <path class="cls-15" d="m215.13,541.04v-.6c0-.6-.2-1.02-.6-1.45l-3.11-3.29c-.42-.42-.82-.6-1.25-.6s-.82.2-1.25.6c-2.27,2.47-5.36,3.72-8.88,3.72-1.85,0-3.52-.4-4.96-1.45-1.45-1.04-2.69-2.27-3.72-3.94-.82-1.63-1.45-3.29-1.45-5.14v-15.39c.02-1.83.44-3.46,1.45-5.06.46-.66.94-1.31,1.47-1.93.7-.74,1.45-1.41,2.25-1.99,1.45-1.02,3.09-1.45,4.96-1.45,3.74,0,6.61,1.47,8.88,3.94.42.42.82.6,1.25.6s.82-.22,1.02-.42l.16-.18s.04-.02.04-.02l3.09-3.29c.42-.42.6-1.02.6-1.45s-.22-.82-.42-1.25c-1.85-2.07-3.94-3.74-6.39-4.76-2.47-1.04-5.36-1.67-8.26-1.67-3.31,0-6.41.8-9.3,2.47-2.27,1.29-4.14,2.99-5.65,5.14-.5.66-.96,1.35-1.37,2.07-1.63,2.87-2.47,5.99-2.47,9.5v15.29c0,3.29.8,6.61,2.47,9.5,1.67,2.89,3.94,5.16,6.81,7.03,2.27,1.25,3.9,1.61,6.37,2.03h0l18.1-6.41c.06-.02.1-.06.14-.16h0Z"/>
          <path class="cls-15" d="m176.92,495.84h-5.99c-.42,0-.8.22-1.02.42s-.42.6-.42,1.02v30.76c0,3.29-1.02,6.17-2.87,8.26-1.83,2.03-4.28,3.05-7.33,3.07-3.05-.02-5.5-1.04-7.33-3.07-1.85-2.05-2.87-4.96-2.87-8.26v-30.76c0-.42-.22-.82-.42-1.02-.2-.22-.6-.42-1.02-.42h-5.99c-.42,0-.82.22-1.02.42-.22.2-.42.6-.42,1.02v30.33c0,3.9.8,7.41,2.47,10.53,1.67,3.09,3.94,5.56,6.81,7.23,2.87,1.85,6.21,2.69,9.9,2.69,3.5,0,6.81-.82,9.68-2.69,2.87-1.67,5.14-4.12,6.81-7.23,1.63-3.09,2.47-6.59,2.47-10.53v-30.33c0-.42-.22-.82-.42-1.02-.18-.42-.58-.42-1-.42h0Z"/>
          <path class="cls-19" d="m215.74,485.93h0l-86.08-15.49,14.65,97.43,52.59-20.27h0c-2.47-.42-4.1-.78-6.37-2.03-2.87-1.85-5.14-4.12-6.81-7.03-1.67-2.87-2.47-6.21-2.47-9.5v-15.25c0-3.52.82-6.61,2.47-9.5.42-.72.86-1.43,1.37-2.07,1.51-2.17,3.38-3.86,5.65-5.14,2.87-1.67,5.99-2.47,9.3-2.47,2.87,0,5.79.6,8.26,1.67,2.47,1.02,4.54,2.69,6.39,4.76.2.42.42.82.42,1.25s-.2,1.02-.6,1.45l-3.09,3.29s-.02,0-.04.02l-.16.18c-.2.2-.6.42-1.02.42s-.82-.2-1.25-.6c-2.27-2.47-5.14-3.94-8.88-3.94-1.85,0-3.52.42-4.96,1.45-.8.58-1.55,1.25-2.25,1.99-.52.6-1,1.27-1.47,1.93-1,1.61-1.43,3.23-1.45,5.06v15.39c0,1.85.6,3.52,1.45,5.14,1.02,1.67,2.27,2.87,3.72,3.94,1.45,1.04,3.09,1.45,4.96,1.45,3.52,0,6.61-1.25,8.88-3.72.42-.42.82-.6,1.25-.6s.82.2,1.25.6l3.09,3.29c.42.42.6.82.6,1.45v.6c-.02.08-.08.14-.12.18l.48-.16h0l14.71-5.56-14.44-49.6h0Zm-75.52,41.69v-30.33c0-.42.2-.82.42-1.02.2-.2.6-.42,1.02-.42h5.99c.42,0,.82.2,1.02.42.2.2.42.6.42,1.02v30.76c0,3.29,1.02,6.21,2.87,8.26,1.83,2.03,4.28,3.05,7.33,3.07,3.05-.02,5.5-1.04,7.33-3.07,1.85-2.07,2.87-4.96,2.87-8.26v-30.76c0-.42.2-.82.42-1.02s.6-.42,1.02-.42h5.99c.42,0,.82,0,1.02.42.2.2.42.6.42,1.02v30.33c0,3.94-.82,7.41-2.47,10.53-1.67,3.09-3.94,5.56-6.81,7.23-2.87,1.85-6.21,2.69-9.68,2.69-3.72,0-7.03-.82-9.9-2.69-2.87-1.67-5.14-4.12-6.81-7.23-1.69-3.11-2.49-6.63-2.49-10.53Z"/>
        </g>
      </g>
    </g>
    <text class="cls-9" transform="translate(22.04 878.48)"><tspan class="cls-1" x="0" y="0">C</tspan><tspan class="cls-40" x="17.79" y="0">l</tspan><tspan class="cls-37" x="29.19" y="0">i</tspan><tspan x="40.77" y="0">e</tspan><tspan class="cls-40" x="58.32" y="0">n</tspan><tspan x="76.68" y="0">t | App in </tspan><tspan class="cls-21" x="218.01" y="0">T</tspan><tspan class="cls-37" x="233.64" y="0">e</tspan><tspan x="250.89" y="0">ams</tspan></text>
    <g>
      <path id="Rectangle-4" class="cls-12" d="m1113.83,145.01h364.2v246.99h-364.2v-246.99Z"/>
      <text class="cls-9" transform="translate(1232.17 354.96)"><tspan x="0" y="0">E</tspan><tspan class="cls-40" x="16.29" y="0">n</tspan><tspan x="34.65" y="0">t</tspan><tspan class="cls-38" x="49.2" y="0">r</tspan><tspan x="64.05" y="0">a ID</tspan></text>
      <path class="cls-15" d="m1352.59,247.68l-31.46-37.72.03-.08s-.09-.03-.14-.05l-14.84-17.79c-2.27-2.72-5.57-4.28-9.07-4.29-.01,0-.02,0-.03,0-3.48,0-6.78,1.54-9.06,4.24l-46.94,55.63c-2.24,2.65-3.26,6.16-2.8,9.63.46,3.44,2.33,6.53,5.14,8.48l46.95,32.55h0c2.04,1.41,4.38,2.12,6.71,2.12s4.71-.72,6.77-2.16l46.39-32.54c2.78-1.95,4.63-5.02,5.08-8.44.46-3.44-.55-6.93-2.75-9.58Zm-109.54,8.93c-.28-2.13.34-4.28,1.7-5.9l46.94-55.63c1.36-1.61,3.32-2.53,5.38-2.53,0,0,.01,0,.02,0,2.07,0,4.04.94,5.39,2.57l11.04,13.23c-5.44-.21-11.95,1.33-16.7,7.25l-.02-.02-31.26,36.5,27.16,18.07c-12.02,8.31-14.81,9.84-21.46,9.01l-25.08-17.38c-1.7-1.18-2.83-3.06-3.11-5.16Zm53.77,10.5l-24.1-16.03,24.1-28.14,24.3,28.14-24.3,16.04Zm53.76-10.49c-.28,2.12-1.38,3.94-3.08,5.14l-46.39,32.54c-2.42,1.7-5.55,1.71-7.98.02h0l-15.22-10.55c5.17-1.09,10.23-4.6,20.69-11.85,1.59-1.11,3.32-2.3,5.2-3.6l-.02-.03,24.56-16.21-29.3-33.93,1.2.9c5.8-7.73,14.78-6.01,17.98-5.09l30.69,36.8c1.35,1.61,1.96,3.75,1.68,5.87Z"/>
    </g>
    <text class="cls-7" transform="translate(558.49 621.44)"><tspan class="cls-25" x="0" y="0">Un</tspan><tspan x="44.97" y="0">ifi</tspan><tspan class="cls-25" x="85.4" y="0">ed </tspan><tspan class="cls-39" x="136.04" y="0">C</tspan><tspan class="cls-27" x="155.33" y="0">o</tspan><tspan class="cls-41" x="175.42" y="0">nt</tspan><tspan class="cls-26" x="212.06" y="0">a</tspan><tspan class="cls-34" x="232.36" y="0">cts </tspan><tspan class="cls-36" x="292.39" y="0">F</tspan><tspan class="cls-11" x="309.85" y="0">r</tspan><tspan class="cls-27" x="325.88" y="0">ee</tspan></text>
    <path class="cls-15" d="m813.48,394.27h0l-168.25-30.26,28.63,190.36,102.79-39.63h0c-4.83-.84-7.97-1.52-12.41-3.99-5.61-3.59-10.05-8.08-13.3-13.75-3.26-5.61-4.83-12.18-4.83-18.58v-29.81c0-6.9,1.63-12.91,4.83-18.58.84-1.46,1.68-2.81,2.64-4.04,2.92-4.21,6.62-7.52,11-10.05,5.61-3.26,11.68-4.83,18.19-4.83,5.61,0,11.34,1.18,16.11,3.26,4.83,1.96,8.87,5.28,12.52,9.26.39.84.84,1.63.84,2.47s-.39,1.96-1.18,2.81l-6.06,6.4s-.06,0-.06.06l-.34.34c-.39.39-1.18.84-1.96.84-.84,0-1.63-.39-2.47-1.18-4.49-4.72-10.1-7.58-17.4-7.58-3.59,0-6.9.84-9.71,2.81-1.57,1.18-3.03,2.47-4.38,3.87-1.01,1.18-1.96,2.47-2.86,3.76-1.96,3.14-2.81,6.34-2.81,9.88v30.09c0,3.59,1.18,6.9,2.81,10.05,1.96,3.26,4.43,5.61,7.24,7.69,2.81,2.08,6.06,2.81,9.71,2.81,6.9,0,12.91-2.47,17.35-7.24.84-.84,1.63-1.18,2.47-1.18s1.63.39,2.47,1.18l6.06,6.4c.84.84,1.18,1.63,1.18,2.81v1.18c-.06.11-.11.28-.22.34l.95-.34h0l28.74-10.83-28.29-96.78Zm-147.59,81.46v-59.28c0-.84.39-1.63.84-1.96.39-.39,1.18-.84,1.96-.84h11.68c.84,0,1.63.39,1.96.84.39.39.84,1.18.84,1.96v60.12c0,6.4,1.96,12.18,5.61,16.11,3.54,3.99,8.31,5.95,14.37,6.01,5.95-.06,10.72-2.08,14.37-6.01,3.59-4.04,5.61-9.71,5.61-16.11v-60.12c0-.84.39-1.63.84-1.96.39-.39,1.18-.84,1.96-.84h11.68c.84,0,1.63,0,1.96.84.39.39.84,1.18.84,1.96v59.28c0,7.69-1.63,14.48-4.83,20.55-3.26,6.06-7.69,10.83-13.3,14.15-5.61,3.59-12.18,5.28-18.92,5.28-7.24,0-13.75-1.63-19.31-5.28-5.61-3.26-10.05-8.08-13.3-14.15-3.31-6.06-4.88-12.97-4.88-20.55Z"/>
    <g>
      <rect class="cls-17" x="838.77" y="178.17" width="99.77" height="45.98"/>
      <text class="cls-2" transform="translate(844.2 215.9)"><tspan x="0" y="0">FR</tspan></text>
      <text class="cls-3" transform="translate(889.25 215.9)"><tspan x="0" y="0">E</tspan></text>
      <text class="cls-6" transform="translate(912.09 215.9)"><tspan x="0" y="0">E</tspan></text>
      <path class="cls-13" d="m848.02,215.71c-.11-.11-.17-.23-.17-.4v-26.18c0-.4.11-.75.4-1.03.29-.29.63-.4,1.03-.4h13.32c.17,0,.29.06.4.17.11.11.17.23.17.4v2.01c0,.17-.06.29-.17.4s-.23.17-.4.17h-11.48v9.47h8.78c.17,0,.29.06.4.17.11.11.17.23.17.4v1.89c0,.17-.06.29-.17.4s-.23.17-.4.17h-8.78v11.94c0,.17-.06.29-.17.4s-.23.17-.4.17h-2.18c-.11,0-.23-.06-.34-.17Z"/>
      <path class="cls-13" d="m869.32,215.71c-.11-.11-.17-.23-.17-.4v-26.18c0-.4.11-.75.4-1.03s.63-.4,1.03-.4h7.06c1.49,0,2.87.34,4.13,1.09s2.24,1.72,2.99,2.99c.75,1.26,1.09,2.64,1.09,4.13,0,1.95-.63,3.73-1.84,5.17-1.26,1.49-2.81,2.41-4.71,2.81l6.72,10.85c.06.11.11.23.11.4,0,.23-.06.4-.23.52-.17.11-.34.23-.57.23h-2.07c-.29,0-.46-.11-.63-.34l-7.12-11.48h-3.16v11.25c0,.17-.06.29-.17.4s-.23.17-.4.17h-2.18s-.17-.06-.29-.17Zm8.15-14.75c1.44,0,2.64-.46,3.62-1.44.98-.92,1.44-2.12,1.44-3.56s-.46-2.7-1.44-3.67c-.98-.98-2.18-1.44-3.62-1.44h-4.94v10.1h4.94Z"/>
      <path class="cls-13" d="m893.31,215.48c-.29-.29-.4-.63-.4-1.03v-25.26c0-.4.11-.75.4-1.03s.63-.4,1.03-.4h13.32c.17,0,.29.06.4.17.11.11.17.23.17.4v2.01c0,.17-.06.29-.17.4s-.23.17-.4.17h-11.48v8.67h8.78c.17,0,.29.06.4.17.11.11.17.23.17.4v1.89c0,.17-.06.29-.17.4s-.23.17-.4.17h-8.78v10.22h11.48c.17,0,.29.06.4.17.11.11.17.23.17.4v2.01c0,.17-.06.29-.17.4s-.23.17-.4.17h-13.32c-.4-.11-.75-.23-1.03-.52Z"/>
      <path class="cls-13" d="m916.16,215.48c-.29-.29-.4-.63-.4-1.03v-25.26c0-.4.11-.75.4-1.03s.63-.4,1.03-.4h13.32c.17,0,.29.06.4.17.11.11.17.23.17.4v2.01c0,.17-.06.29-.17.4-.11.11-.23.17-.4.17h-11.48v8.67h8.78c.17,0,.29.06.4.17.11.11.17.23.17.4v1.89c0,.17-.06.29-.17.4-.11.11-.23.17-.4.17h-8.78v10.22h11.48c.17,0,.29.06.4.17.11.11.17.23.17.4v2.01c0,.17-.06.29-.17.4-.11.11-.23.17-.4.17h-13.32c-.4-.11-.75-.23-1.03-.52Z"/>
    </g>
    <path class="cls-23" d="m388.55,537.73h101"/>
    <path class="cls-23" d="m989.49,270.5h101"/>
    <path class="cls-23" d="m992.14,535.85h101"/>
    <path class="cls-23" d="m992.14,805.69h101"/>
    <g>
      <rect class="cls-14" x="513.62" width="454.69" height="111.31"/>
      <text class="cls-20" transform="translate(538.08 71.74)"><tspan class="cls-29" x="0" y="0">VEN</tspan><tspan class="cls-32" x="85.45" y="0">D</tspan><tspan class="cls-29" x="115.24" y="0">OR</tspan><tspan class="cls-28" x="171.36" y="0"> </tspan><tspan class="cls-5" x="181.36" y="0"> </tspan><tspan class="cls-8" x="189.46" y="0">T</tspan><tspan class="cls-5" x="203.98" y="0">ena</tspan><tspan class="cls-4" x="255.31" y="0">n</tspan><tspan class="cls-5" x="272.98" y="0">t</tspan></text>
    </g>
    <g>
      <rect class="cls-14" x="1113.57" width="364.45" height="112.13"/>
      <text class="cls-20" transform="translate(1139.75 70.47)"><tspan class="cls-31" x="0" y="0">Y</tspan><tspan class="cls-30" x="26.1" y="0">O</tspan><tspan class="cls-29" x="55.75" y="0">UR</tspan><tspan class="cls-28" x="113.49" y="0"> </tspan><tspan class="cls-5" x="123.49" y="0">M365 </tspan><tspan class="cls-8" x="207.91" y="0">T</tspan><tspan class="cls-5" x="222.43" y="0">ena</tspan><tspan class="cls-4" x="273.76" y="0">n</tspan><tspan class="cls-5" x="291.43" y="0">t</tspan></text>
    </g>
  </g>
</svg>