<?xml version="1.0" encoding="utf-8"?>
<!-- Generator: Adobe Illustrator 27.2.0, SVG Export Plug-In . SVG Version: 6.00 Build 0)  -->
<svg version="1.1" id="Ebene_8" xmlns="http://www.w3.org/2000/svg" xmlns:xlink="http://www.w3.org/1999/xlink" x="0px" y="0px"
	 viewBox="0 0 1921.4 983.9" style="enable-background:new 0 0 1921.4 983.9;" xml:space="preserve">
<style type="text/css">
	.st0{fill:#FFFFFF;stroke:#FFFFFF;stroke-miterlimit:10;}
	.st1{fill:#008187;}
	.st2{opacity:0.7;fill:#808E99;enable-background:new    ;}
	.st3{fill:none;stroke:#F5C663;stroke-width:5.67;stroke-linecap:round;stroke-linejoin:round;}
	.st4{fill:#FFFFFF;}
	.st5{enable-background:new    ;}
	.st6{fill:#FAFBFC;}
	.st7{fill:none;stroke:#FFFFFF;stroke-width:5.67;stroke-miterlimit:10;}
	.st8{fill:#FFFFFF;stroke:#FFFFFF;stroke-width:2.83;stroke-miterlimit:10;}
	.st9{fill:none;stroke:#FFFFFF;stroke-width:5.1;stroke-linecap:round;stroke-linejoin:round;}
	.st10{fill:none;stroke:#FFFFFF;stroke-width:5.1;stroke-miterlimit:66.67;}
	.st11{fill:#008087;}
	.st12{fill:#5CBBFF;}
	.st13{fill:#808E99;}
	.st14{fill:none;stroke:#F5C663;stroke-width:5.67;stroke-linecap:round;stroke-miterlimit:10;}
</style>
<path id="Rectangle-Copy-2" class="st0" d="M462.2,28.6h1040v947.3h-1040V28.6z"/>
<g id="Group-3">
	<path id="Rectangle" class="st1" d="M513.9,136.3h454.4v788.4H513.9V136.3z"/>
</g>
<path id="Rectangle-2" class="st2" d="M1073.9,404.7h364.2v247h-364.2L1073.9,404.7L1073.9,404.7z"/>
<path id="Rectangle-3" class="st2" d="M1073.9,677.7h364.2v247h-364.2V677.7z"/>
<path id="Rectangle-4" class="st2" d="M1073.9,134.4h364.2v247h-364.2L1073.9,134.4L1073.9,134.4z"/>
<path id="Rectangle-5" class="st2" d="M0,136.3h364.2v788.4H0V136.3z"/>
<path class="st3" d="M984.4,539.1h77.4"/>
<path class="st3" d="M984.4,355.6l77.4-95.9"/>
<g>
	<path class="st4" d="M1163.5,309c-0.1-0.1-0.2-0.3-0.2-0.5c0-0.1,0-0.2,0-0.2l6.5-20c0.1-0.2,0.2-0.4,0.3-0.5s0.4-0.2,0.6-0.2h2.3
		c0.2,0,0.4,0.1,0.6,0.2s0.3,0.3,0.3,0.5l6.5,20c0,0.1,0,0.1,0,0.2c0,0.2-0.1,0.4-0.2,0.5s-0.3,0.2-0.5,0.2h-2.2
		c-0.2,0-0.4-0.1-0.6-0.2c-0.2-0.1-0.3-0.3-0.3-0.5l-1.3-4.3h-7l-1.3,4.3c-0.1,0.2-0.2,0.4-0.3,0.5c-0.2,0.1-0.4,0.2-0.6,0.2h-2.1
		C1163.8,309.2,1163.6,309.1,1163.5,309L1163.5,309z M1174.3,300.8l-2.5-8l-2.5,8H1174.3L1174.3,300.8z"/>
	<path class="st4" d="M1184.7,309.1c-0.4,0-0.8-0.2-1.1-0.5c-0.3-0.4-0.5-0.7-0.5-1.2c0-0.3,0.1-0.6,0.2-0.8l7.5-11.2h-6.8
		c-0.2,0-0.3-0.1-0.4-0.2s-0.2-0.3-0.2-0.5v-2.2c0-0.2,0.1-0.3,0.2-0.5c0.1-0.1,0.3-0.2,0.4-0.2h10.1c0.5,0,0.8,0.2,1.2,0.5
		c0.3,0.3,0.5,0.7,0.5,1.2c0,0.3-0.1,0.6-0.2,0.8l-7.6,11.2h7.3c0.2,0,0.3,0.1,0.5,0.2s0.2,0.3,0.2,0.5l0,2.1c0,0.2-0.1,0.4-0.2,0.5
		s-0.3,0.2-0.4,0.2L1184.7,309.1L1184.7,309.1z"/>
	<path class="st4" d="M1202.2,308.8c-0.9-0.5-1.6-1.3-2.2-2.2s-0.8-2-0.8-3.2v-10.6c0-0.2,0.1-0.3,0.2-0.5c0.1-0.1,0.3-0.2,0.4-0.2
		h2.3c0.2,0,0.3,0.1,0.4,0.2s0.2,0.3,0.2,0.5v10.2c0,1.1,0.3,1.9,0.8,2.4s1.3,0.9,2.3,0.9c1.2,0,2.1-0.4,2.8-1.1
		c0.7-0.8,1-1.8,1-3.2v-9.2c0-0.2,0.1-0.3,0.2-0.5c0.1-0.1,0.3-0.2,0.4-0.2h2.3c0.2,0,0.3,0.1,0.4,0.2s0.2,0.3,0.2,0.5v15.9
		c0,0.2-0.1,0.3-0.2,0.5c-0.1,0.1-0.3,0.2-0.4,0.2h-2.3c-0.2,0-0.3-0.1-0.4-0.2s-0.2-0.3-0.2-0.5v-1.4c-0.6,0.8-1.2,1.4-2,1.8
		c-0.8,0.4-1.6,0.6-2.5,0.6C1204.1,309.6,1203.1,309.3,1202.2,308.8L1202.2,308.8z"/>
	<path class="st4" d="M1217.6,309c-0.1-0.1-0.2-0.3-0.2-0.5v-2.2c0-0.2,0.1-0.3,0.2-0.5c0.1-0.1,0.3-0.2,0.4-0.2h2.3v-10.3h-2.6
		c-0.2,0-0.3-0.1-0.4-0.2s-0.2-0.3-0.2-0.5v-2.1c0-0.2,0.1-0.3,0.2-0.5c0.1-0.1,0.3-0.2,0.4-0.2h4.7c0.4,0,0.7,0.1,0.9,0.4
		c0.2,0.2,0.4,0.6,0.4,0.9v1.1l1.6-1.3c0.6-0.5,1.1-0.8,1.6-1c0.4-0.2,1-0.3,1.6-0.3h0.9c0.2,0,0.3,0.1,0.4,0.2s0.2,0.3,0.2,0.5v2.3
		c0,0.2-0.1,0.3-0.2,0.5c-0.1,0.1-0.3,0.2-0.4,0.2h-0.8c-0.5,0-1,0.1-1.3,0.3s-1,0.6-1.7,1.2l-1.7,1.3v7.6h3c0.2,0,0.3,0.1,0.4,0.2
		s0.2,0.3,0.2,0.5v2.2c0,0.2-0.1,0.3-0.2,0.5c-0.1,0.1-0.3,0.2-0.4,0.2h-8.8C1217.9,309.2,1217.8,309.2,1217.6,309L1217.6,309z"/>
	<path class="st4" d="M1235.8,308.2c-1.1-0.6-2-1.5-2.6-2.6c-0.6-1.1-1-2.3-1-3.6v-3.2c0-1.3,0.3-2.5,1-3.6s1.5-2,2.6-2.6
		c1.1-0.6,2.3-1,3.6-1s2.5,0.3,3.6,1c1.1,0.6,2,1.5,2.6,2.6c0.6,1.1,1,2.3,1,3.6v2c0,0.4-0.1,0.7-0.4,0.9c-0.2,0.2-0.6,0.4-0.9,0.4
		h-9.4v0.1c0,1,0.3,1.8,1,2.5c0.7,0.7,1.5,1,2.5,1h4.8c0.2,0,0.3,0.1,0.4,0.2s0.2,0.3,0.2,0.5v2.2c0,0.2-0.1,0.3-0.2,0.5
		c-0.1,0.1-0.3,0.2-0.4,0.2h-4.8C1238.1,309.2,1236.9,308.9,1235.8,308.2L1235.8,308.2z M1242.9,298.9v-0.3c0-1-0.3-1.8-1-2.5
		c-0.7-0.7-1.5-1-2.5-1s-1.8,0.4-2.5,1s-1,1.5-1,2.5v0.3H1242.9L1242.9,298.9z"/>
	<path class="st4" d="M1256.7,309c-0.1-0.1-0.2-0.3-0.2-0.5c0-0.1,0-0.2,0-0.2l6.5-20c0.1-0.2,0.2-0.4,0.3-0.5s0.4-0.2,0.6-0.2h2.3
		c0.2,0,0.4,0.1,0.6,0.2s0.3,0.3,0.3,0.5l6.5,20c0,0.1,0,0.1,0,0.2c0,0.2-0.1,0.4-0.2,0.5s-0.3,0.2-0.5,0.2h-2.2
		c-0.2,0-0.4-0.1-0.6-0.2c-0.2-0.1-0.3-0.3-0.3-0.5l-1.3-4.3h-7l-1.3,4.3c-0.1,0.2-0.2,0.4-0.3,0.5c-0.2,0.1-0.4,0.2-0.6,0.2h-2.1
		C1257,309.2,1256.8,309.1,1256.7,309L1256.7,309z M1267.5,300.8l-2.5-8l-2.5,8H1267.5L1267.5,300.8z"/>
	<path class="st4" d="M1279.8,308.6c-1.1-0.6-2-1.5-2.6-2.6c-0.6-1.1-1-2.3-1-3.6v-3.6c0-1.3,0.3-2.5,1-3.6s1.5-2,2.6-2.6
		c1.1-0.6,2.3-1,3.6-1c1,0,2,0.2,2.9,0.6s1.7,1,2.4,1.7c0.1,0.1,0.2,0.3,0.2,0.5c0,0.2-0.1,0.4-0.3,0.6l-1.3,1.3
		c-0.1,0.1-0.3,0.2-0.5,0.2s-0.3-0.1-0.5-0.3c-0.8-0.8-1.8-1.2-2.9-1.2c-1,0-1.8,0.4-2.5,1s-1,1.5-1,2.5v3.9c0,1,0.3,1.8,1,2.5
		c0.7,0.7,1.5,1,2.5,1c1.2,0,2.1-0.4,2.9-1.2c0.2-0.2,0.3-0.3,0.5-0.3s0.3,0.1,0.5,0.2l1.3,1.3c0.2,0.2,0.3,0.4,0.3,0.6
		c0,0.2-0.1,0.3-0.2,0.5c-0.7,0.7-1.4,1.3-2.4,1.7s-1.9,0.6-2.9,0.6C1282.1,309.6,1280.9,309.3,1279.8,308.6L1279.8,308.6z"/>
	<path class="st4" d="M1295.6,307.8c-1-1-1.5-2.2-1.5-3.8v-8.6h-2.1c-0.2,0-0.3-0.1-0.4-0.2s-0.2-0.3-0.2-0.5v-2.1
		c0-0.2,0.1-0.3,0.2-0.5c0.1-0.1,0.3-0.2,0.4-0.2h2.1v-3.2c0-0.2,0.1-0.3,0.2-0.5s0.3-0.2,0.4-0.2h2.3c0.2,0,0.3,0.1,0.4,0.2
		s0.2,0.3,0.2,0.5v3.2h5.1c0.2,0,0.3,0.1,0.4,0.2s0.2,0.3,0.2,0.5v2.1c0,0.2-0.1,0.3-0.2,0.5s-0.3,0.2-0.4,0.2h-5.1v8.4
		c0,0.6,0.2,1.1,0.5,1.4c0.3,0.4,0.8,0.5,1.4,0.5l3.2,0c0.2,0,0.3,0.1,0.4,0.2s0.2,0.3,0.2,0.5v2.1c0,0.2-0.1,0.3-0.2,0.5
		c-0.1,0.1-0.3,0.2-0.4,0.2h-3.4C1297.8,309.2,1296.5,308.7,1295.6,307.8L1295.6,307.8z"/>
	<path class="st4" d="M1309.6,308.8c-0.3-0.3-0.4-0.6-0.4-1.1v-12.3h-2.4c-0.2,0-0.3-0.1-0.4-0.2s-0.2-0.3-0.2-0.5v-2.2
		c0-0.2,0.1-0.3,0.2-0.5c0.1-0.1,0.3-0.2,0.4-0.2h4.5c0.4,0,0.8,0.1,1.1,0.4s0.4,0.6,0.4,1.1v12.3h2.4c0.2,0,0.3,0.1,0.4,0.2
		s0.2,0.3,0.2,0.5v2.2c0,0.2-0.1,0.3-0.2,0.5c-0.1,0.1-0.3,0.2-0.4,0.2h-4.5C1310.2,309.2,1309.9,309.1,1309.6,308.8z M1309.5,289.8
		c-0.1-0.1-0.2-0.3-0.2-0.5v-3.3c0-0.2,0.1-0.3,0.2-0.5c0.1-0.1,0.3-0.2,0.4-0.2h2c0.2,0,0.3,0.1,0.4,0.2s0.2,0.3,0.2,0.5v3.3
		c0,0.2-0.1,0.3-0.2,0.5s-0.3,0.2-0.4,0.2h-2C1309.7,290,1309.6,290,1309.5,289.8z"/>
	<path class="st4" d="M1323.4,309.4c-0.5,0-0.8-0.2-0.9-0.6l-5.6-15.8c0-0.1-0.1-0.2-0.1-0.3c0-0.2,0.1-0.4,0.2-0.5
		c0.1-0.1,0.3-0.2,0.5-0.2h2.1c0.2,0,0.4,0.1,0.6,0.2c0.2,0.1,0.3,0.3,0.3,0.5l4.1,12.1l4.1-12.1c0.1-0.2,0.2-0.4,0.3-0.5
		c0.2-0.1,0.3-0.2,0.6-0.2h1.9c0.2,0,0.4,0.1,0.5,0.2s0.2,0.3,0.2,0.5c0,0.1,0,0.1-0.1,0.3l-5.6,15.8c-0.1,0.2-0.2,0.4-0.4,0.5
		c-0.2,0.1-0.4,0.2-0.6,0.2L1323.4,309.4L1323.4,309.4z"/>
	<path class="st4" d="M1338.1,308.2c-1.1-0.6-2-1.5-2.6-2.6c-0.6-1.1-1-2.3-1-3.6v-3.2c0-1.3,0.3-2.5,1-3.6s1.5-2,2.6-2.6
		c1.1-0.6,2.3-1,3.6-1s2.5,0.3,3.6,1c1.1,0.6,2,1.5,2.6,2.6c0.6,1.1,1,2.3,1,3.6v2c0,0.4-0.1,0.7-0.4,0.9c-0.2,0.2-0.6,0.4-0.9,0.4
		h-9.4v0.1c0,1,0.3,1.8,1,2.5c0.7,0.7,1.5,1,2.5,1h4.8c0.2,0,0.3,0.1,0.4,0.2s0.2,0.3,0.2,0.5v2.2c0,0.2-0.1,0.3-0.2,0.5
		c-0.1,0.1-0.3,0.2-0.4,0.2h-4.8C1340.3,309.2,1339.1,308.9,1338.1,308.2L1338.1,308.2z M1345.2,298.9v-0.3c0-1-0.3-1.8-1-2.5
		c-0.7-0.7-1.5-1-2.5-1s-1.8,0.4-2.5,1s-1,1.5-1,2.5v0.3H1345.2L1345.2,298.9z"/>
	<path class="st4" d="M1187,344.8c-0.2-0.2-0.4-0.6-0.4-0.9V325c0-0.4,0.1-0.7,0.4-0.9c0.2-0.2,0.6-0.4,0.9-0.4h5.9
		c1.5,0,2.9,0.4,4.2,1.1s2.2,1.8,3,3c0.7,1.3,1.1,2.7,1.1,4.2v4.7c0,1.5-0.4,3-1.1,4.2c-0.7,1.3-1.7,2.3-3,3s-2.7,1.1-4.2,1.1h-5.9
		C1187.5,345.2,1187.2,345.1,1187,344.8L1187,344.8z M1193.6,341.7c0.9,0,1.7-0.2,2.4-0.6c0.7-0.4,1.3-1,1.7-1.7
		c0.4-0.7,0.6-1.5,0.6-2.4V332c0-0.9-0.2-1.6-0.6-2.4c-0.4-0.7-1-1.3-1.7-1.7s-1.5-0.6-2.4-0.6h-3.4v14.4L1193.6,341.7L1193.6,341.7
		z"/>
	<path class="st4" d="M1208.5,344.8c-0.3-0.3-0.4-0.6-0.4-1.1v-12.3h-2.4c-0.2,0-0.3-0.1-0.4-0.2s-0.2-0.3-0.2-0.5v-2.2
		c0-0.2,0.1-0.3,0.2-0.5c0.1-0.1,0.3-0.2,0.4-0.2h4.5c0.4,0,0.8,0.1,1.1,0.4s0.4,0.6,0.4,1.1v12.3h2.4c0.2,0,0.3,0.1,0.4,0.2
		s0.2,0.3,0.2,0.5v2.2c0,0.2-0.1,0.3-0.2,0.5c-0.1,0.1-0.3,0.2-0.4,0.2h-4.5C1209.2,345.2,1208.8,345.1,1208.5,344.8z M1208.4,325.8
		c-0.1-0.1-0.2-0.3-0.2-0.5v-3.3c0-0.2,0.1-0.3,0.2-0.5c0.1-0.1,0.3-0.2,0.4-0.2h2c0.2,0,0.3,0.1,0.4,0.2s0.2,0.3,0.2,0.5v3.3
		c0,0.2-0.1,0.3-0.2,0.5s-0.3,0.2-0.4,0.2h-2C1208.7,326,1208.5,326,1208.4,325.8z"/>
	<path class="st4" d="M1217.5,345c-0.1-0.1-0.2-0.3-0.2-0.5v-2.2c0-0.2,0.1-0.3,0.2-0.5c0.1-0.1,0.3-0.2,0.4-0.2h2.3v-10.3h-2.6
		c-0.2,0-0.3-0.1-0.4-0.2s-0.2-0.3-0.2-0.5v-2.1c0-0.2,0.1-0.3,0.2-0.5c0.1-0.1,0.3-0.2,0.4-0.2h4.7c0.4,0,0.7,0.1,0.9,0.4
		c0.2,0.2,0.4,0.6,0.4,0.9v1.1l1.6-1.3c0.6-0.5,1.1-0.8,1.6-1c0.4-0.2,1-0.3,1.6-0.3h0.9c0.2,0,0.3,0.1,0.4,0.2s0.2,0.3,0.2,0.5v2.3
		c0,0.2-0.1,0.3-0.2,0.5c-0.1,0.1-0.3,0.2-0.4,0.2h-0.8c-0.5,0-1,0.1-1.3,0.3s-1,0.6-1.7,1.2l-1.7,1.3v7.6h3c0.2,0,0.3,0.1,0.4,0.2
		s0.2,0.3,0.2,0.5v2.2c0,0.2-0.1,0.3-0.2,0.5c-0.1,0.1-0.3,0.2-0.4,0.2h-8.8C1217.8,345.2,1217.6,345.2,1217.5,345L1217.5,345z"/>
	<path class="st4" d="M1235.7,344.2c-1.1-0.6-2-1.5-2.6-2.6c-0.6-1.1-1-2.3-1-3.6v-3.2c0-1.3,0.3-2.5,1-3.6s1.5-2,2.6-2.6
		c1.1-0.6,2.3-1,3.6-1s2.5,0.3,3.6,1c1.1,0.6,2,1.5,2.6,2.6c0.6,1.1,1,2.3,1,3.6v2c0,0.4-0.1,0.7-0.4,0.9c-0.2,0.2-0.6,0.4-0.9,0.4
		h-9.4v0.1c0,1,0.3,1.8,1,2.5c0.7,0.7,1.5,1,2.5,1h4.8c0.2,0,0.3,0.1,0.4,0.2s0.2,0.3,0.2,0.5v2.2c0,0.2-0.1,0.3-0.2,0.5
		c-0.1,0.1-0.3,0.2-0.4,0.2h-4.8C1237.9,345.2,1236.7,344.9,1235.7,344.2L1235.7,344.2z M1242.8,334.9v-0.3c0-1-0.3-1.8-1-2.5
		c-0.7-0.7-1.5-1-2.5-1s-1.8,0.4-2.5,1s-1,1.5-1,2.5v0.3H1242.8L1242.8,334.9z"/>
	<path class="st4" d="M1253.4,344.6c-1.1-0.6-2-1.5-2.6-2.6c-0.6-1.1-1-2.3-1-3.6v-3.6c0-1.3,0.3-2.5,1-3.6s1.5-2,2.6-2.6
		c1.1-0.6,2.3-1,3.6-1c1,0,2,0.2,2.9,0.6s1.7,1,2.4,1.7c0.1,0.1,0.2,0.3,0.2,0.5c0,0.2-0.1,0.4-0.3,0.6l-1.3,1.3
		c-0.1,0.1-0.3,0.2-0.5,0.2s-0.3-0.1-0.5-0.3c-0.8-0.8-1.8-1.2-2.9-1.2c-1,0-1.8,0.4-2.5,1s-1,1.5-1,2.5v3.9c0,1,0.3,1.8,1,2.5
		c0.7,0.7,1.5,1,2.5,1c1.2,0,2.1-0.4,2.9-1.2c0.2-0.2,0.3-0.3,0.5-0.3s0.3,0.1,0.5,0.2l1.3,1.3c0.2,0.2,0.3,0.4,0.3,0.6
		c0,0.2-0.1,0.3-0.2,0.5c-0.7,0.7-1.4,1.3-2.4,1.7s-1.9,0.6-2.9,0.6C1255.6,345.6,1254.4,345.3,1253.4,344.6L1253.4,344.6z"/>
	<path class="st4" d="M1269.1,343.8c-1-1-1.5-2.2-1.5-3.8v-8.6h-2.1c-0.2,0-0.3-0.1-0.4-0.2s-0.2-0.3-0.2-0.5v-2.1
		c0-0.2,0.1-0.3,0.2-0.5c0.1-0.1,0.3-0.2,0.4-0.2h2.1v-3.2c0-0.2,0.1-0.3,0.2-0.5s0.3-0.2,0.4-0.2h2.3c0.2,0,0.3,0.1,0.4,0.2
		s0.2,0.3,0.2,0.5v3.2h5.1c0.2,0,0.3,0.1,0.4,0.2s0.2,0.3,0.2,0.5v2.1c0,0.2-0.1,0.3-0.2,0.5s-0.3,0.2-0.4,0.2h-5.1v8.4
		c0,0.6,0.2,1.1,0.5,1.4c0.3,0.4,0.8,0.5,1.4,0.5l3.2,0c0.2,0,0.3,0.1,0.4,0.2s0.2,0.3,0.2,0.5v2.1c0,0.2-0.1,0.3-0.2,0.5
		c-0.1,0.1-0.3,0.2-0.4,0.2h-3.4C1271.3,345.2,1270.1,344.7,1269.1,343.8L1269.1,343.8z"/>
	<path class="st4" d="M1283.3,344.7c-1.1-0.6-2-1.5-2.6-2.6c-0.6-1.1-1-2.2-1-3.5v-3.9c0-1.3,0.3-2.4,1-3.5c0.6-1.1,1.5-1.9,2.6-2.6
		c1.1-0.6,2.3-1,3.6-1s2.5,0.3,3.6,1c1.1,0.6,2,1.5,2.6,2.6s1,2.2,1,3.5v3.9c0,1.3-0.3,2.4-1,3.5c-0.6,1.1-1.5,1.9-2.6,2.6
		c-1.1,0.6-2.3,1-3.6,1S1284.4,345.3,1283.3,344.7z M1289.4,341.1c0.7-0.7,1-1.5,1-2.5v-3.9c0-1-0.3-1.8-1-2.5c-0.7-0.7-1.5-1-2.5-1
		s-1.8,0.4-2.5,1s-1,1.5-1,2.5v3.9c0,1,0.3,1.8,1,2.5c0.7,0.7,1.5,1,2.5,1S1288.7,341.8,1289.4,341.1z"/>
	<path class="st4" d="M1297.1,345c-0.1-0.1-0.2-0.3-0.2-0.5v-2.2c0-0.2,0.1-0.3,0.2-0.5c0.1-0.1,0.3-0.2,0.4-0.2h2.3v-10.3h-2.6
		c-0.2,0-0.3-0.1-0.4-0.2s-0.2-0.3-0.2-0.5v-2.1c0-0.2,0.1-0.3,0.2-0.5c0.1-0.1,0.3-0.2,0.4-0.2h4.7c0.4,0,0.7,0.1,0.9,0.4
		c0.2,0.2,0.4,0.6,0.4,0.9v1.1l1.6-1.3c0.6-0.5,1.1-0.8,1.6-1c0.4-0.2,1-0.3,1.6-0.3h0.9c0.2,0,0.3,0.1,0.4,0.2s0.2,0.3,0.2,0.5v2.3
		c0,0.2-0.1,0.3-0.2,0.5c-0.1,0.1-0.3,0.2-0.4,0.2h-0.8c-0.5,0-1,0.1-1.3,0.3s-1,0.6-1.7,1.2l-1.7,1.3v7.6h3c0.2,0,0.3,0.1,0.4,0.2
		s0.2,0.3,0.2,0.5v2.2c0,0.2-0.1,0.3-0.2,0.5c-0.1,0.1-0.3,0.2-0.4,0.2h-8.8C1297.4,345.2,1297.3,345.2,1297.1,345L1297.1,345z"/>
	<path class="st4" d="M1316.5,350.8c-0.1-0.2-0.1-0.4-0.1-0.6l1.6-4.4l-5.9-16.7c0-0.1-0.1-0.2-0.1-0.3c0-0.2,0.1-0.4,0.2-0.5
		c0.1-0.1,0.3-0.2,0.5-0.2h2.1c0.2,0,0.4,0.1,0.6,0.2c0.2,0.1,0.3,0.3,0.3,0.5l4.1,12l4.1-12c0.1-0.2,0.2-0.4,0.3-0.5
		c0.2-0.1,0.3-0.2,0.6-0.2h1.9c0.2,0,0.4,0.1,0.5,0.2s0.2,0.3,0.2,0.5c0,0.1,0,0.1-0.1,0.3l-7.5,21.4c-0.1,0.2-0.2,0.4-0.4,0.5
		c-0.2,0.1-0.3,0.2-0.6,0.2h-2C1316.8,351,1316.6,350.9,1316.5,350.8L1316.5,350.8z"/>
</g>
<path id="Rectangle-4-2" class="st2" d="M1568.2,681.8h351.3v247h-351.3V681.8z"/>
<g>
	<path class="st4" d="M1616.5,777.4c-1.3-0.7-2.3-1.6-3-2.8c-0.1-0.1-0.1-0.2-0.1-0.4c0-0.3,0.1-0.5,0.3-0.7l1.7-1.2
		c0.1-0.1,0.3-0.2,0.4-0.2c0.2,0,0.4,0.1,0.6,0.3c0.5,0.8,1.2,1.4,1.9,1.8c0.8,0.5,1.5,0.7,2.3,0.7c0.7,0,1.4-0.2,2-0.5
		c0.6-0.4,1.1-0.9,1.5-1.5s0.5-1.3,0.5-2c0-1-0.4-2-1.1-2.7c-0.7-0.8-1.6-1.2-2.6-1.3l-0.8,1.2c-0.1,0.2-0.3,0.3-0.5,0.3
		c-0.1,0-0.2,0-0.4-0.2l-1.7-1.2c-0.2-0.1-0.3-0.3-0.3-0.5c0-0.1,0-0.3,0.1-0.4l4.3-6.1h-6c-0.2,0-0.3-0.1-0.4-0.2s-0.2-0.3-0.2-0.5
		v-2.2c0-0.2,0.1-0.3,0.2-0.5s0.3-0.2,0.4-0.2h8.8c0.6,0,1.1,0.2,1.5,0.6s0.6,0.8,0.6,1.3c0,0.5-0.1,0.9-0.4,1.2l-3.1,4.2
		c1.5,0.5,2.7,1.3,3.6,2.6c0.9,1.3,1.4,2.7,1.4,4.3c0,1.3-0.3,2.6-1,3.7c-0.7,1.2-1.6,2.1-2.8,2.8s-2.4,1-3.8,1
		S1617.8,778.1,1616.5,777.4L1616.5,777.4z"/>
	<path class="st4" d="M1631.4,777.8c-0.1-0.1-0.2-0.3-0.2-0.5v-2.2c0-0.2,0.1-0.3,0.2-0.5s0.3-0.2,0.4-0.2h2.3v-10.3h-2.6
		c-0.2,0-0.3-0.1-0.4-0.2s-0.2-0.3-0.2-0.5v-2.1c0-0.2,0.1-0.3,0.2-0.5s0.3-0.2,0.4-0.2h4.7c0.4,0,0.7,0.1,0.9,0.4s0.4,0.5,0.4,0.9
		v1.1l1.6-1.3c0.6-0.5,1.1-0.8,1.6-1c0.4-0.2,1-0.3,1.6-0.3h0.9c0.2,0,0.3,0.1,0.4,0.2s0.2,0.3,0.2,0.5v2.3c0,0.2-0.1,0.3-0.2,0.5
		s-0.3,0.2-0.4,0.2h-0.8c-0.5,0-1,0.1-1.3,0.3s-1,0.6-1.7,1.2l-1.7,1.3v7.6h3c0.2,0,0.3,0.1,0.4,0.2s0.2,0.3,0.2,0.5v2.2
		c0,0.2-0.1,0.3-0.2,0.5s-0.3,0.2-0.4,0.2h-8.8C1631.7,778,1631.5,778,1631.4,777.8L1631.4,777.8z"/>
	<path class="st4" d="M1649.4,777.5c-1-0.6-1.8-1.5-2.4-2.5c-0.6-1.1-0.9-2.2-0.9-3.4v-4.2c0-1.2,0.3-2.4,0.9-3.4s1.4-1.9,2.4-2.5
		s2.1-1,3.3-1c0.8,0,1.5,0.1,2.2,0.4s1.3,0.6,1.8,1v-6.2c0-0.2,0.1-0.3,0.2-0.5s0.3-0.2,0.4-0.2h2.3c0.2,0,0.3,0.1,0.4,0.2
		s0.2,0.3,0.2,0.5v21.7c0,0.2-0.1,0.3-0.2,0.5s-0.3,0.2-0.4,0.2h-1.9c-0.2,0-0.3-0.1-0.4-0.2s-0.2-0.3-0.2-0.5v-1.4
		c-0.5,0.8-1.2,1.4-1.9,1.8c-0.8,0.4-1.6,0.6-2.5,0.6C1651.5,778.4,1650.4,778.1,1649.4,777.5L1649.4,777.5z M1655.7,773.9
		c0.7-0.7,1.1-1.5,1.1-2.5v-4c0-1-0.3-1.8-1.1-2.5s-1.5-1-2.5-1s-1.8,0.3-2.5,1c-0.7,0.7-1,1.5-1,2.5v4c0,1,0.3,1.8,1,2.5
		c0.7,0.7,1.5,1,2.5,1S1655,774.6,1655.7,773.9z"/>
	<path class="st4" d="M1672.8,777.8c-0.1-0.1-0.2-0.3-0.2-0.5v-19.5c0-0.4,0.1-0.7,0.4-0.9c0.2-0.2,0.6-0.4,0.9-0.4h5.3
		c1.3,0,2.4,0.3,3.5,0.9s1.9,1.5,2.6,2.5s0.9,2.2,0.9,3.5s-0.3,2.4-0.9,3.5s-1.5,1.9-2.6,2.5s-2.2,0.9-3.5,0.9h-3v7
		c0,0.2-0.1,0.3-0.2,0.5s-0.3,0.2-0.4,0.2h-2.4C1673.1,778,1672.9,777.9,1672.8,777.8L1672.8,777.8z M1679.1,766.9
		c1,0,1.8-0.3,2.5-1s1-1.5,1-2.5s-0.3-1.8-1-2.4s-1.5-1-2.5-1h-2.8v6.9L1679.1,766.9L1679.1,766.9z"/>
	<path class="st4" d="M1689.9,777c-1.1-1-1.6-2.2-1.6-3.7c0-1.4,0.5-2.5,1.4-3.4s2.3-1.5,4.1-1.8c0.4,0,0.9-0.1,1.3-0.2
		c1.4-0.2,2.2-0.3,2.6-0.4c0.7-0.1,1.1-0.5,1.1-1.3s-0.3-1.3-0.9-1.8c-0.6-0.5-1.4-0.7-2.3-0.7c-1.6,0-2.8,0.6-3.5,1.8
		c-0.2,0.3-0.3,0.4-0.6,0.4c-0.2,0-0.3,0-0.4-0.1l-1.7-1.1c-0.2-0.1-0.3-0.3-0.3-0.5c0-0.1,0-0.2,0.1-0.3c0.6-1.1,1.4-2,2.6-2.6
		s2.4-0.9,3.9-0.9c1.3,0,2.5,0.2,3.5,0.8s1.8,1.2,2.3,2.1c0.6,0.9,0.8,2,0.8,3.2v10.9c0,0.2-0.1,0.3-0.2,0.5s-0.3,0.2-0.4,0.2h-2
		c-0.2,0-0.3,0-0.4-0.2c-0.1-0.1-0.2-0.3-0.2-0.5v-1.2c-1.4,1.5-3,2.2-4.9,2.2C1692.3,778.4,1691,777.9,1689.9,777L1689.9,777z
		 M1696.5,774.6c0.7-0.4,1.3-0.9,1.7-1.6c0.4-0.7,0.7-1.3,0.7-2v-0.6l-2.2,0.3c-1.2,0.1-2,0.2-2.4,0.3c-1.6,0.3-2.5,1-2.5,2.1
		c0,0.6,0.2,1.1,0.7,1.5c0.5,0.4,1.1,0.6,1.8,0.6S1695.8,775,1696.5,774.6L1696.5,774.6z"/>
	<path class="st4" d="M1706.1,777.8c-0.1-0.1-0.2-0.3-0.2-0.5v-2.2c0-0.2,0.1-0.3,0.2-0.5s0.3-0.2,0.4-0.2h2.3v-10.3h-2.6
		c-0.2,0-0.3-0.1-0.4-0.2s-0.2-0.3-0.2-0.5v-2.1c0-0.2,0.1-0.3,0.2-0.5s0.3-0.2,0.4-0.2h4.7c0.4,0,0.7,0.1,0.9,0.4s0.4,0.5,0.4,0.9
		v1.1l1.6-1.3c0.6-0.5,1.1-0.8,1.6-1c0.4-0.2,1-0.3,1.6-0.3h0.9c0.2,0,0.3,0.1,0.4,0.2s0.2,0.3,0.2,0.5v2.3c0,0.2-0.1,0.3-0.2,0.5
		s-0.3,0.2-0.4,0.2h-0.8c-0.5,0-1,0.1-1.3,0.3s-1,0.6-1.7,1.2l-1.7,1.3v7.6h3c0.2,0,0.3,0.1,0.4,0.2s0.2,0.3,0.2,0.5v2.2
		c0,0.2-0.1,0.3-0.2,0.5s-0.3,0.2-0.4,0.2h-8.8C1706.3,778,1706.2,778,1706.1,777.8L1706.1,777.8z"/>
	<path class="st4" d="M1724.9,776.6c-1-1-1.5-2.2-1.5-3.8v-8.6h-2.1c-0.2,0-0.3-0.1-0.4-0.2s-0.2-0.3-0.2-0.5v-2.1
		c0-0.2,0.1-0.3,0.2-0.5s0.3-0.2,0.4-0.2h2.1v-3.2c0-0.2,0.1-0.3,0.2-0.5s0.3-0.2,0.4-0.2h2.3c0.2,0,0.3,0.1,0.4,0.2
		s0.2,0.3,0.2,0.5v3.2h5.1c0.2,0,0.3,0.1,0.4,0.2s0.2,0.3,0.2,0.5v2.1c0,0.2-0.1,0.3-0.2,0.5s-0.3,0.2-0.4,0.2h-5.1v8.4
		c0,0.6,0.2,1.1,0.5,1.4c0.3,0.4,0.8,0.5,1.4,0.5l3.2,0c0.2,0,0.3,0.1,0.4,0.2s0.2,0.3,0.2,0.5v2.1c0,0.2-0.1,0.3-0.2,0.5
		s-0.3,0.2-0.4,0.2h-3.4C1727.1,778,1725.9,777.5,1724.9,776.6z"/>
	<path class="st4" d="M1739.9,783.5c-0.1-0.2-0.1-0.4-0.1-0.6l1.6-4.4l-5.9-16.7c0-0.1-0.1-0.2-0.1-0.3c0-0.2,0.1-0.4,0.2-0.5
		c0.1-0.1,0.3-0.2,0.5-0.2h2.1c0.2,0,0.4,0.1,0.6,0.2c0.2,0.1,0.3,0.3,0.3,0.5l4.1,12l4.1-12c0.1-0.2,0.2-0.4,0.3-0.5
		c0.2-0.1,0.3-0.2,0.6-0.2h1.9c0.2,0,0.4,0.1,0.5,0.2s0.2,0.3,0.2,0.5c0,0.1,0,0.2-0.1,0.3l-7.5,21.4c-0.1,0.2-0.2,0.4-0.4,0.5
		s-0.3,0.2-0.6,0.2h-2C1740.2,783.8,1740,783.7,1739.9,783.5L1739.9,783.5z"/>
	<path class="st4" d="M1765,777.3c-1.2-0.7-2.1-1.7-2.8-2.9s-1.1-2.5-1.1-4v-6.4c0-1.4,0.3-2.8,1.1-4s1.6-2.2,2.8-2.9
		s2.5-1.1,3.9-1.1c1.2,0,2.4,0.2,3.4,0.7s2,1.1,2.7,2c0.1,0.1,0.2,0.3,0.2,0.5s-0.1,0.4-0.2,0.6l-1.3,1.4c-0.2,0.2-0.3,0.2-0.5,0.2
		c-0.2,0-0.4-0.1-0.5-0.3c-1-1.1-2.2-1.6-3.7-1.6c-0.7,0-1.4,0.2-2.1,0.6s-1.1,0.9-1.5,1.6s-0.6,1.4-0.6,2.2v6.4
		c0,0.8,0.2,1.5,0.6,2.2s0.9,1.2,1.5,1.6s1.3,0.6,2.1,0.6c1.5,0,2.7-0.5,3.7-1.6c0.2-0.2,0.3-0.3,0.5-0.3s0.3,0.1,0.5,0.2l1.3,1.4
		c0.2,0.2,0.3,0.4,0.3,0.6c0,0.2-0.1,0.3-0.2,0.5c-0.8,0.9-1.7,1.5-2.7,2c-1.1,0.5-2.2,0.7-3.4,0.7
		C1767.5,778.4,1766.2,778,1765,777.3L1765,777.3z"/>
	<path class="st4" d="M1781.9,777.5c-1.1-0.6-2-1.5-2.6-2.6c-0.6-1.1-1-2.2-1-3.5v-3.9c0-1.3,0.3-2.4,1-3.5s1.5-1.9,2.6-2.6
		s2.3-1,3.6-1s2.5,0.3,3.6,1s2,1.5,2.6,2.6s1,2.2,1,3.5v3.9c0,1.3-0.3,2.4-1,3.5s-1.5,1.9-2.6,2.6s-2.3,1-3.6,1
		S1782.9,778.1,1781.9,777.5z M1788,773.9c0.7-0.7,1-1.5,1-2.5v-3.9c0-1-0.3-1.8-1-2.5s-1.5-1-2.5-1s-1.8,0.3-2.5,1s-1,1.5-1,2.5
		v3.9c0,1,0.3,1.8,1,2.5s1.5,1,2.5,1S1787.3,774.6,1788,773.9z"/>
	<path class="st4" d="M1796.9,777.8c-0.1-0.1-0.2-0.3-0.2-0.5v-15.9c0-0.2,0.1-0.3,0.2-0.5s0.3-0.2,0.4-0.2h2.3
		c0.2,0,0.3,0.1,0.4,0.2s0.2,0.3,0.2,0.5v1.4c0.6-0.8,1.2-1.4,2-1.8s1.6-0.7,2.5-0.7c1.1,0,2.2,0.3,3.1,0.8s1.6,1.3,2.2,2.2
		c0.5,1,0.8,2,0.8,3.2v10.7c0,0.2-0.1,0.3-0.2,0.5s-0.3,0.2-0.4,0.2h-2.3c-0.2,0-0.3-0.1-0.4-0.2s-0.2-0.3-0.2-0.5v-10.2
		c0-1.1-0.3-1.9-0.8-2.4c-0.5-0.6-1.3-0.9-2.3-0.9c-1.2,0-2.1,0.4-2.8,1.2c-0.7,0.8-1,1.8-1,3.2v9.2c0,0.2-0.1,0.3-0.2,0.5
		s-0.3,0.2-0.4,0.2h-2.3C1797.2,778,1797,777.9,1796.9,777.8L1796.9,777.8z"/>
	<path class="st4" d="M1817.9,776.6c-1-1-1.5-2.2-1.5-3.8v-8.6h-2.1c-0.2,0-0.3-0.1-0.4-0.2s-0.2-0.3-0.2-0.5v-2.1
		c0-0.2,0.1-0.3,0.2-0.5s0.3-0.2,0.4-0.2h2.1v-3.2c0-0.2,0.1-0.3,0.2-0.5s0.3-0.2,0.4-0.2h2.3c0.2,0,0.3,0.1,0.4,0.2
		s0.2,0.3,0.2,0.5v3.2h5.1c0.2,0,0.3,0.1,0.4,0.2s0.2,0.3,0.2,0.5v2.1c0,0.2-0.1,0.3-0.2,0.5s-0.3,0.2-0.4,0.2h-5.1v8.4
		c0,0.6,0.2,1.1,0.5,1.4c0.3,0.4,0.8,0.5,1.4,0.5l3.2,0c0.2,0,0.3,0.1,0.4,0.2s0.2,0.3,0.2,0.5v2.1c0,0.2-0.1,0.3-0.2,0.5
		s-0.3,0.2-0.4,0.2h-3.4C1820.2,778,1818.9,777.5,1817.9,776.6z"/>
	<path class="st4" d="M1829.9,777c-1.1-1-1.6-2.2-1.6-3.7c0-1.4,0.5-2.5,1.4-3.4s2.3-1.5,4.1-1.8c0.4,0,0.9-0.1,1.3-0.2
		c1.4-0.2,2.2-0.3,2.6-0.4c0.7-0.1,1.1-0.5,1.1-1.3s-0.3-1.3-0.9-1.8c-0.6-0.5-1.4-0.7-2.3-0.7c-1.6,0-2.8,0.6-3.5,1.8
		c-0.2,0.3-0.3,0.4-0.6,0.4c-0.2,0-0.3,0-0.4-0.1l-1.7-1.1c-0.2-0.1-0.3-0.3-0.3-0.5c0-0.1,0-0.2,0.1-0.3c0.6-1.1,1.4-2,2.6-2.6
		s2.4-0.9,3.9-0.9c1.3,0,2.5,0.2,3.5,0.8s1.8,1.2,2.3,2.1c0.6,0.9,0.8,2,0.8,3.2v10.9c0,0.2-0.1,0.3-0.2,0.5s-0.3,0.2-0.4,0.2h-2
		c-0.2,0-0.3,0-0.4-0.2c-0.1-0.1-0.2-0.3-0.2-0.5v-1.2c-1.4,1.5-3,2.2-4.9,2.2C1832.3,778.4,1830.9,777.9,1829.9,777L1829.9,777z
		 M1836.5,774.6c0.7-0.4,1.3-0.9,1.7-1.6c0.4-0.7,0.7-1.3,0.7-2v-0.6l-2.2,0.3c-1.2,0.1-2,0.2-2.4,0.3c-1.6,0.3-2.5,1-2.5,2.1
		c0,0.6,0.2,1.1,0.7,1.5c0.5,0.4,1.1,0.6,1.8,0.6S1835.8,775,1836.5,774.6L1836.5,774.6z"/>
	<path class="st4" d="M1849.6,777.4c-1.1-0.6-2-1.5-2.6-2.6c-0.6-1.1-1-2.3-1-3.6v-3.6c0-1.3,0.3-2.5,1-3.6s1.5-2,2.6-2.6
		s2.3-1,3.6-1c1,0,2,0.2,2.9,0.6s1.7,1,2.4,1.7c0.1,0.1,0.2,0.3,0.2,0.5c0,0.2-0.1,0.4-0.3,0.6l-1.3,1.3c-0.1,0.1-0.3,0.2-0.5,0.2
		s-0.3-0.1-0.5-0.3c-0.8-0.8-1.8-1.2-2.9-1.2c-1,0-1.8,0.3-2.5,1s-1,1.5-1,2.5v3.9c0,1,0.3,1.8,1,2.5s1.5,1,2.5,1
		c1.2,0,2.1-0.4,2.9-1.2c0.2-0.2,0.3-0.3,0.5-0.3s0.3,0.1,0.5,0.2l1.3,1.3c0.2,0.2,0.3,0.4,0.3,0.6c0,0.2-0.1,0.3-0.2,0.5
		c-0.7,0.7-1.4,1.3-2.4,1.7s-1.9,0.6-2.9,0.6C1851.9,778.4,1850.7,778.1,1849.6,777.4L1849.6,777.4z"/>
	<path class="st4" d="M1865.4,776.6c-1-1-1.5-2.2-1.5-3.8v-8.6h-2.1c-0.2,0-0.3-0.1-0.4-0.2s-0.2-0.3-0.2-0.5v-2.1
		c0-0.2,0.1-0.3,0.2-0.5s0.3-0.2,0.4-0.2h2.1v-3.2c0-0.2,0.1-0.3,0.2-0.5s0.3-0.2,0.4-0.2h2.3c0.2,0,0.3,0.1,0.4,0.2
		s0.2,0.3,0.2,0.5v3.2h5.1c0.2,0,0.3,0.1,0.4,0.2s0.2,0.3,0.2,0.5v2.1c0,0.2-0.1,0.3-0.2,0.5s-0.3,0.2-0.4,0.2h-5.1v8.4
		c0,0.6,0.2,1.1,0.5,1.4c0.3,0.4,0.8,0.5,1.4,0.5l3.2,0c0.2,0,0.3,0.1,0.4,0.2s0.2,0.3,0.2,0.5v2.1c0,0.2-0.1,0.3-0.2,0.5
		s-0.3,0.2-0.4,0.2h-3.4C1867.6,778,1866.4,777.5,1865.4,776.6z"/>
	<path class="st4" d="M1698.1,813.8c-1.1-0.3-2-0.8-2.9-1.5c-0.1-0.1-0.2-0.2-0.2-0.3c0-0.2,0-0.3,0-0.4l1.1-1.9
		c0.1-0.2,0.3-0.4,0.6-0.4c0.2,0,0.3,0,0.4,0.1c1.5,0.9,2.9,1.4,4.2,1.4c1.1,0,1.9-0.2,2.5-0.8c0.6-0.5,0.9-1.2,0.9-2
		c0-0.5-0.2-1-0.4-1.4s-0.7-0.7-1.2-1c-0.5-0.3-1.2-0.6-2.2-1l-0.9-0.4c-1.4-0.6-2.5-1.3-3.4-2.2c-0.9-0.9-1.4-2.2-1.4-4
		c0-1.2,0.3-2.3,0.8-3.2c0.6-0.9,1.3-1.7,2.3-2.2c1-0.5,2.1-0.8,3.4-0.8c1.1,0,2.1,0.2,3.2,0.5s2,0.8,2.8,1.5
		c0.1,0.1,0.2,0.2,0.2,0.3c0,0.2,0,0.3,0,0.4l-1,1.9c-0.1,0.2-0.3,0.4-0.6,0.4c-0.2,0-0.3,0-0.4-0.1c-0.8-0.5-1.5-0.9-2.2-1.1
		c-0.7-0.2-1.3-0.3-1.9-0.3c-0.9,0-1.6,0.2-2.1,0.7s-0.8,1.1-0.8,1.9s0.3,1.4,0.8,1.9c0.6,0.5,1.5,1,2.8,1.5
		c0.2,0.1,0.9,0.3,2.1,0.8c1.2,0.5,2.1,1.2,2.8,2.2s1.1,2,1.1,3.3s-0.3,2.3-0.9,3.3s-1.4,1.7-2.5,2.3c-1.1,0.5-2.3,0.8-3.7,0.8
		C1700.2,814.4,1699.1,814.2,1698.1,813.8L1698.1,813.8z"/>
	<path class="st4" d="M1715.3,813.5c-1.1-0.6-2-1.5-2.6-2.6c-0.6-1.1-1-2.2-1-3.5v-3.9c0-1.3,0.3-2.4,1-3.5s1.5-1.9,2.6-2.6
		s2.3-1,3.6-1s2.5,0.3,3.6,1s2,1.5,2.6,2.6s1,2.2,1,3.5v3.9c0,1.3-0.3,2.4-1,3.5s-1.5,1.9-2.6,2.6s-2.3,1-3.6,1
		S1716.3,814.1,1715.3,813.5z M1721.3,809.9c0.7-0.7,1-1.5,1-2.5v-3.9c0-1-0.3-1.8-1-2.5s-1.5-1-2.5-1s-1.8,0.3-2.5,1s-1,1.5-1,2.5
		v3.9c0,1,0.3,1.8,1,2.5s1.5,1,2.5,1S1720.7,810.6,1721.3,809.9z"/>
	<path class="st4" d="M1732.9,813.6c-0.9-0.5-1.6-1.3-2.2-2.2s-0.8-2-0.8-3.2v-10.7c0-0.2,0.1-0.3,0.2-0.5s0.3-0.2,0.4-0.2h2.3
		c0.2,0,0.3,0.1,0.4,0.2s0.2,0.3,0.2,0.5v10.2c0,1.1,0.3,1.9,0.8,2.4c0.5,0.6,1.3,0.9,2.3,0.9c1.2,0,2.1-0.4,2.8-1.2
		c0.7-0.8,1-1.8,1-3.2v-9.2c0-0.2,0.1-0.3,0.2-0.5s0.3-0.2,0.4-0.2h2.3c0.2,0,0.3,0.1,0.4,0.2s0.2,0.3,0.2,0.5v15.9
		c0,0.2-0.1,0.3-0.2,0.5s-0.3,0.2-0.4,0.2h-2.3c-0.2,0-0.3-0.1-0.4-0.2s-0.2-0.3-0.2-0.5V812c-0.6,0.8-1.2,1.4-2,1.8
		c-0.8,0.4-1.6,0.7-2.5,0.7C1734.8,814.4,1733.8,814.1,1732.9,813.6L1732.9,813.6z"/>
	<path class="st4" d="M1748.3,813.8c-0.1-0.1-0.2-0.3-0.2-0.5v-2.2c0-0.2,0.1-0.3,0.2-0.5s0.3-0.2,0.4-0.2h2.3v-10.3h-2.6
		c-0.2,0-0.3-0.1-0.4-0.2s-0.2-0.3-0.2-0.5v-2.1c0-0.2,0.1-0.3,0.2-0.5s0.3-0.2,0.4-0.2h4.7c0.4,0,0.7,0.1,0.9,0.4s0.4,0.5,0.4,0.9
		v1.1l1.6-1.3c0.6-0.5,1.1-0.8,1.6-1c0.4-0.2,1-0.3,1.6-0.3h0.9c0.2,0,0.3,0.1,0.4,0.2s0.2,0.3,0.2,0.5v2.3c0,0.2-0.1,0.3-0.2,0.5
		s-0.3,0.2-0.4,0.2h-0.8c-0.5,0-1,0.1-1.3,0.3s-1,0.6-1.7,1.2l-1.7,1.3v7.6h3c0.2,0,0.3,0.1,0.4,0.2s0.2,0.3,0.2,0.5v2.2
		c0,0.2-0.1,0.3-0.2,0.5s-0.3,0.2-0.4,0.2h-8.8C1748.6,814,1748.4,814,1748.3,813.8L1748.3,813.8z"/>
	<path class="st4" d="M1766.5,813.4c-1.1-0.6-2-1.5-2.6-2.6c-0.6-1.1-1-2.3-1-3.6v-3.6c0-1.3,0.3-2.5,1-3.6s1.5-2,2.6-2.6
		s2.3-1,3.6-1c1,0,2,0.2,2.9,0.6s1.7,1,2.4,1.7c0.1,0.1,0.2,0.3,0.2,0.5c0,0.2-0.1,0.4-0.3,0.6l-1.3,1.3c-0.1,0.1-0.3,0.2-0.5,0.2
		s-0.3-0.1-0.5-0.3c-0.8-0.8-1.8-1.2-2.9-1.2c-1,0-1.8,0.3-2.5,1s-1,1.5-1,2.5v3.9c0,1,0.3,1.8,1,2.5s1.5,1,2.5,1
		c1.2,0,2.1-0.4,2.9-1.2c0.2-0.2,0.3-0.3,0.5-0.3s0.3,0.1,0.5,0.2l1.3,1.3c0.2,0.2,0.3,0.4,0.3,0.6c0,0.2-0.1,0.3-0.2,0.5
		c-0.7,0.7-1.4,1.3-2.4,1.7s-1.9,0.6-2.9,0.6C1768.7,814.4,1767.5,814.1,1766.5,813.4L1766.5,813.4z"/>
	<path class="st4" d="M1781.8,813c-1.1-0.6-2-1.5-2.6-2.6c-0.6-1.1-1-2.3-1-3.6v-3.2c0-1.3,0.3-2.5,1-3.6s1.5-2,2.6-2.6s2.3-1,3.6-1
		s2.5,0.3,3.6,1c1.1,0.6,2,1.5,2.6,2.6s1,2.3,1,3.6v2c0,0.4-0.1,0.7-0.4,0.9c-0.2,0.2-0.6,0.4-0.9,0.4h-9.4v0.2c0,1,0.3,1.8,1,2.5
		s1.5,1,2.5,1h4.8c0.2,0,0.3,0.1,0.4,0.2s0.2,0.3,0.2,0.5v2.2c0,0.2-0.1,0.3-0.2,0.5s-0.3,0.2-0.4,0.2h-4.8
		C1784.1,814,1782.9,813.7,1781.8,813L1781.8,813z M1788.9,803.7v-0.3c0-1-0.3-1.8-1-2.5c-0.7-0.7-1.5-1-2.5-1s-1.8,0.3-2.5,1
		s-1,1.5-1,2.5v0.3H1788.9L1788.9,803.7z"/>
	<path class="st4" d="M1649.1,853.9c-1.3-1.6-2.4-3.5-3.3-5.8s-1.3-4.8-1.3-7.6s0.4-5.4,1.3-7.6c0.9-2.3,2-4.2,3.3-5.8
		c0.2-0.2,0.4-0.3,0.6-0.3c0.2,0,0.4,0.1,0.6,0.2l1,0.8c0.2,0.1,0.2,0.3,0.2,0.5c0,0.1,0,0.2-0.1,0.3c-1,1.5-1.8,3.2-2.5,5.3
		c-0.7,2-1,4.2-1,6.7s0.3,4.7,1.1,6.8c0.7,2,1.6,3.8,2.6,5.3c0,0,0,0.1,0,0.2c0,0.2-0.1,0.3-0.3,0.5l-1,0.8
		c-0.2,0.2-0.4,0.2-0.6,0.2C1649.5,854.2,1649.3,854.1,1649.1,853.9L1649.1,853.9z"/>
	<path class="st4" d="M1657.7,849c-1.1-0.6-2-1.5-2.6-2.6c-0.6-1.1-1-2.3-1-3.6v-3.2c0-1.3,0.3-2.5,1-3.6s1.5-2,2.6-2.6s2.3-1,3.6-1
		s2.5,0.3,3.6,1c1.1,0.6,2,1.5,2.6,2.6s1,2.3,1,3.6v2c0,0.4-0.1,0.7-0.4,0.9c-0.2,0.2-0.6,0.4-0.9,0.4h-9.4v0.2c0,1,0.3,1.8,1,2.5
		s1.5,1,2.5,1h4.8c0.2,0,0.3,0.1,0.4,0.2s0.2,0.3,0.2,0.5v2.2c0,0.2-0.1,0.3-0.2,0.5s-0.3,0.2-0.4,0.2h-4.8
		C1660,850,1658.8,849.7,1657.7,849L1657.7,849z M1664.8,839.7v-0.3c0-1-0.3-1.8-1-2.5c-0.7-0.7-1.5-1-2.5-1s-1.8,0.3-2.5,1
		s-1,1.5-1,2.5v0.3H1664.8L1664.8,839.7z"/>
	<path class="st4" d="M1671.9,850c-0.5-0.5-0.7-1.1-0.7-1.8s0.2-1.3,0.7-1.8c0.5-0.5,1.1-0.7,1.8-0.7s1.3,0.2,1.7,0.7
		s0.7,1.1,0.7,1.8s-0.2,1.3-0.7,1.8s-1.1,0.7-1.7,0.7S1672.4,850.5,1671.9,850z"/>
	<path class="st4" d="M1681.3,855.2c-1.2-0.7-1.8-1.8-1.8-3.3c0-1.1,0.4-2,1.1-2.8c-0.7-0.6-1.1-1.4-1.1-2.4c0-0.7,0.2-1.3,0.5-1.9
		s0.8-1.1,1.4-1.6c-0.6-0.5-1.1-1.2-1.5-2c-0.3-0.8-0.5-1.6-0.5-2.5c0-1.2,0.3-2.3,0.9-3.2s1.4-1.7,2.4-2.2c1-0.5,2.1-0.8,3.3-0.8
		c0.9,0,1.7,0.1,2.5,0.4h5.9c0.2,0,0.3,0.1,0.4,0.2s0.2,0.3,0.2,0.5v2c0,0.2-0.1,0.3-0.2,0.5s-0.3,0.2-0.4,0.2h-2.3
		c0.3,0.8,0.5,1.6,0.5,2.5c0,1.2-0.3,2.3-0.9,3.2c-0.6,0.9-1.4,1.7-2.4,2.2c-1,0.5-2.1,0.8-3.3,0.8c-0.9,0-1.8-0.2-2.7-0.5
		c-0.4,0.4-0.6,0.9-0.6,1.3c0,0.4,0.2,0.7,0.4,0.8c0.3,0.2,0.7,0.2,1.3,0.3c0.8,0,1.6,0.1,2.4,0.1l1.3,0c1.7,0,3,0.3,4.1,0.9
		c1.1,0.6,1.6,1.6,1.6,3.2c0,1.8-0.7,3.2-2.2,4c-1.4,0.9-3.3,1.3-5.7,1.3C1684.1,856.2,1682.5,855.9,1681.3,855.2L1681.3,855.2z
		 M1690.3,851.3c0-0.5-0.2-0.9-0.6-1s-0.9-0.2-1.6-0.2h-2.9c-0.7,0-1.3,0-1.8-0.1c-0.2,0.4-0.3,0.8-0.3,1.3c0,0.8,0.3,1.3,0.9,1.5
		c0.6,0.3,1.4,0.4,2.5,0.4C1689,853.1,1690.3,852.5,1690.3,851.3L1690.3,851.3z M1688.3,840.7c0.5-0.5,0.8-1.3,0.8-2.2
		s-0.3-1.6-0.8-2.2s-1.3-0.8-2.2-0.8s-1.7,0.3-2.2,0.8c-0.6,0.6-0.8,1.3-0.8,2.2s0.3,1.6,0.8,2.2c0.6,0.5,1.3,0.8,2.2,0.8
		S1687.8,841.3,1688.3,840.7z"/>
	<path class="st4" d="M1698,850c-0.5-0.5-0.7-1.1-0.7-1.8s0.2-1.3,0.7-1.8c0.5-0.5,1.1-0.7,1.8-0.7s1.3,0.2,1.7,0.7s0.7,1.1,0.7,1.8
		s-0.2,1.3-0.7,1.8s-1.1,0.7-1.7,0.7S1698.5,850.5,1698,850z"/>
	<path class="st4" d="M1717,849.3c-1.2-0.7-2.1-1.7-2.8-2.9s-1.1-2.5-1.1-4v-6.4c0-1.4,0.3-2.8,1.1-4s1.6-2.2,2.8-2.9
		s2.5-1.1,3.9-1.1c1.2,0,2.4,0.2,3.4,0.7s2,1.1,2.7,2c0.1,0.1,0.2,0.3,0.2,0.5s-0.1,0.4-0.2,0.6l-1.3,1.4c-0.2,0.2-0.3,0.2-0.5,0.2
		c-0.2,0-0.4-0.1-0.5-0.3c-1-1.1-2.2-1.6-3.7-1.6c-0.7,0-1.4,0.2-2.1,0.6s-1.1,0.9-1.5,1.6s-0.6,1.4-0.6,2.2v6.4
		c0,0.8,0.2,1.5,0.6,2.2s0.9,1.2,1.5,1.6s1.3,0.6,2.1,0.6c1.5,0,2.7-0.5,3.7-1.6c0.2-0.2,0.3-0.3,0.5-0.3s0.3,0.1,0.5,0.2l1.3,1.4
		c0.2,0.2,0.3,0.4,0.3,0.6c0,0.2-0.1,0.3-0.2,0.5c-0.8,0.9-1.7,1.5-2.7,2c-1.1,0.5-2.2,0.7-3.4,0.7
		C1719.5,850.4,1718.2,850,1717,849.3L1717,849.3z"/>
	<path class="st4" d="M1731.3,849.8c-0.1-0.1-0.2-0.3-0.2-0.5v-19.5c0-0.4,0.1-0.7,0.4-0.9c0.2-0.2,0.6-0.4,0.9-0.4h5.6
		c1.2,0,2.3,0.3,3.4,0.9s1.8,1.4,2.4,2.4c0.6,1,0.9,2.1,0.9,3.3c0,1.4-0.4,2.7-1.3,3.8s-2,1.9-3.4,2.3l5,7.7
		c0.1,0.1,0.1,0.3,0.1,0.4c0,0.2-0.1,0.3-0.2,0.5s-0.3,0.2-0.5,0.2h-2.5c-0.3,0-0.6-0.1-0.8-0.4l-5-8h-1.5v7.8
		c0,0.2-0.1,0.3-0.2,0.5s-0.3,0.2-0.4,0.2h-2.4C1731.6,850,1731.4,849.9,1731.3,849.8L1731.3,849.8z M1737.8,838.1
		c0.9,0,1.7-0.3,2.3-0.8c0.6-0.6,0.9-1.3,0.9-2.2s-0.3-1.6-0.9-2.2c-0.6-0.6-1.3-0.9-2.3-0.9h-3.1v6.1L1737.8,838.1L1737.8,838.1z"
		/>
	<path class="st4" d="M1758.7,850c-0.2-0.1-0.3-0.3-0.3-0.5l-4-12.1l-0.8-2.7l-0.3,2.8l-1.3,11.8c0,0.2-0.1,0.4-0.3,0.5
		c-0.2,0.1-0.3,0.2-0.5,0.2h-2.2c-0.2,0-0.4-0.1-0.5-0.2s-0.2-0.3-0.2-0.5l2.5-19.9c0-0.3,0.1-0.5,0.3-0.7c0.2-0.2,0.4-0.2,0.7-0.2
		h2.7c0.2,0,0.4,0.1,0.6,0.2s0.3,0.3,0.3,0.5l4.5,13.8l0.6,2.1l0.6-2l4.5-13.9c0.1-0.2,0.2-0.4,0.3-0.5c0.2-0.1,0.4-0.2,0.6-0.2h2.5
		c0.3,0,0.5,0.1,0.7,0.2c0.2,0.2,0.3,0.4,0.3,0.7l2.5,19.9c0,0.2,0,0.4-0.2,0.5c-0.1,0.1-0.3,0.2-0.5,0.2h-2.3
		c-0.2,0-0.4-0.1-0.6-0.2c-0.2-0.1-0.2-0.3-0.3-0.5l-1.3-12l-0.3-2.6l-0.8,2.8l-3.9,12c-0.1,0.2-0.2,0.4-0.3,0.5s-0.4,0.2-0.6,0.2
		h-2.3C1759,850.2,1758.8,850.2,1758.7,850L1758.7,850z"/>
	<path class="st4" d="M1775.9,853.3c-0.1-0.2-0.2-0.3-0.1-0.5l1.7-5.8c0-0.2,0.1-0.3,0.3-0.4c0.1-0.1,0.3-0.2,0.5-0.2h3
		c0.2,0,0.4,0.1,0.5,0.2s0.2,0.3,0.2,0.4c0,0.1,0,0.3-0.1,0.4l-3.5,6.2h-1.9C1776.2,853.5,1776,853.4,1775.9,853.3L1775.9,853.3z"/>
	<path class="st4" d="M1793.4,849.6c-0.2-0.2-0.4-0.5-0.4-0.9v-18.9c0-0.4,0.1-0.7,0.4-0.9c0.2-0.2,0.6-0.4,0.9-0.4h10.2
		c0.2,0,0.3,0.1,0.4,0.2s0.2,0.3,0.2,0.5v2.2c0,0.2-0.1,0.3-0.2,0.5s-0.3,0.2-0.4,0.2h-7.9v5.1h5.8c0.2,0,0.3,0.1,0.4,0.2
		s0.2,0.3,0.2,0.5v2.1c0,0.2-0.1,0.3-0.2,0.5s-0.3,0.2-0.4,0.2h-5.8v5.9h7.9c0.2,0,0.3,0.1,0.4,0.2s0.2,0.3,0.2,0.5v2.2
		c0,0.2-0.1,0.3-0.2,0.5s-0.3,0.2-0.4,0.2h-10.2C1793.9,850,1793.6,849.9,1793.4,849.6L1793.4,849.6z"/>
	<path class="st4" d="M1809.4,849.8c-0.1-0.1-0.2-0.3-0.2-0.5v-19.5c0-0.4,0.1-0.7,0.4-0.9c0.2-0.2,0.6-0.4,0.9-0.4h5.6
		c1.2,0,2.3,0.3,3.4,0.9s1.8,1.4,2.4,2.4c0.6,1,0.9,2.1,0.9,3.3c0,1.4-0.4,2.7-1.3,3.8s-2,1.9-3.4,2.3l5,7.7
		c0.1,0.1,0.1,0.3,0.1,0.4c0,0.2-0.1,0.3-0.2,0.5s-0.3,0.2-0.5,0.2h-2.5c-0.3,0-0.6-0.1-0.8-0.4l-5-8h-1.5v7.8
		c0,0.2-0.1,0.3-0.2,0.5s-0.3,0.2-0.4,0.2h-2.4C1809.7,850,1809.6,849.9,1809.4,849.8L1809.4,849.8z M1816,838.1
		c0.9,0,1.7-0.3,2.3-0.8c0.6-0.6,0.9-1.3,0.9-2.2s-0.3-1.6-0.9-2.2c-0.6-0.6-1.3-0.9-2.3-0.9h-3.1v6.1L1816,838.1L1816,838.1z"/>
	<path class="st4" d="M1827.2,849.8c-0.1-0.1-0.2-0.3-0.2-0.5v-19.5c0-0.4,0.1-0.7,0.4-0.9c0.2-0.2,0.6-0.4,0.9-0.4h5.3
		c1.3,0,2.4,0.3,3.5,0.9s1.9,1.5,2.6,2.5s0.9,2.2,0.9,3.5s-0.3,2.4-0.9,3.5s-1.5,1.9-2.6,2.5s-2.2,0.9-3.5,0.9h-3v7
		c0,0.2-0.1,0.3-0.2,0.5s-0.3,0.2-0.4,0.2h-2.4C1827.5,850,1827.4,849.9,1827.2,849.8L1827.2,849.8z M1833.5,838.9
		c1,0,1.8-0.3,2.5-1s1-1.5,1-2.5s-0.3-1.8-1-2.4s-1.5-1-2.5-1h-2.8v6.9L1833.5,838.9L1833.5,838.9z"/>
	<path class="st4" d="M1844.8,854l-1-0.8c-0.3-0.3-0.4-0.5-0.3-0.6c1-1.5,1.9-3.3,2.6-5.3s1.1-4.3,1.1-6.8s-0.3-4.6-1-6.7
		c-0.7-2-1.5-3.8-2.5-5.3c-0.1-0.1-0.1-0.2-0.1-0.3c0-0.2,0.1-0.4,0.2-0.5l1-0.8c0.2-0.2,0.4-0.2,0.6-0.2c0.3,0,0.5,0.1,0.6,0.3
		c1.3,1.6,2.4,3.5,3.3,5.8c0.9,2.3,1.3,4.8,1.3,7.6s-0.4,5.4-1.3,7.6s-2,4.2-3.3,5.8c-0.2,0.2-0.4,0.3-0.6,0.3
		C1845.1,854.2,1844.9,854.1,1844.8,854L1844.8,854z"/>
</g>
<g class="st5">
	<path class="st4" d="M606.7,870.9c-0.1-0.1-0.2-0.3-0.2-0.5c0-0.1,0-0.2,0-0.2l6.5-20c0.1-0.2,0.2-0.4,0.3-0.5
		c0.2-0.1,0.4-0.2,0.6-0.2h2.3c0.2,0,0.4,0.1,0.6,0.2s0.3,0.3,0.3,0.5l6.5,20c0,0.1,0,0.1,0,0.2c0,0.2-0.1,0.4-0.2,0.5
		c-0.1,0.1-0.3,0.2-0.5,0.2h-2.2c-0.2,0-0.4-0.1-0.6-0.2c-0.2-0.1-0.3-0.3-0.3-0.5l-1.4-4.3h-7l-1.4,4.3c-0.1,0.2-0.2,0.4-0.3,0.5
		c-0.2,0.1-0.4,0.2-0.6,0.2h-2.1C607,871.1,606.8,871,606.7,870.9z M617.6,862.7l-2.5-8l-2.5,8H617.6z"/>
</g>
<g class="st5">
	<path class="st4" d="M627.9,871c-0.4,0-0.8-0.2-1.1-0.5c-0.3-0.3-0.5-0.7-0.5-1.2c0-0.3,0.1-0.6,0.2-0.8l7.5-11.2h-6.8
		c-0.2,0-0.3-0.1-0.5-0.2s-0.2-0.3-0.2-0.5v-2.2c0-0.2,0.1-0.3,0.2-0.5s0.3-0.2,0.5-0.2h10.1c0.5,0,0.8,0.2,1.2,0.5
		c0.3,0.3,0.5,0.7,0.5,1.2c0,0.3-0.1,0.6-0.2,0.8l-7.6,11.2h7.3c0.2,0,0.3,0.1,0.5,0.2c0.1,0.1,0.2,0.3,0.2,0.5l0,2.1
		c0,0.2-0.1,0.4-0.2,0.5c-0.1,0.1-0.3,0.2-0.4,0.2L627.9,871z"/>
</g>
<g class="st5">
	<path class="st4" d="M645.4,870.7c-0.9-0.5-1.6-1.3-2.1-2.2s-0.8-2-0.8-3.2v-10.6c0-0.2,0.1-0.3,0.2-0.5c0.1-0.1,0.3-0.2,0.4-0.2
		h2.3c0.2,0,0.3,0.1,0.4,0.2s0.2,0.3,0.2,0.5v10.2c0,1.1,0.3,1.9,0.8,2.4s1.3,0.9,2.3,0.9c1.2,0,2.1-0.4,2.8-1.2s1-1.8,1-3.2v-9.2
		c0-0.2,0.1-0.3,0.2-0.5s0.3-0.2,0.5-0.2h2.3c0.2,0,0.3,0.1,0.5,0.2c0.1,0.1,0.2,0.3,0.2,0.5v15.9c0,0.2-0.1,0.3-0.2,0.5
		c-0.1,0.1-0.3,0.2-0.5,0.2h-2.3c-0.2,0-0.3-0.1-0.5-0.2s-0.2-0.3-0.2-0.5V869c-0.6,0.8-1.2,1.4-2,1.8c-0.8,0.4-1.6,0.6-2.5,0.6
		C647.3,871.5,646.3,871.2,645.4,870.7z"/>
</g>
<g class="st5">
	<path class="st4" d="M660.8,870.9c-0.1-0.1-0.2-0.3-0.2-0.5v-2.2c0-0.2,0.1-0.3,0.2-0.5c0.1-0.1,0.3-0.2,0.5-0.2h2.3v-10.3H661
		c-0.2,0-0.3-0.1-0.5-0.2c-0.1-0.1-0.2-0.3-0.2-0.4v-2.1c0-0.2,0.1-0.3,0.2-0.5s0.3-0.2,0.5-0.2h4.6c0.4,0,0.7,0.1,0.9,0.4
		c0.2,0.3,0.4,0.6,0.4,0.9v1.1l1.6-1.3c0.6-0.5,1.1-0.8,1.6-1c0.4-0.2,1-0.3,1.6-0.3h0.9c0.2,0,0.3,0.1,0.4,0.2
		c0.1,0.1,0.2,0.3,0.2,0.5v2.3c0,0.2-0.1,0.3-0.2,0.5c-0.1,0.1-0.3,0.2-0.4,0.2h-0.8c-0.5,0-1,0.1-1.3,0.3c-0.4,0.2-1,0.6-1.7,1.2
		l-1.6,1.3v7.6h3c0.2,0,0.3,0.1,0.5,0.2s0.2,0.3,0.2,0.5v2.2c0,0.2-0.1,0.3-0.2,0.5s-0.3,0.2-0.5,0.2h-8.8
		C661.1,871.1,661,871,660.8,870.9z"/>
</g>
<g class="st5">
	<path class="st4" d="M679,870.1c-1.1-0.6-2-1.5-2.6-2.6c-0.6-1.1-1-2.3-1-3.6v-3.2c0-1.3,0.3-2.5,1-3.6c0.6-1.1,1.5-2,2.6-2.6
		c1.1-0.6,2.3-1,3.6-1s2.5,0.3,3.6,1c1.1,0.6,2,1.5,2.6,2.6c0.6,1.1,1,2.3,1,3.6v2c0,0.4-0.1,0.7-0.4,0.9c-0.3,0.3-0.6,0.4-0.9,0.4
		H679v0.2c0,1,0.3,1.8,1,2.5c0.7,0.7,1.5,1,2.5,1h4.8c0.2,0,0.3,0.1,0.4,0.2c0.1,0.1,0.2,0.3,0.2,0.5v2.2c0,0.2-0.1,0.3-0.2,0.5
		c-0.1,0.1-0.3,0.2-0.4,0.2h-4.8C681.3,871.1,680.1,870.8,679,870.1z M686.1,860.7v-0.3c0-1-0.3-1.8-1-2.5c-0.7-0.7-1.5-1-2.5-1
		c-1,0-1.8,0.3-2.5,1s-1,1.5-1,2.5v0.3H686.1z"/>
	<path class="st4" d="M699.9,870.9c-0.1-0.1-0.2-0.3-0.2-0.5c0-0.1,0-0.2,0-0.2l6.5-20c0.1-0.2,0.2-0.4,0.3-0.5
		c0.2-0.1,0.4-0.2,0.6-0.2h2.3c0.2,0,0.4,0.1,0.6,0.2s0.3,0.3,0.3,0.5l6.5,20c0,0.1,0,0.1,0,0.2c0,0.2-0.1,0.4-0.2,0.5
		c-0.1,0.1-0.3,0.2-0.5,0.2h-2.2c-0.2,0-0.4-0.1-0.6-0.2c-0.2-0.1-0.3-0.3-0.3-0.5l-1.4-4.3h-7l-1.4,4.3c-0.1,0.2-0.2,0.4-0.3,0.5
		c-0.2,0.1-0.4,0.2-0.6,0.2h-2.1C700.2,871.1,700,871,699.9,870.9z M710.8,862.7l-2.5-8l-2.5,8H710.8z"/>
	<path class="st4" d="M720.4,876.7c-0.1-0.1-0.2-0.3-0.2-0.5v-21.7c0-0.2,0.1-0.3,0.2-0.5s0.3-0.2,0.5-0.2h1.9
		c0.2,0,0.3,0.1,0.5,0.2s0.2,0.3,0.2,0.5v1.3c0.5-0.8,1.2-1.4,1.9-1.8c0.8-0.4,1.6-0.6,2.5-0.6c1.2,0,2.3,0.3,3.3,0.9
		c1,0.6,1.8,1.5,2.5,2.5c0.6,1.1,0.9,2.2,0.9,3.4v4.2c0,1.2-0.3,2.4-0.9,3.4c-0.6,1.1-1.4,1.9-2.4,2.5c-1,0.6-2.1,0.9-3.4,0.9
		c-0.7,0-1.5-0.2-2.1-0.5c-0.7-0.3-1.3-0.8-1.9-1.3v6.6c0,0.2-0.1,0.3-0.2,0.5c-0.1,0.1-0.3,0.2-0.4,0.2h-2.3
		C720.7,876.9,720.5,876.8,720.4,876.7z M729.9,867c0.7-0.7,1-1.5,1-2.5v-4c0-1-0.3-1.8-1-2.5c-0.7-0.7-1.5-1-2.5-1
		c-1,0-1.8,0.3-2.5,1c-0.7,0.7-1,1.5-1,2.5v4c0,1,0.3,1.8,1,2.5c0.7,0.7,1.5,1,2.5,1C728.4,868,729.2,867.7,729.9,867z"/>
	<path class="st4" d="M738.8,876.7c-0.1-0.1-0.2-0.3-0.2-0.5v-21.7c0-0.2,0.1-0.3,0.2-0.5s0.3-0.2,0.5-0.2h1.9
		c0.2,0,0.3,0.1,0.5,0.2s0.2,0.3,0.2,0.5v1.3c0.5-0.8,1.2-1.4,1.9-1.8c0.8-0.4,1.6-0.6,2.5-0.6c1.2,0,2.3,0.3,3.3,0.9
		c1,0.6,1.8,1.5,2.5,2.5c0.6,1.1,0.9,2.2,0.9,3.4v4.2c0,1.2-0.3,2.4-0.9,3.4c-0.6,1.1-1.4,1.9-2.4,2.5c-1,0.6-2.1,0.9-3.4,0.9
		c-0.7,0-1.5-0.2-2.1-0.5c-0.7-0.3-1.3-0.8-1.9-1.3v6.6c0,0.2-0.1,0.3-0.2,0.5c-0.1,0.1-0.3,0.2-0.4,0.2h-2.3
		C739.1,876.9,739,876.8,738.8,876.7z M748.3,867c0.7-0.7,1-1.5,1-2.5v-4c0-1-0.3-1.8-1-2.5c-0.7-0.7-1.5-1-2.5-1
		c-1,0-1.8,0.3-2.5,1c-0.7,0.7-1,1.5-1,2.5v4c0,1,0.3,1.8,1,2.5c0.7,0.7,1.5,1,2.5,1C746.8,868,747.6,867.7,748.3,867z"/>
</g>
<g class="st5">
	<path class="st4" d="M766.8,870.9c-1-0.3-2-0.8-2.9-1.5c-0.1-0.1-0.2-0.2-0.2-0.3c0-0.2,0-0.3,0-0.4l1-1.9c0.1-0.2,0.3-0.4,0.6-0.4
		c0.2,0,0.3,0,0.4,0.1c1.5,0.9,2.9,1.4,4.2,1.4c1.1,0,1.9-0.3,2.5-0.8s0.9-1.2,0.9-2c0-0.5-0.1-1-0.4-1.4c-0.3-0.4-0.7-0.7-1.2-0.9
		c-0.5-0.3-1.2-0.6-2.2-1l-0.9-0.4c-1.4-0.6-2.5-1.3-3.4-2.2s-1.4-2.2-1.4-4c0-1.2,0.3-2.3,0.8-3.2c0.5-0.9,1.3-1.7,2.3-2.2
		c1-0.5,2.1-0.8,3.4-0.8c1.1,0,2.1,0.2,3.2,0.5c1,0.4,2,0.8,2.8,1.5c0.1,0.1,0.2,0.2,0.2,0.3c0,0.2,0,0.3,0,0.4l-1,1.9
		c-0.1,0.2-0.3,0.4-0.6,0.4c-0.2,0-0.3,0-0.4-0.1c-0.8-0.5-1.5-0.9-2.2-1.1s-1.3-0.3-1.9-0.3c-0.9,0-1.6,0.2-2.1,0.7
		s-0.8,1.1-0.8,1.9c0,0.8,0.3,1.4,0.9,1.9s1.5,1,2.7,1.5c0.2,0.1,0.9,0.3,2.1,0.8c1.2,0.5,2.1,1.2,2.8,2.1c0.7,0.9,1,2.1,1,3.3
		c0,1.2-0.3,2.3-0.9,3.3s-1.4,1.7-2.5,2.3c-1.1,0.5-2.3,0.8-3.7,0.8C769,871.4,767.9,871.3,766.8,870.9z"/>
</g>
<g class="st5">
	<path class="st4" d="M784,870.1c-1.1-0.6-2-1.5-2.6-2.6c-0.6-1.1-1-2.3-1-3.6v-3.2c0-1.3,0.3-2.5,1-3.6c0.6-1.1,1.5-2,2.6-2.6
		c1.1-0.6,2.3-1,3.6-1s2.5,0.3,3.6,1c1.1,0.6,2,1.5,2.6,2.6c0.6,1.1,1,2.3,1,3.6v2c0,0.4-0.1,0.7-0.4,0.9c-0.3,0.3-0.6,0.4-0.9,0.4
		H784v0.2c0,1,0.3,1.8,1,2.5c0.7,0.7,1.5,1,2.5,1h4.8c0.2,0,0.3,0.1,0.4,0.2c0.1,0.1,0.2,0.3,0.2,0.5v2.2c0,0.2-0.1,0.3-0.2,0.5
		c-0.1,0.1-0.3,0.2-0.4,0.2h-4.8C786.3,871.1,785.1,870.8,784,870.1z M791.1,860.7v-0.3c0-1-0.3-1.8-1-2.5c-0.7-0.7-1.5-1-2.5-1
		c-1,0-1.8,0.3-2.5,1s-1,1.5-1,2.5v0.3H791.1z"/>
</g>
<g class="st5">
	<path class="st4" d="M797.9,870.9c-0.1-0.1-0.2-0.3-0.2-0.5v-2.2c0-0.2,0.1-0.3,0.2-0.5c0.1-0.1,0.3-0.2,0.5-0.2h2.3v-10.3h-2.6
		c-0.2,0-0.3-0.1-0.5-0.2c-0.1-0.1-0.2-0.3-0.2-0.4v-2.1c0-0.2,0.1-0.3,0.2-0.5s0.3-0.2,0.5-0.2h4.6c0.4,0,0.7,0.1,0.9,0.4
		c0.2,0.3,0.4,0.6,0.4,0.9v1.1l1.6-1.3c0.6-0.5,1.1-0.8,1.6-1c0.4-0.2,1-0.3,1.6-0.3h0.9c0.2,0,0.3,0.1,0.4,0.2
		c0.1,0.1,0.2,0.3,0.2,0.5v2.3c0,0.2-0.1,0.3-0.2,0.5c-0.1,0.1-0.3,0.2-0.4,0.2h-0.8c-0.5,0-1,0.1-1.3,0.3c-0.4,0.2-1,0.6-1.7,1.2
		l-1.6,1.3v7.6h3c0.2,0,0.3,0.1,0.5,0.2s0.2,0.3,0.2,0.5v2.2c0,0.2-0.1,0.3-0.2,0.5s-0.3,0.2-0.5,0.2h-8.8
		C798.2,871.1,798.1,871,797.9,870.9z"/>
</g>
<g class="st5">
	<path class="st4" d="M819.4,871.3c-0.5,0-0.8-0.2-0.9-0.6l-5.5-15.8c0-0.1-0.1-0.2-0.1-0.3c0-0.2,0.1-0.4,0.2-0.5
		c0.1-0.1,0.3-0.2,0.5-0.2h2.1c0.2,0,0.4,0.1,0.6,0.2s0.3,0.3,0.3,0.5l4,12.1l4-12.1c0.1-0.2,0.2-0.4,0.3-0.5s0.4-0.2,0.6-0.2h1.9
		c0.2,0,0.4,0.1,0.5,0.2c0.1,0.1,0.2,0.3,0.2,0.5c0,0.1,0,0.2-0.1,0.3l-5.5,15.8c-0.1,0.2-0.2,0.4-0.4,0.5s-0.4,0.2-0.6,0.2
		L819.4,871.3z"/>
</g>
<g class="st5">
	<path class="st4" d="M834.5,870.6c-0.3-0.3-0.4-0.6-0.4-1.1v-12.3h-2.4c-0.2,0-0.3-0.1-0.5-0.2s-0.2-0.3-0.2-0.5v-2.2
		c0-0.2,0.1-0.3,0.2-0.5s0.3-0.2,0.5-0.2h4.5c0.4,0,0.8,0.1,1.1,0.4s0.4,0.6,0.4,1.1v12.3h2.4c0.2,0,0.3,0.1,0.5,0.2
		c0.1,0.1,0.2,0.3,0.2,0.5v2.2c0,0.2-0.1,0.3-0.2,0.5c-0.1,0.1-0.3,0.2-0.5,0.2h-4.5C835.1,871.1,834.8,870.9,834.5,870.6z
		 M834.4,851.7c-0.1-0.1-0.2-0.3-0.2-0.5V848c0-0.2,0.1-0.3,0.2-0.5c0.1-0.1,0.3-0.2,0.5-0.2h2c0.2,0,0.3,0.1,0.4,0.2
		c0.1,0.1,0.2,0.3,0.2,0.5v3.3c0,0.2-0.1,0.3-0.2,0.5c-0.1,0.1-0.3,0.2-0.4,0.2h-2C834.6,851.9,834.5,851.8,834.4,851.7z"/>
</g>
<g class="st5">
	<path class="st4" d="M846.6,870.5c-1.1-0.6-2-1.5-2.6-2.6s-1-2.3-1-3.6v-3.6c0-1.3,0.3-2.5,1-3.6s1.5-2,2.6-2.6
		c1.1-0.6,2.3-1,3.6-1c1,0,2,0.2,2.9,0.6s1.7,1,2.4,1.7c0.1,0.1,0.2,0.3,0.2,0.5c0,0.2-0.1,0.4-0.3,0.6l-1.3,1.3
		c-0.1,0.1-0.3,0.2-0.5,0.2s-0.4-0.1-0.5-0.3c-0.8-0.8-1.8-1.2-2.9-1.2c-1,0-1.8,0.3-2.5,1c-0.7,0.7-1,1.5-1,2.5v3.9
		c0,1,0.3,1.8,1,2.5c0.7,0.7,1.5,1,2.5,1c1.2,0,2.1-0.4,2.9-1.2c0.2-0.2,0.3-0.3,0.5-0.3s0.3,0.1,0.5,0.2l1.3,1.3
		c0.2,0.2,0.3,0.4,0.3,0.6c0,0.2-0.1,0.3-0.2,0.5c-0.7,0.7-1.5,1.3-2.4,1.7c-0.9,0.4-1.9,0.6-2.9,0.6
		C848.9,871.5,847.7,871.2,846.6,870.5z"/>
</g>
<g class="st5">
	<path class="st4" d="M862,870.1c-1.1-0.6-2-1.5-2.6-2.6c-0.6-1.1-1-2.3-1-3.6v-3.2c0-1.3,0.3-2.5,1-3.6s1.5-2,2.6-2.6
		c1.1-0.6,2.3-1,3.6-1c1.3,0,2.5,0.3,3.6,1c1.1,0.6,2,1.5,2.6,2.6s1,2.3,1,3.6v2c0,0.4-0.1,0.7-0.4,0.9c-0.3,0.3-0.6,0.4-0.9,0.4
		H862v0.2c0,1,0.3,1.8,1,2.5c0.7,0.7,1.5,1,2.5,1h4.8c0.2,0,0.3,0.1,0.4,0.2c0.1,0.1,0.2,0.3,0.2,0.5v2.2c0,0.2-0.1,0.3-0.2,0.5
		c-0.1,0.1-0.3,0.2-0.4,0.2h-4.8C864.3,871.1,863.1,870.8,862,870.1z M869.1,860.7v-0.3c0-1-0.3-1.8-1-2.5s-1.5-1-2.5-1
		c-1,0-1.8,0.3-2.5,1c-0.7,0.7-1,1.5-1,2.5v0.3H869.1z"/>
</g>
<g class="st5">
	<path class="st4" d="M1190,607.7c-0.2-0.2-0.4-0.6-0.4-0.9v-18.9c0-0.4,0.1-0.7,0.4-0.9c0.2-0.2,0.6-0.4,0.9-0.4h10.2
		c0.2,0,0.3,0.1,0.5,0.2c0.1,0.1,0.2,0.3,0.2,0.4v2.2c0,0.2-0.1,0.3-0.2,0.5c-0.1,0.1-0.3,0.2-0.5,0.2h-7.9v5.1h5.8
		c0.2,0,0.3,0.1,0.5,0.2s0.2,0.3,0.2,0.5v2.1c0,0.2-0.1,0.3-0.2,0.5s-0.3,0.2-0.5,0.2h-5.8v5.9h7.9c0.2,0,0.3,0.1,0.5,0.2
		c0.1,0.1,0.2,0.3,0.2,0.5v2.2c0,0.2-0.1,0.3-0.2,0.5c-0.1,0.1-0.3,0.2-0.5,0.2h-10.2C1190.5,608.1,1190.2,608,1190,607.7z"/>
</g>
<g class="st5">
	<path class="st4" d="M1204.8,607.9c-0.1-0.1-0.2-0.3-0.2-0.5c0-0.1,0-0.3,0.2-0.4l5.3-8l-4.6-7c-0.1-0.2-0.1-0.3-0.1-0.4
		c0-0.2,0.1-0.3,0.2-0.5c0.1-0.1,0.3-0.2,0.5-0.2h2.4c0.3,0,0.5,0.1,0.8,0.4l3,4.6l2.9-4.6c0.2-0.3,0.5-0.4,0.8-0.4h2.4
		c0.2,0,0.4,0.1,0.5,0.2c0.1,0.1,0.2,0.3,0.2,0.5c0,0.1-0.1,0.3-0.2,0.4l-4.6,7l5.3,8c0.1,0.2,0.1,0.3,0.1,0.4
		c0,0.2-0.1,0.3-0.2,0.5c-0.1,0.1-0.3,0.2-0.5,0.2h-2.5c-0.3,0-0.6-0.1-0.8-0.4l-3.6-5.5l-3.6,5.5c-0.2,0.3-0.5,0.4-0.8,0.4h-2.5
		C1205.1,608.1,1204.9,608,1204.8,607.9z"/>
</g>
<g class="st5">
	<path class="st4" d="M1225.3,607.5c-1.1-0.6-2-1.5-2.6-2.6s-1-2.3-1-3.6v-3.6c0-1.3,0.3-2.5,1-3.6s1.5-2,2.6-2.6
		c1.1-0.6,2.3-1,3.6-1c1,0,2,0.2,2.9,0.6s1.7,1,2.4,1.7c0.1,0.1,0.2,0.3,0.2,0.5c0,0.2-0.1,0.4-0.3,0.6l-1.3,1.3
		c-0.1,0.1-0.3,0.2-0.5,0.2c-0.2,0-0.4-0.1-0.5-0.3c-0.8-0.8-1.8-1.2-2.9-1.2c-1,0-1.8,0.3-2.5,1c-0.7,0.7-1,1.5-1,2.5v3.9
		c0,1,0.3,1.8,1,2.5c0.7,0.7,1.5,1,2.5,1c1.2,0,2.1-0.4,2.9-1.2c0.2-0.2,0.3-0.3,0.5-0.3c0.2,0,0.3,0.1,0.5,0.2l1.3,1.3
		c0.2,0.2,0.3,0.4,0.3,0.6c0,0.2-0.1,0.3-0.2,0.5c-0.7,0.7-1.5,1.3-2.4,1.7c-0.9,0.4-1.9,0.6-2.9,0.6
		C1227.6,608.5,1226.4,608.2,1225.3,607.5z"/>
	<path class="st4" d="M1238.4,607.9c-0.1-0.1-0.2-0.3-0.2-0.5v-21.7c0-0.2,0.1-0.3,0.2-0.5c0.1-0.1,0.3-0.2,0.5-0.2h2.3
		c0.2,0,0.3,0.1,0.4,0.2c0.1,0.1,0.2,0.3,0.2,0.5v6.6c0.6-0.6,1.2-1,2-1.4s1.5-0.5,2.3-0.5c1.2,0,2.3,0.3,3.3,0.8
		c1,0.5,1.7,1.3,2.2,2.2c0.5,1,0.8,2,0.8,3.3v10.7c0,0.2-0.1,0.3-0.2,0.5s-0.3,0.2-0.5,0.2h-2.3c-0.2,0-0.3-0.1-0.5-0.2
		s-0.2-0.3-0.2-0.5v-10.2c0-1.1-0.3-1.9-0.8-2.4c-0.5-0.6-1.3-0.9-2.3-0.9c-1.2,0-2.1,0.4-2.8,1.2c-0.7,0.8-1,1.8-1,3.2v9.2
		c0,0.2-0.1,0.3-0.2,0.5c-0.1,0.1-0.3,0.2-0.4,0.2h-2.3C1238.6,608.1,1238.5,608,1238.4,607.9z"/>
	<path class="st4" d="M1257.1,607c-1.1-0.9-1.6-2.2-1.6-3.7c0-1.4,0.5-2.5,1.4-3.4c1-0.9,2.3-1.5,4-1.8c0.4,0,0.9-0.1,1.3-0.2
		c1.4-0.2,2.2-0.3,2.5-0.4c0.7-0.1,1.1-0.5,1.1-1.3c0-0.7-0.3-1.3-0.9-1.8c-0.6-0.5-1.4-0.7-2.3-0.7c-1.6,0-2.8,0.6-3.5,1.8
		c-0.2,0.3-0.3,0.4-0.6,0.4c-0.2,0-0.3,0-0.4-0.1l-1.7-1.1c-0.2-0.1-0.3-0.3-0.3-0.5c0-0.1,0-0.2,0.1-0.3c0.6-1.1,1.4-2,2.6-2.6
		c1.1-0.6,2.4-0.9,3.9-0.9c1.3,0,2.5,0.2,3.5,0.8s1.8,1.2,2.3,2.1c0.5,0.9,0.8,2,0.8,3.2v10.9c0,0.2-0.1,0.3-0.2,0.5
		c-0.1,0.1-0.3,0.2-0.5,0.2h-2c-0.2,0-0.3-0.1-0.4-0.2c-0.1-0.1-0.2-0.3-0.2-0.5v-1.2c-1.4,1.5-3,2.2-4.9,2.2
		C1259.5,608.5,1258.2,608,1257.1,607z M1263.7,604.7c0.7-0.4,1.3-0.9,1.7-1.6c0.4-0.6,0.6-1.3,0.6-2.1v-0.6l-2.2,0.3
		c-1.2,0.1-2,0.3-2.4,0.3c-1.6,0.3-2.5,1-2.5,2.1c0,0.6,0.2,1.1,0.7,1.5c0.5,0.4,1.1,0.6,1.8,0.6
		C1262.3,605.3,1263,605.1,1263.7,604.7z"/>
	<path class="st4" d="M1274.1,607.9c-0.1-0.1-0.2-0.3-0.2-0.5v-15.9c0-0.2,0.1-0.3,0.2-0.5c0.1-0.1,0.3-0.2,0.5-0.2h2.3
		c0.2,0,0.3,0.1,0.4,0.2c0.1,0.1,0.2,0.3,0.2,0.5v1.4c0.6-0.8,1.2-1.4,2-1.8c0.8-0.4,1.6-0.6,2.5-0.6c1.1,0,2.2,0.3,3.1,0.8
		c0.9,0.5,1.6,1.3,2.1,2.2c0.5,1,0.8,2,0.8,3.2v10.7c0,0.2-0.1,0.3-0.2,0.5s-0.3,0.2-0.5,0.2h-2.3c-0.2,0-0.3-0.1-0.5-0.2
		s-0.2-0.3-0.2-0.5v-10.2c0-1.1-0.3-1.9-0.8-2.4c-0.5-0.6-1.3-0.9-2.3-0.9c-1.2,0-2.1,0.4-2.8,1.2c-0.7,0.8-1,1.8-1,3.2v9.2
		c0,0.2-0.1,0.3-0.2,0.5c-0.1,0.1-0.3,0.2-0.4,0.2h-2.3C1274.4,608.1,1274.2,608,1274.1,607.9z"/>
</g>
<g class="st5">
	<path class="st4" d="M1293.7,613.2c-1.2-0.7-1.8-1.8-1.8-3.3c0-1.1,0.4-2,1.1-2.8c-0.7-0.6-1.1-1.4-1.1-2.4c0-0.7,0.2-1.3,0.5-1.9
		c0.3-0.6,0.8-1.1,1.4-1.6c-0.6-0.5-1.1-1.2-1.5-2c-0.3-0.8-0.5-1.6-0.5-2.5c0-1.2,0.3-2.3,0.9-3.2c0.6-0.9,1.4-1.7,2.4-2.2
		c1-0.5,2.1-0.8,3.3-0.8c0.9,0,1.7,0.1,2.5,0.4h5.9c0.2,0,0.3,0.1,0.5,0.2s0.2,0.3,0.2,0.5v2c0,0.2-0.1,0.3-0.2,0.5
		s-0.3,0.2-0.5,0.2h-2.3c0.3,0.8,0.5,1.6,0.5,2.5c0,1.2-0.3,2.3-0.9,3.2c-0.6,0.9-1.4,1.7-2.4,2.2s-2.1,0.8-3.3,0.8
		c-0.9,0-1.8-0.2-2.7-0.5c-0.4,0.4-0.6,0.9-0.6,1.3c0,0.4,0.2,0.7,0.5,0.8c0.3,0.1,0.7,0.2,1.3,0.3c0.8,0,1.6,0.1,2.4,0.1l1.3,0
		c1.7,0,3,0.3,4.1,0.9c1,0.6,1.6,1.6,1.6,3.2c0,1.8-0.7,3.2-2.2,4.1c-1.5,0.9-3.3,1.3-5.7,1.3
		C1296.5,614.3,1294.9,613.9,1293.7,613.2z M1302.7,609.3c0-0.5-0.2-0.9-0.6-1c-0.4-0.2-0.9-0.2-1.6-0.2h-2.9c-0.7,0-1.4,0-1.8-0.1
		c-0.2,0.4-0.3,0.8-0.3,1.3c0,0.8,0.3,1.3,0.9,1.5c0.6,0.3,1.4,0.4,2.5,0.4C1301.4,611.2,1302.7,610.6,1302.7,609.3z M1300.7,598.8
		c0.5-0.5,0.8-1.3,0.8-2.2c0-0.9-0.3-1.6-0.8-2.2c-0.5-0.6-1.3-0.8-2.2-0.8c-0.9,0-1.7,0.3-2.2,0.8c-0.5,0.6-0.8,1.3-0.8,2.2
		c0,0.9,0.3,1.6,0.8,2.2c0.5,0.5,1.3,0.8,2.2,0.8C1299.4,599.6,1300.1,599.3,1300.7,598.8z"/>
</g>
<g class="st5">
	<path class="st4" d="M1313.2,607.1c-1.1-0.6-2-1.5-2.6-2.6c-0.6-1.1-1-2.3-1-3.6v-3.2c0-1.3,0.3-2.5,1-3.6c0.6-1.1,1.5-2,2.6-2.6
		c1.1-0.6,2.3-1,3.6-1s2.5,0.3,3.6,1c1.1,0.6,2,1.5,2.6,2.6c0.6,1.1,1,2.3,1,3.6v2c0,0.4-0.1,0.7-0.4,0.9c-0.3,0.3-0.6,0.4-0.9,0.4
		h-9.4v0.2c0,1,0.3,1.8,1,2.5c0.7,0.7,1.5,1,2.5,1h4.8c0.2,0,0.3,0.1,0.4,0.2c0.1,0.1,0.2,0.3,0.2,0.5v2.2c0,0.2-0.1,0.3-0.2,0.5
		c-0.1,0.1-0.3,0.2-0.4,0.2h-4.8C1315.5,608.1,1314.3,607.8,1313.2,607.1z M1320.3,597.7v-0.3c0-1-0.3-1.8-1-2.5
		c-0.7-0.7-1.5-1-2.5-1c-1,0-1.8,0.3-2.5,1s-1,1.5-1,2.5v0.3H1320.3z"/>
</g>
<g class="st5">
	<path class="st4" d="M29.5,870.4c-1.2-0.7-2.1-1.7-2.8-2.9s-1-2.5-1-4v-6.4c0-1.4,0.3-2.8,1-4s1.6-2.2,2.8-2.9
		c1.2-0.7,2.5-1.1,3.9-1.1c1.2,0,2.4,0.2,3.4,0.7c1.1,0.5,2,1.1,2.7,2c0.1,0.1,0.2,0.3,0.2,0.5c0,0.2-0.1,0.4-0.2,0.6l-1.3,1.4
		c-0.2,0.2-0.3,0.2-0.5,0.2c-0.2,0-0.4-0.1-0.5-0.3c-1-1.1-2.2-1.6-3.7-1.6c-0.7,0-1.4,0.2-2.1,0.6c-0.6,0.4-1.1,0.9-1.5,1.6
		c-0.4,0.7-0.6,1.4-0.6,2.2v6.4c0,0.8,0.2,1.5,0.6,2.2c0.4,0.7,0.9,1.2,1.5,1.6c0.6,0.4,1.3,0.6,2.1,0.6c1.5,0,2.7-0.5,3.7-1.6
		c0.2-0.2,0.3-0.3,0.5-0.3c0.2,0,0.3,0.1,0.5,0.2l1.3,1.4c0.2,0.2,0.3,0.4,0.3,0.6c0,0.2-0.1,0.3-0.2,0.5c-0.8,0.9-1.7,1.5-2.7,2
		c-1.1,0.5-2.2,0.7-3.4,0.7C32,871.5,30.7,871.1,29.5,870.4z"/>
</g>
<g class="st5">
	<path class="st4" d="M45.8,870.7c-0.2-0.2-0.4-0.6-0.4-0.9v-18.2h-2.7c-0.2,0-0.3-0.1-0.4-0.2S42,851.1,42,851v-2.2
		c0-0.2,0.1-0.3,0.2-0.5s0.3-0.2,0.4-0.2h5c0.4,0,0.7,0.1,0.9,0.4c0.2,0.3,0.4,0.6,0.4,0.9v18.2h2.7c0.2,0,0.3,0.1,0.5,0.2
		s0.2,0.3,0.2,0.5v2.2c0,0.2-0.1,0.3-0.2,0.5s-0.3,0.2-0.5,0.2h-5C46.3,871.1,46,871,45.8,870.7z"/>
</g>
<g class="st5">
	<path class="st4" d="M57.7,870.6c-0.3-0.3-0.4-0.6-0.4-1.1v-12.3h-2.4c-0.2,0-0.3-0.1-0.5-0.2s-0.2-0.3-0.2-0.5v-2.2
		c0-0.2,0.1-0.3,0.2-0.5s0.3-0.2,0.5-0.2h4.5c0.4,0,0.8,0.1,1.1,0.4s0.4,0.6,0.4,1.1v12.3h2.4c0.2,0,0.3,0.1,0.5,0.2
		c0.1,0.1,0.2,0.3,0.2,0.5v2.2c0,0.2-0.1,0.3-0.2,0.5c-0.1,0.1-0.3,0.2-0.5,0.2h-4.5C58.4,871.1,58,870.9,57.7,870.6z M57.6,851.7
		c-0.1-0.1-0.2-0.3-0.2-0.5V848c0-0.2,0.1-0.3,0.2-0.5c0.1-0.1,0.3-0.2,0.5-0.2h2c0.2,0,0.3,0.1,0.4,0.2c0.1,0.1,0.2,0.3,0.2,0.5
		v3.3c0,0.2-0.1,0.3-0.2,0.5c-0.1,0.1-0.3,0.2-0.4,0.2h-2C57.9,851.9,57.7,851.8,57.6,851.7z"/>
</g>
<g class="st5">
	<path class="st4" d="M69.9,870.1c-1.1-0.6-2-1.5-2.6-2.6c-0.6-1.1-1-2.3-1-3.6v-3.2c0-1.3,0.3-2.5,1-3.6s1.5-2,2.6-2.6
		c1.1-0.6,2.3-1,3.6-1c1.3,0,2.5,0.3,3.6,1c1.1,0.6,2,1.5,2.6,2.6s1,2.3,1,3.6v2c0,0.4-0.1,0.7-0.4,0.9c-0.3,0.3-0.6,0.4-0.9,0.4
		h-9.4v0.2c0,1,0.3,1.8,1,2.5c0.7,0.7,1.5,1,2.5,1h4.8c0.2,0,0.3,0.1,0.4,0.2c0.1,0.1,0.2,0.3,0.2,0.5v2.2c0,0.2-0.1,0.3-0.2,0.5
		c-0.1,0.1-0.3,0.2-0.4,0.2h-4.8C72.1,871.1,71,870.8,69.9,870.1z M77,860.7v-0.3c0-1-0.3-1.8-1-2.5s-1.5-1-2.5-1
		c-1,0-1.8,0.3-2.5,1c-0.7,0.7-1,1.5-1,2.5v0.3H77z"/>
</g>
<g class="st5">
	<path class="st4" d="M84.7,870.9c-0.1-0.1-0.2-0.3-0.2-0.5v-15.9c0-0.2,0.1-0.3,0.2-0.5s0.3-0.2,0.5-0.2h2.3c0.2,0,0.3,0.1,0.4,0.2
		c0.1,0.1,0.2,0.3,0.2,0.5v1.4c0.6-0.8,1.2-1.4,2-1.8c0.8-0.4,1.6-0.6,2.5-0.6c1.1,0,2.2,0.3,3.1,0.8c0.9,0.5,1.6,1.3,2.1,2.2
		c0.5,1,0.8,2,0.8,3.2v10.7c0,0.2-0.1,0.3-0.2,0.5s-0.3,0.2-0.5,0.2h-2.3c-0.2,0-0.3-0.1-0.5-0.2c-0.1-0.1-0.2-0.3-0.2-0.5v-10.2
		c0-1.1-0.3-1.9-0.8-2.4c-0.5-0.6-1.3-0.9-2.3-0.9c-1.2,0-2.1,0.4-2.8,1.2c-0.7,0.8-1,1.8-1,3.2v9.2c0,0.2-0.1,0.3-0.2,0.5
		c-0.1,0.1-0.3,0.2-0.4,0.2h-2.3C84.9,871.1,84.8,871,84.7,870.9z"/>
</g>
<g class="st5">
	<path class="st4" d="M105.7,869.6c-1-1-1.5-2.2-1.5-3.8v-8.6h-2.1c-0.2,0-0.3-0.1-0.5-0.2s-0.2-0.3-0.2-0.5v-2.1
		c0-0.2,0.1-0.3,0.2-0.5s0.3-0.2,0.5-0.2h2.1v-3.2c0-0.2,0.1-0.3,0.2-0.5c0.1-0.1,0.3-0.2,0.4-0.2h2.3c0.2,0,0.3,0.1,0.4,0.2
		s0.2,0.3,0.2,0.5v3.2h5.1c0.2,0,0.3,0.1,0.5,0.2s0.2,0.3,0.2,0.5v2.1c0,0.2-0.1,0.3-0.2,0.4c-0.1,0.1-0.3,0.2-0.5,0.2h-5.1v8.4
		c0,0.6,0.2,1.1,0.5,1.4c0.3,0.4,0.8,0.5,1.4,0.5l3.1,0c0.2,0,0.3,0.1,0.5,0.2s0.2,0.3,0.2,0.4v2.1c0,0.2-0.1,0.3-0.2,0.5
		s-0.3,0.2-0.5,0.2h-3.4C108,871.1,106.7,870.6,105.7,869.6z"/>
	<path class="st4" d="M126.4,876.7c-0.1-0.1-0.2-0.2-0.2-0.4V848c0-0.2,0.1-0.3,0.2-0.4c0.1-0.1,0.2-0.2,0.4-0.2h1.9
		c0.2,0,0.3,0,0.4,0.2c0.1,0.1,0.1,0.2,0.1,0.4v28.4c0,0.2,0,0.3-0.1,0.4c-0.1,0.1-0.2,0.2-0.4,0.2h-1.9
		C126.6,876.9,126.5,876.8,126.4,876.7z"/>
	<path class="st4" d="M141.6,870.9c-0.1-0.1-0.2-0.3-0.2-0.5c0-0.1,0-0.2,0-0.2l6.5-20c0.1-0.2,0.2-0.4,0.3-0.5s0.4-0.2,0.6-0.2h2.3
		c0.2,0,0.4,0.1,0.6,0.2s0.3,0.3,0.3,0.5l6.5,20c0,0.1,0,0.1,0,0.2c0,0.2-0.1,0.4-0.2,0.5c-0.1,0.1-0.3,0.2-0.5,0.2h-2.2
		c-0.2,0-0.4-0.1-0.6-0.2c-0.2-0.1-0.3-0.3-0.3-0.5l-1.3-4.3h-7l-1.3,4.3c-0.1,0.2-0.2,0.4-0.3,0.5c-0.2,0.1-0.4,0.2-0.6,0.2h-2.1
		C141.9,871.1,141.7,871,141.6,870.9z M152.5,862.7l-2.5-8l-2.5,8H152.5z"/>
	<path class="st4" d="M162.1,876.7c-0.1-0.1-0.2-0.3-0.2-0.5v-21.7c0-0.2,0.1-0.3,0.2-0.5s0.3-0.2,0.5-0.2h2c0.2,0,0.3,0.1,0.5,0.2
		s0.2,0.3,0.2,0.5v1.3c0.5-0.8,1.2-1.4,1.9-1.8c0.8-0.4,1.6-0.6,2.5-0.6c1.2,0,2.3,0.3,3.3,0.9s1.8,1.5,2.5,2.5
		c0.6,1.1,0.9,2.2,0.9,3.4v4.2c0,1.2-0.3,2.4-0.9,3.4c-0.6,1.1-1.4,1.9-2.4,2.5c-1,0.6-2.1,0.9-3.4,0.9c-0.7,0-1.5-0.2-2.1-0.5
		c-0.7-0.3-1.3-0.8-1.9-1.3v6.6c0,0.2-0.1,0.3-0.2,0.5s-0.3,0.2-0.5,0.2h-2.3C162.4,876.9,162.2,876.8,162.1,876.7z M171.6,867
		c0.7-0.7,1-1.5,1-2.5v-4c0-1-0.3-1.8-1-2.5c-0.7-0.7-1.5-1-2.5-1c-1,0-1.8,0.3-2.5,1c-0.7,0.7-1.1,1.5-1.1,2.5v4
		c0,1,0.3,1.8,1.1,2.5c0.7,0.7,1.5,1,2.5,1C170.1,868,170.9,867.7,171.6,867z"/>
	<path class="st4" d="M180.5,876.7c-0.1-0.1-0.2-0.3-0.2-0.5v-21.7c0-0.2,0.1-0.3,0.2-0.5s0.3-0.2,0.5-0.2h2c0.2,0,0.3,0.1,0.5,0.2
		s0.2,0.3,0.2,0.5v1.3c0.5-0.8,1.2-1.4,1.9-1.8c0.8-0.4,1.6-0.6,2.5-0.6c1.2,0,2.3,0.3,3.3,0.9s1.8,1.5,2.5,2.5
		c0.6,1.1,0.9,2.2,0.9,3.4v4.2c0,1.2-0.3,2.4-0.9,3.4c-0.6,1.1-1.4,1.9-2.4,2.5c-1,0.6-2.1,0.9-3.4,0.9c-0.7,0-1.5-0.2-2.1-0.5
		c-0.7-0.3-1.3-0.8-1.9-1.3v6.6c0,0.2-0.1,0.3-0.2,0.5s-0.3,0.2-0.5,0.2H181C180.8,876.9,180.7,876.8,180.5,876.7z M190,867
		c0.7-0.7,1-1.5,1-2.5v-4c0-1-0.3-1.8-1-2.5c-0.7-0.7-1.5-1-2.5-1c-1,0-1.8,0.3-2.5,1c-0.7,0.7-1.1,1.5-1.1,2.5v4
		c0,1,0.3,1.8,1.1,2.5c0.7,0.7,1.5,1,2.5,1C188.5,868,189.4,867.7,190,867z"/>
	<path class="st4" d="M208.6,870.6c-0.3-0.3-0.4-0.6-0.4-1.1v-12.3h-2.4c-0.2,0-0.3-0.1-0.5-0.2s-0.2-0.3-0.2-0.5v-2.2
		c0-0.2,0.1-0.3,0.2-0.5s0.3-0.2,0.5-0.2h4.5c0.4,0,0.8,0.1,1.1,0.4s0.4,0.6,0.4,1.1v12.3h2.4c0.2,0,0.3,0.1,0.5,0.2
		c0.1,0.1,0.2,0.3,0.2,0.5v2.2c0,0.2-0.1,0.3-0.2,0.5c-0.1,0.1-0.3,0.2-0.5,0.2h-4.5C209.3,871.1,208.9,870.9,208.6,870.6z
		 M208.5,851.7c-0.1-0.1-0.2-0.3-0.2-0.5V848c0-0.2,0.1-0.3,0.2-0.5s0.3-0.2,0.5-0.2h2c0.2,0,0.3,0.1,0.4,0.2
		c0.1,0.1,0.2,0.3,0.2,0.5v3.3c0,0.2-0.1,0.3-0.2,0.5c-0.1,0.1-0.3,0.2-0.4,0.2h-2C208.8,851.9,208.7,851.8,208.5,851.7z"/>
	<path class="st4" d="M218.3,870.9c-0.1-0.1-0.2-0.3-0.2-0.5v-15.9c0-0.2,0.1-0.3,0.2-0.5s0.3-0.2,0.5-0.2h2.3
		c0.2,0,0.3,0.1,0.5,0.2s0.2,0.3,0.2,0.5v1.4c0.6-0.8,1.2-1.4,2-1.8c0.8-0.4,1.6-0.6,2.5-0.6c1.1,0,2.2,0.3,3.1,0.8
		c0.9,0.5,1.6,1.3,2.1,2.2c0.5,1,0.8,2,0.8,3.2v10.7c0,0.2-0.1,0.3-0.2,0.5s-0.3,0.2-0.5,0.2h-2.3c-0.2,0-0.3-0.1-0.5-0.2
		s-0.2-0.3-0.2-0.5v-10.2c0-1.1-0.3-1.9-0.8-2.4c-0.5-0.6-1.3-0.9-2.3-0.9c-1.2,0-2.1,0.4-2.8,1.2c-0.7,0.8-1,1.8-1,3.2v9.2
		c0,0.2-0.1,0.3-0.2,0.5s-0.3,0.2-0.5,0.2h-2.3C218.6,871.1,218.5,871,218.3,870.9z"/>
</g>
<g class="st5">
	<path class="st4" d="M248.9,870.9c-0.1-0.1-0.2-0.3-0.2-0.5v-17.3h-5c-0.2,0-0.3-0.1-0.5-0.2s-0.2-0.3-0.2-0.5v-2.2
		c0-0.2,0.1-0.3,0.2-0.4c0.1-0.1,0.3-0.2,0.5-0.2h13.7c0.2,0,0.3,0.1,0.5,0.2c0.1,0.1,0.2,0.3,0.2,0.4v2.2c0,0.2-0.1,0.3-0.2,0.5
		s-0.3,0.2-0.5,0.2h-5v17.3c0,0.2-0.1,0.3-0.2,0.5s-0.3,0.2-0.5,0.2h-2.4C249.2,871.1,249,871,248.9,870.9z"/>
</g>
<g class="st5">
	<path class="st4" d="M262.7,870.1c-1.1-0.6-2-1.5-2.6-2.6c-0.6-1.1-1-2.3-1-3.6v-3.2c0-1.3,0.3-2.5,1-3.6c0.6-1.1,1.5-2,2.6-2.6
		c1.1-0.6,2.3-1,3.6-1c1.3,0,2.5,0.3,3.6,1c1.1,0.6,2,1.5,2.6,2.6c0.6,1.1,1,2.3,1,3.6v2c0,0.4-0.1,0.7-0.4,0.9
		c-0.2,0.3-0.6,0.4-0.9,0.4h-9.4v0.2c0,1,0.3,1.8,1,2.5c0.7,0.7,1.5,1,2.5,1h4.8c0.2,0,0.3,0.1,0.5,0.2s0.2,0.3,0.2,0.5v2.2
		c0,0.2-0.1,0.3-0.2,0.5s-0.3,0.2-0.5,0.2h-4.8C265,871.1,263.8,870.8,262.7,870.1z M269.9,860.7v-0.3c0-1-0.3-1.8-1-2.5
		c-0.7-0.7-1.5-1-2.5-1c-1,0-1.8,0.3-2.5,1c-0.7,0.7-1,1.5-1,2.5v0.3H269.9z"/>
</g>
<g class="st5">
	<path class="st4" d="M277.5,870c-1-0.9-1.6-2.2-1.6-3.7c0-1.4,0.5-2.5,1.4-3.4s2.3-1.5,4-1.8c0.4,0,0.9-0.1,1.3-0.2
		c1.4-0.2,2.2-0.3,2.5-0.4c0.7-0.1,1.1-0.5,1.1-1.3c0-0.7-0.3-1.3-0.9-1.8c-0.6-0.5-1.4-0.7-2.3-0.7c-1.6,0-2.8,0.6-3.5,1.8
		c-0.2,0.3-0.4,0.4-0.6,0.4c-0.2,0-0.3,0-0.4-0.1l-1.7-1.1c-0.2-0.1-0.3-0.3-0.3-0.5c0-0.1,0-0.2,0.1-0.3c0.6-1.1,1.4-2,2.6-2.6
		c1.1-0.6,2.4-0.9,3.9-0.9c1.3,0,2.5,0.2,3.5,0.8c1,0.5,1.8,1.2,2.3,2.1c0.5,0.9,0.8,2,0.8,3.2v10.9c0,0.2-0.1,0.3-0.2,0.5
		s-0.3,0.2-0.5,0.2h-2c-0.2,0-0.3-0.1-0.4-0.2c-0.1-0.1-0.2-0.3-0.2-0.5v-1.2c-1.4,1.5-3,2.2-4.9,2.2
		C279.9,871.5,278.5,871,277.5,870z M284.1,867.7c0.7-0.4,1.3-0.9,1.7-1.6c0.4-0.6,0.6-1.3,0.6-2.1v-0.6l-2.2,0.3
		c-1.2,0.1-2,0.3-2.4,0.3c-1.6,0.3-2.5,1-2.5,2.1c0,0.6,0.2,1.1,0.7,1.5c0.5,0.4,1.1,0.6,1.8,0.6
		C282.6,868.3,283.4,868.1,284.1,867.7z"/>
	<path class="st4" d="M294.5,870.9c-0.1-0.1-0.2-0.3-0.2-0.5v-15.9c0-0.2,0.1-0.3,0.2-0.5s0.3-0.2,0.5-0.2h2.3
		c0.2,0,0.3,0.1,0.4,0.2c0.1,0.1,0.2,0.3,0.2,0.5v1.6c0.6-0.9,1.3-1.5,2.1-1.9c0.8-0.4,1.6-0.6,2.5-0.6c1.1,0,2.1,0.3,2.9,0.8
		c0.9,0.5,1.5,1.3,2,2.2c0.6-0.9,1.3-1.7,2.2-2.2c0.9-0.5,2-0.8,3-0.8c1.7,0,3.1,0.6,4.1,1.7c1,1.2,1.5,2.7,1.5,4.6v10.7
		c0,0.2-0.1,0.3-0.2,0.5c-0.1,0.1-0.3,0.2-0.5,0.2h-2.3c-0.2,0-0.3-0.1-0.5-0.2s-0.2-0.3-0.2-0.5v-10.2c0-1.1-0.2-1.9-0.7-2.4
		c-0.5-0.6-1.2-0.9-2.1-0.9c-1.2,0-2.1,0.4-2.8,1.2c-0.7,0.8-1,1.8-1,3.2v9.2c0,0.2-0.1,0.3-0.2,0.5s-0.3,0.2-0.5,0.2h-2.3
		c-0.2,0-0.3-0.1-0.5-0.2s-0.2-0.3-0.2-0.5v-10.2c0-1.1-0.2-1.9-0.7-2.4c-0.5-0.6-1.2-0.9-2.1-0.9c-1.2,0-2.1,0.4-2.8,1.2
		c-0.7,0.8-1,1.8-1,3.2v9.2c0,0.2-0.1,0.3-0.2,0.5c-0.1,0.1-0.3,0.2-0.4,0.2h-2.3C294.8,871.1,294.6,871,294.5,870.9z"/>
	<path class="st4" d="M324.7,871c-1-0.3-1.9-0.8-2.7-1.4c-0.1-0.1-0.2-0.2-0.2-0.3c0-0.1,0-0.3,0-0.4c0.1-0.3,0.5-1,1-1.9
		c0.2-0.2,0.4-0.4,0.6-0.4c0.1,0,0.3,0,0.4,0.1c0.7,0.5,1.4,0.9,2,1.1c0.6,0.2,1.3,0.3,2,0.3c0.8,0,1.5-0.2,1.9-0.5
		c0.4-0.3,0.7-0.7,0.7-1.3c0-0.5-0.2-0.8-0.6-1.1c-0.4-0.3-1.1-0.6-2.2-1l-1.1-0.4c-0.9-0.3-1.6-0.7-2.2-1.1
		c-0.6-0.4-1.1-0.9-1.6-1.6s-0.6-1.5-0.6-2.5c0-1.6,0.5-2.8,1.6-3.8c1.1-0.9,2.4-1.4,4.2-1.4c1,0,2,0.2,3,0.5c1,0.3,1.8,0.8,2.6,1.4
		c0.1,0.1,0.2,0.2,0.2,0.3c0,0.1,0,0.3,0,0.4c-0.2,0.4-0.5,1-0.9,1.9c-0.1,0.2-0.3,0.3-0.6,0.3c-0.1,0-0.3,0-0.4-0.1
		c-1.4-0.9-2.7-1.3-3.8-1.3c-0.7,0-1.2,0.1-1.6,0.4c-0.4,0.3-0.6,0.7-0.6,1.2c0,0.5,0.2,1,0.7,1.3c0.4,0.3,1.2,0.8,2.4,1.2
		c1.1,0.4,2,0.8,2.7,1.1c0.6,0.3,1.2,0.8,1.7,1.5c0.5,0.7,0.8,1.5,0.8,2.6c0,1-0.3,2-0.8,2.8c-0.5,0.8-1.3,1.4-2.2,1.9
		c-1,0.4-2,0.7-3.3,0.7C326.8,871.5,325.7,871.3,324.7,871z"/>
</g>
<g class="st5">
	<path class="st4" d="M1178.4,881c-1.1-0.3-2-0.8-2.9-1.5c-0.1-0.1-0.2-0.2-0.2-0.3c0-0.2,0-0.3,0-0.4l1-1.9
		c0.1-0.2,0.3-0.4,0.6-0.4c0.2,0,0.3,0,0.5,0.1c1.5,0.9,2.9,1.4,4.2,1.4c1.1,0,1.9-0.3,2.5-0.8c0.6-0.5,0.9-1.2,0.9-2
		c0-0.5-0.1-1-0.4-1.4c-0.3-0.4-0.7-0.7-1.2-0.9c-0.5-0.3-1.2-0.6-2.2-1l-0.9-0.4c-1.4-0.6-2.5-1.3-3.4-2.2s-1.4-2.2-1.4-4
		c0-1.2,0.3-2.3,0.8-3.2c0.6-0.9,1.3-1.7,2.3-2.2c1-0.5,2.1-0.8,3.4-0.8c1.1,0,2.1,0.2,3.2,0.5c1,0.4,2,0.8,2.8,1.5
		c0.1,0.1,0.2,0.2,0.2,0.3s0,0.3,0,0.4l-1,1.9c-0.1,0.2-0.3,0.4-0.6,0.4c-0.2,0-0.3,0-0.4-0.1c-0.8-0.5-1.5-0.9-2.2-1.1
		c-0.7-0.2-1.3-0.3-1.9-0.3c-0.9,0-1.6,0.2-2.1,0.7c-0.5,0.5-0.8,1.1-0.8,1.9c0,0.8,0.3,1.4,0.9,1.9s1.5,1,2.7,1.5
		c0.2,0.1,0.9,0.3,2.1,0.8c1.2,0.5,2.1,1.2,2.8,2.1c0.7,0.9,1.1,2.1,1.1,3.3c0,1.2-0.3,2.3-0.9,3.3c-0.6,1-1.4,1.7-2.5,2.3
		s-2.3,0.8-3.7,0.8C1180.5,881.5,1179.4,881.3,1178.4,881z"/>
	<path class="st4" d="M1192.7,881c-0.1-0.1-0.2-0.3-0.2-0.5v-21.7c0-0.2,0.1-0.3,0.2-0.5c0.1-0.1,0.3-0.2,0.4-0.2h2.3
		c0.2,0,0.3,0.1,0.5,0.2s0.2,0.3,0.2,0.5v6.6c0.6-0.6,1.2-1,2-1.4c0.7-0.3,1.5-0.5,2.3-0.5c1.2,0,2.3,0.3,3.3,0.8
		c0.9,0.5,1.7,1.3,2.2,2.2c0.5,1,0.8,2,0.8,3.3v10.7c0,0.2-0.1,0.3-0.2,0.5s-0.3,0.2-0.5,0.2h-2.3c-0.2,0-0.3-0.1-0.5-0.2
		c-0.1-0.1-0.2-0.3-0.2-0.5v-10.2c0-1.1-0.3-1.9-0.8-2.4c-0.5-0.6-1.3-0.9-2.3-0.9c-1.2,0-2.1,0.4-2.8,1.2c-0.7,0.8-1,1.8-1,3.2v9.2
		c0,0.2-0.1,0.3-0.2,0.5s-0.3,0.2-0.5,0.2h-2.3C1192.9,881.2,1192.8,881.1,1192.7,881z"/>
</g>
<g class="st5">
	<path class="st4" d="M1211.4,880.1c-1-0.9-1.6-2.2-1.6-3.7c0-1.4,0.5-2.5,1.4-3.4s2.3-1.5,4-1.8c0.4,0,0.9-0.1,1.3-0.2
		c1.4-0.2,2.2-0.3,2.5-0.4c0.7-0.1,1.1-0.5,1.1-1.3c0-0.7-0.3-1.3-0.9-1.8c-0.6-0.5-1.4-0.7-2.3-0.7c-1.6,0-2.8,0.6-3.5,1.8
		c-0.2,0.3-0.4,0.4-0.6,0.4c-0.2,0-0.3,0-0.4-0.1l-1.7-1.1c-0.2-0.1-0.3-0.3-0.3-0.5c0-0.1,0-0.2,0.1-0.3c0.6-1.1,1.4-2,2.6-2.6
		c1.1-0.6,2.4-0.9,3.9-0.9c1.3,0,2.5,0.2,3.5,0.8c1,0.5,1.8,1.2,2.3,2.1c0.5,0.9,0.8,2,0.8,3.2v10.9c0,0.2-0.1,0.3-0.2,0.5
		s-0.3,0.2-0.5,0.2h-2c-0.2,0-0.3-0.1-0.4-0.2c-0.1-0.1-0.2-0.3-0.2-0.5v-1.2c-1.4,1.5-3,2.2-4.9,2.2
		C1213.8,881.5,1212.5,881.1,1211.4,880.1z M1218,877.7c0.7-0.4,1.3-0.9,1.7-1.6c0.4-0.6,0.6-1.3,0.6-2.1v-0.6l-2.2,0.3
		c-1.2,0.1-2,0.3-2.4,0.3c-1.6,0.3-2.5,1-2.5,2.1c0,0.6,0.2,1.1,0.7,1.5c0.5,0.4,1.1,0.6,1.8,0.6
		C1216.6,878.3,1217.3,878.1,1218,877.7z"/>
</g>
<g class="st5">
	<path class="st4" d="M1227.5,881c-0.1-0.1-0.2-0.3-0.2-0.5v-2.2c0-0.2,0.1-0.3,0.2-0.5s0.3-0.2,0.5-0.2h2.3v-10.3h-2.6
		c-0.2,0-0.3-0.1-0.5-0.2c-0.1-0.1-0.2-0.3-0.2-0.4v-2.1c0-0.2,0.1-0.3,0.2-0.5s0.3-0.2,0.5-0.2h4.6c0.4,0,0.7,0.1,0.9,0.4
		c0.2,0.3,0.4,0.6,0.4,0.9v1.1l1.6-1.3c0.6-0.5,1.1-0.8,1.6-1c0.4-0.2,1-0.3,1.6-0.3h0.9c0.2,0,0.3,0.1,0.5,0.2s0.2,0.3,0.2,0.5v2.3
		c0,0.2-0.1,0.3-0.2,0.5s-0.3,0.2-0.5,0.2h-0.8c-0.5,0-1,0.1-1.3,0.3c-0.4,0.2-1,0.6-1.7,1.2l-1.6,1.3v7.6h3c0.2,0,0.3,0.1,0.5,0.2
		s0.2,0.3,0.2,0.5v2.2c0,0.2-0.1,0.3-0.2,0.5s-0.3,0.2-0.5,0.2h-8.8C1227.8,881.2,1227.7,881.1,1227.5,881z"/>
</g>
<g class="st5">
	<path class="st4" d="M1245.7,880.2c-1.1-0.6-2-1.5-2.6-2.6c-0.6-1.1-1-2.3-1-3.6v-3.2c0-1.3,0.3-2.5,1-3.6c0.6-1.1,1.5-2,2.6-2.6
		c1.1-0.6,2.3-1,3.6-1s2.5,0.3,3.6,1c1.1,0.6,2,1.5,2.6,2.6s1,2.3,1,3.6v2c0,0.4-0.1,0.7-0.4,0.9c-0.2,0.3-0.6,0.4-0.9,0.4h-9.4v0.2
		c0,1,0.3,1.8,1,2.5c0.7,0.7,1.5,1,2.5,1h4.8c0.2,0,0.3,0.1,0.4,0.2c0.1,0.1,0.2,0.3,0.2,0.5v2.2c0,0.2-0.1,0.3-0.2,0.5
		c-0.1,0.1-0.3,0.2-0.4,0.2h-4.8C1248,881.2,1246.8,880.8,1245.7,880.2z M1252.8,870.8v-0.3c0-1-0.3-1.8-1-2.5s-1.5-1-2.5-1
		c-1,0-1.8,0.3-2.5,1c-0.7,0.7-1,1.5-1,2.5v0.3H1252.8z"/>
	<path class="st4" d="M1260.7,886.8c-0.1-0.1-0.2-0.3-0.2-0.5v-21.7c0-0.2,0.1-0.3,0.2-0.5s0.3-0.2,0.5-0.2h1.9
		c0.2,0,0.3,0.1,0.5,0.2c0.1,0.1,0.2,0.3,0.2,0.5v1.3c0.5-0.8,1.2-1.4,1.9-1.8c0.8-0.4,1.6-0.6,2.5-0.6c1.2,0,2.3,0.3,3.3,0.9
		c1,0.6,1.8,1.5,2.5,2.5c0.6,1.1,0.9,2.2,0.9,3.4v4.2c0,1.2-0.3,2.4-0.9,3.4c-0.6,1.1-1.4,1.9-2.4,2.5s-2.1,0.9-3.4,0.9
		c-0.7,0-1.5-0.2-2.1-0.5s-1.3-0.8-1.9-1.3v6.6c0,0.2-0.1,0.3-0.2,0.5c-0.1,0.1-0.3,0.2-0.4,0.2h-2.3
		C1260.9,886.9,1260.8,886.9,1260.7,886.8z M1270.2,877.1c0.7-0.7,1-1.5,1-2.5v-4c0-1-0.3-1.8-1-2.5c-0.7-0.7-1.5-1-2.5-1
		c-1,0-1.8,0.3-2.5,1c-0.7,0.7-1,1.5-1,2.5v4c0,1,0.3,1.8,1,2.5c0.7,0.7,1.5,1,2.5,1C1268.6,878.1,1269.5,877.7,1270.2,877.1z"/>
</g>
<g class="st5">
	<path class="st4" d="M1282,880.6c-1.1-0.6-2-1.5-2.6-2.6s-1-2.2-1-3.5v-3.9c0-1.3,0.3-2.4,1-3.5s1.5-1.9,2.6-2.6s2.3-0.9,3.6-0.9
		c1.3,0,2.5,0.3,3.6,0.9s2,1.5,2.6,2.6c0.6,1.1,1,2.2,1,3.5v3.9c0,1.3-0.3,2.4-1,3.5c-0.6,1.1-1.5,1.9-2.6,2.6s-2.3,0.9-3.6,0.9
		C1284.3,881.5,1283.1,881.2,1282,880.6z M1288.1,877c0.7-0.7,1-1.5,1-2.5v-3.9c0-1-0.3-1.8-1-2.5c-0.7-0.7-1.5-1-2.5-1
		c-1,0-1.8,0.3-2.5,1c-0.7,0.7-1,1.5-1,2.5v3.9c0,1,0.3,1.8,1,2.5c0.7,0.7,1.5,1,2.5,1C1286.5,878.1,1287.4,877.7,1288.1,877z"/>
</g>
<g class="st5">
	<path class="st4" d="M1298.9,880.7c-0.3-0.3-0.4-0.6-0.4-1.1v-12.3h-2.4c-0.2,0-0.3-0.1-0.5-0.2s-0.2-0.3-0.2-0.5v-2.2
		c0-0.2,0.1-0.3,0.2-0.5s0.3-0.2,0.5-0.2h4.5c0.4,0,0.8,0.1,1.1,0.4s0.4,0.6,0.4,1.1v12.3h2.4c0.2,0,0.3,0.1,0.5,0.2
		s0.2,0.3,0.2,0.5v2.2c0,0.2-0.1,0.3-0.2,0.5s-0.3,0.2-0.5,0.2h-4.5C1299.5,881.2,1299.2,881,1298.9,880.7z M1298.8,861.8
		c-0.1-0.1-0.2-0.3-0.2-0.5v-3.3c0-0.2,0.1-0.3,0.2-0.5c0.1-0.1,0.3-0.2,0.5-0.2h2c0.2,0,0.3,0.1,0.5,0.2s0.2,0.3,0.2,0.5v3.3
		c0,0.2-0.1,0.3-0.2,0.5s-0.3,0.2-0.5,0.2h-2C1299,862,1298.9,861.9,1298.8,861.8z"/>
</g>
<g class="st5">
	<path class="st4" d="M1308.6,881c-0.1-0.1-0.2-0.3-0.2-0.5v-15.9c0-0.2,0.1-0.3,0.2-0.5s0.3-0.2,0.5-0.2h2.3c0.2,0,0.3,0.1,0.4,0.2
		c0.1,0.1,0.2,0.3,0.2,0.5v1.4c0.6-0.8,1.2-1.4,2-1.8c0.8-0.4,1.6-0.6,2.5-0.6c1.1,0,2.2,0.3,3.1,0.8c0.9,0.5,1.6,1.3,2.1,2.2
		c0.5,1,0.8,2,0.8,3.2v10.7c0,0.2-0.1,0.3-0.2,0.5s-0.3,0.2-0.5,0.2h-2.3c-0.2,0-0.3-0.1-0.5-0.2c-0.1-0.1-0.2-0.3-0.2-0.5v-10.2
		c0-1.1-0.3-1.9-0.8-2.4c-0.5-0.6-1.3-0.9-2.3-0.9c-1.2,0-2.1,0.4-2.8,1.2c-0.7,0.8-1,1.8-1,3.2v9.2c0,0.2-0.1,0.3-0.2,0.5
		c-0.1,0.1-0.3,0.2-0.4,0.2h-2.3C1308.8,881.2,1308.7,881.1,1308.6,881z"/>
</g>
<g class="st5">
	<path class="st4" d="M1329.6,879.7c-1-1-1.5-2.2-1.5-3.8v-8.6h-2.1c-0.2,0-0.3-0.1-0.5-0.2s-0.2-0.3-0.2-0.5v-2.1
		c0-0.2,0.1-0.3,0.2-0.5s0.3-0.2,0.5-0.2h2.1v-3.2c0-0.2,0.1-0.3,0.2-0.5s0.3-0.2,0.5-0.2h2.3c0.2,0,0.3,0.1,0.5,0.2
		s0.2,0.3,0.2,0.5v3.2h5.1c0.2,0,0.3,0.1,0.5,0.2s0.2,0.3,0.2,0.5v2.1c0,0.2-0.1,0.3-0.2,0.4c-0.1,0.1-0.3,0.2-0.5,0.2h-5.1v8.4
		c0,0.6,0.2,1.1,0.5,1.4c0.3,0.4,0.8,0.5,1.4,0.5l3.2,0c0.2,0,0.3,0.1,0.5,0.2s0.2,0.3,0.2,0.4v2.1c0,0.2-0.1,0.3-0.2,0.5
		s-0.3,0.2-0.5,0.2h-3.4C1331.8,881.2,1330.6,880.7,1329.6,879.7z"/>
</g>
<path class="st6" d="M1266,448.4c0,0-0.1,0-0.1,0.1l-56.9,10.7c-1,0.2-1.7,1-1.7,2v75.7c0,1,0.7,1.8,1.7,2l56.9,10.9
	c0.6,0.1,1.2,0,1.7-0.4c0.5-0.4,0.7-0.9,0.8-1.5v-18.3h38.6c1.1,0,2-0.9,2-2v-56.9c0-1.1-0.9-2-2-2h-38.6v-18.3
	c0-0.6-0.2-1.1-0.7-1.5C1267.1,448.5,1266.5,448.3,1266,448.4L1266,448.4z M1264.2,452.8v17.3c-0.1,0.4-0.1,0.8,0,1.2v55.9
	c-0.1,0.3-0.1,0.6,0,0.8v17.5l-52.8-10.2v-72.4L1264.2,452.8L1264.2,452.8z M1268.2,472.8h36.6v52.8h-36.6v-6.1h3.2
	c1.4-0.2,13-15,11.2-16.4c-1.4-1.4-6.3,6.5-12.2,10.7h-2.2v-13.6c3.1,2.1,6.1,3.5,6.7,2.9c1-1-2.8-3.7-6.7-7.4v-11.1h3.4l2.3,2
	c0.4,0.4,0.8,0.4,1.2,0l1.6-1.6c0.4-0.4,0.4-0.8,0-1.2l-4.6-4.7c-0.2-0.2-0.6-0.4-0.8-0.4h-3.1L1268.2,472.8L1268.2,472.8z
	 M1246.3,478.5l-18.5,2v36.8l19.1,1.8v-7.5l-12-0.6v-8.8l10.6,0.2v-7.3l-10.6,0.2v-8.5l11.4-0.8V478.5L1246.3,478.5z M1285.1,478.8
	c-1.4,0.2-12.8,15-11.2,16.4c1.4,1.4,6.3-6.5,12.2-10.7h6.7v7.7l-2,2c-0.4,0.4-0.4,0.8,0,1.2l1.7,1.6c0.4,0.4,0.8,0.4,1.2,0l4.7-4.7
	c0.2-0.2,0.4-0.6,0.4-0.8v-11.4c0-0.8-0.6-1.4-1.2-1.4L1285.1,478.8L1285.1,478.8z M1282.3,495.2c-0.2,0-0.4,0-0.5,0.1
	c-1.4,1.4,6.7,6.1,11,12v6.5h-7.7l-2.3-2c-0.4-0.4-0.8-0.4-1.2,0l-1.6,1.6c-0.4,0.4-0.4,0.8,0,1.2l4.6,4.7c0.2,0.2,0.6,0.4,0.8,0.4
	h11.8c0.6,0,1.2-0.6,1.2-1.2v-12C1298.5,505,1285.3,495.1,1282.3,495.2L1282.3,495.2z"/>
<g>
	<path class="st7" d="M1262.8,783.7c-12,0-21.7,9.7-21.7,21.7s9.7,21.7,21.7,21.7s21.7-9.7,21.7-21.7S1274.7,783.7,1262.8,783.7z"/>
	<g>
		<g>
			<line class="st7" x1="1262.8" y1="779.2" x2="1262.8" y2="767.5"/>
			<path class="st7" d="M1288.5,808c15.7,0,28.4-12.7,28.4-28.4c0-14.3-10.6-26.2-24.4-28.1"/>
			<path class="st7" d="M1288.5,751.2c1.4,0,2.7,0.1,4.1,0.3"/>
			<path class="st7" d="M1228,745.8h29.3c3,0,5.4,2.4,5.4,5.4v16.3"/>
			<path class="st7" d="M1292.3,747.5c-1.8-16.2-15.6-28.8-32.3-28.8c-14.8,0-27.3,9.9-31.2,23.5"/>
			<path class="st7" d="M1288.5,751.2c-9.1,0-16.3,3.2-21.5,9.8"/>
		</g>
		<path class="st7" d="M1228,745.8h-14c-3,0-5.4,2.4-5.4,5.4v43.3c0,3,2.4,5.4,5.4,5.4h22.7"/>
	</g>
	<path class="st8" d="M1226,785.7v-6.2c1.2,1,6.5,2.8,7.8,2.8c0.8,0,5.8,0.2,5.8-2.8c0-4.4-13.8-4-13.8-12.8c0-1.5,0.2-8.3,11.2-8.3
		c2.8,0,6.2,0.7,7.1,1.1v5.8c-0.5-0.3-2.4-1.9-6.8-1.9c-5.1,0-5.5,2.4-5.5,2.8c0,3.7,13.5,4.2,13.5,12.8s-9.8,8.3-11.3,8.3
		C1232.6,787.3,1227,786.2,1226,785.7L1226,785.7z"/>
</g>
<path class="st4" d="M1267.3,167.5l-34.9,74.4l-24.6-0.3l27.4-47.2L1267.3,167.5 M1271.1,173.4l44.4,77.7h-82.2l50.1-8.9l-26.2-31.2
	L1271.1,173.4L1271.1,173.4z"/>
<path class="st3" d="M984.4,694.5l77.4,95.9"/>
<g>
	<g>
		<path class="st9" d="M192.1,425.9H90.6c-8.8,0-16,7.1-16,16v111.8c0,8.8,7.2,16,16,16h151.7c8.8,0,16-7.2,16-16V494"/>
		<path class="st9" d="M74.7,462.6h124"/>
		<path class="st10" d="M102.6,447.9c-1.1,0-2-0.9-2-2s0.9-2,2-2"/>
		<path class="st10" d="M102.6,447.9c1.1,0,2-0.9,2-2s-0.9-2-2-2"/>
		<g>
			<path class="st10" d="M126.6,447.9c-1.1,0-2-0.9-2-2s0.9-2,2-2"/>
			<path class="st10" d="M126.6,447.9c1.1,0,2-0.9,2-2s-0.9-2-2-2"/>
		</g>
		<g>
			<path class="st10" d="M150.5,447.9c-1.1,0-2-0.9-2-2s0.9-2,2-2"/>
			<path class="st10" d="M150.5,447.9c1.1,0,2-0.9,2-2s-0.9-2-2-2"/>
		</g>
	</g>
	<path class="st4" d="M270.6,430.8c-1,0-1.9-0.2-2.8-0.5c-0.8-0.4-1.6-0.9-2.2-1.5c-0.6-0.6-1.1-1.4-1.5-2.2
		c-0.4-0.9-0.5-1.8-0.5-2.8s0.2-1.9,0.5-2.7s0.9-1.6,1.5-2.2c0.6-0.6,1.4-1.1,2.2-1.5c0.9-0.4,1.8-0.6,2.8-0.5c1,0,1.9,0.2,2.7,0.5
		c0.9,0.4,1.6,0.9,2.3,1.5c0.6,0.6,1.1,1.4,1.5,2.2c0.4,0.9,0.5,1.8,0.5,2.7s-0.2,1.9-0.5,2.8c-0.4,0.8-0.9,1.6-1.5,2.2
		c-0.6,0.6-1.4,1.1-2.3,1.5C272.5,430.6,271.5,430.8,270.6,430.8 M270.6,420.8c-0.8,0-1.6,0.3-2.2,0.9c-0.5,0.6-0.8,1.3-0.8,2.1
		s0.3,1.6,0.8,2.2c0.6,0.5,1.4,0.8,2.2,0.8s1.5-0.3,2.1-0.8c0.6-0.5,0.9-1.3,0.9-2.2c0-0.8-0.3-1.5-0.9-2.1
		C272.1,421,271.4,420.8,270.6,420.8 M279.6,435.9v15.1c0,1.4-0.3,2.6-0.8,3.9c-0.6,1.2-1.3,2.3-2.2,3.2c-0.9,0.9-2,1.6-3.2,2.2
		c-1.3,0.5-2.6,0.8-3.9,0.8c-0.8,0-1.6-0.1-2.5-0.4c-0.8-0.1-1.6-0.4-2.3-0.8c-0.5,1.7-1.3,3.2-2.3,4.6s-2.2,2.6-3.5,3.6
		s-2.9,1.7-4.5,2.3c-1.6,0.6-3.3,0.9-5.1,0.9c-2.1,0-4-0.4-5.8-1.1c-1.8-0.7-3.4-1.7-4.8-3c-1.4-1.2-2.6-2.7-3.5-4.4
		c-0.9-1.7-1.6-3.6-1.8-5.6h-15.6c-0.7,0-1.3-0.3-1.9-0.8c-0.5-0.5-0.8-1.1-0.8-1.9v-26.9c0-0.7,0.3-1.4,0.8-1.9
		c0.6-0.5,1.2-0.8,1.9-0.8h23.1c-0.6-1.3-0.9-2.6-0.9-4c0-1.3,0.2-2.5,0.7-3.7c0.5-1.1,1.1-2.1,2-3c0.9-0.8,1.9-1.5,3-2
		c1.1-0.5,2.3-0.7,3.6-0.7c1.3,0,2.5,0.2,3.7,0.7s2.1,1.2,3,2c0.9,0.9,1.5,1.9,2,3c0.5,1.2,0.7,2.4,0.7,3.7s-0.2,2.5-0.7,3.7
		c-0.5,1.1-1.1,2.1-2,3c-0.9,0.9-1.9,1.5-3,2s-2.4,0.7-3.7,0.7c-0.3,0-0.7,0-1-0.1c-0.3,0-0.7-0.1-1-0.2v2.9h29.2
		c0.8,0,1.6,0.3,2.2,0.9C279.3,434.3,279.6,435,279.6,435.9 M249.4,415.5c-0.8,0-1.4,0.1-2,0.4c-0.7,0.3-1.3,0.7-1.8,1.2
		c-0.5,0.5-0.9,1.1-1.1,1.7c-0.3,0.7-0.4,1.4-0.4,2.1s0.1,1.5,0.4,2.1s0.7,1.2,1.1,1.7c0.5,0.5,1.1,0.9,1.8,1.2
		c0.6,0.3,1.3,0.4,2,0.4s1.4-0.1,2.1-0.4c0.6-0.3,1.2-0.7,1.7-1.2c0.5-0.5,0.9-1.1,1.2-1.7c0.3-0.6,0.4-1.3,0.4-2.1
		s-0.1-1.4-0.4-2.1c-0.3-0.6-0.7-1.2-1.2-1.7s-1.1-0.9-1.7-1.2C250.8,415.6,250.1,415.5,249.4,415.5 M233.8,435.4h6.1v-5h-17.2v5
		h6.1v16.1h5 M261.5,455v-18.1h-14.1v17.5c0,0.7-0.3,1.4-0.8,1.9c-0.6,0.5-1.2,0.8-1.9,0.8h-7.3c0.3,1.4,0.8,2.8,1.5,4
		c0.7,1.2,1.6,2.3,2.6,3.2c1,0.9,2.2,1.6,3.6,2.1c1.3,0.5,2.7,0.7,4.3,0.7c1.7,0,3.2-0.3,4.7-0.9c1.5-0.6,2.7-1.5,3.9-2.6
		c1.1-1.1,2-2.4,2.6-3.8C261.2,458.3,261.5,456.7,261.5,455 M275.6,451v-14h-10.1v18.4c0.5,0.5,1.1,1,1.8,1.2
		c0.6,0.3,1.4,0.4,2.2,0.4s1.6-0.2,2.4-0.5s1.4-0.8,1.9-1.3c0.6-0.5,1-1.2,1.3-1.9C275.5,452.5,275.6,451.8,275.6,451L275.6,451z"/>
	<g id="UC-UC-Free">
		<g>
			<path class="st4" d="M211.4,531.5v-0.6c0-0.6-0.2-1-0.6-1.5l-3.2-3.3c-0.4-0.4-0.8-0.6-1.3-0.6s-0.8,0.2-1.3,0.6
				c-2.3,2.5-5.4,3.8-9,3.8c-1.9,0-3.6-0.4-5-1.5s-2.7-2.3-3.8-4c-0.8-1.7-1.5-3.3-1.5-5.2v-15.6c0-1.9,0.4-3.5,1.5-5.1
				c0.5-0.7,1-1.3,1.5-2c0.7-0.8,1.5-1.4,2.3-2c1.5-1,3.1-1.5,5-1.5c3.8,0,6.7,1.5,9,4c0.4,0.4,0.8,0.6,1.3,0.6s0.8-0.2,1-0.4
				l0.2-0.2l0,0l3.1-3.4c0.4-0.4,0.6-1,0.6-1.5s-0.2-0.8-0.4-1.3c-1.9-2.1-4-3.8-6.5-4.8c-2.5-1.1-5.4-1.7-8.4-1.7
				c-3.4,0-6.5,0.8-9.4,2.5c-2.3,1.3-4.2,3-5.7,5.2c-0.5,0.7-1,1.4-1.4,2.1c-1.6,2.9-2.5,6.1-2.5,9.7v15.5c0,3.3,0.8,6.7,2.5,9.7
				c1.7,2.9,4,5.2,6.9,7.2c2.3,1.3,4,1.6,6.5,2.1l0,0l18.4-6.5C211.3,531.7,211.4,531.6,211.4,531.5L211.4,531.5L211.4,531.5z"/>
			<path class="st4" d="M172.6,485.6h-6.1c-0.4,0-0.8,0.2-1,0.4s-0.4,0.6-0.4,1v31.3c0,3.3-1,6.3-2.9,8.4c-1.9,2.1-4.4,3.1-7.4,3.1
				c-3.1,0-5.6-1.1-7.4-3.1c-1.9-2.1-2.9-5-2.9-8.4V487c0-0.4-0.2-0.8-0.4-1c-0.2-0.2-0.6-0.4-1-0.4h-6.1c-0.4,0-0.8,0.2-1,0.4
				c-0.2,0.2-0.4,0.6-0.4,1v30.8c0,4,0.8,7.5,2.5,10.7c1.7,3.1,4,5.7,6.9,7.3c2.9,1.9,6.3,2.7,10.1,2.7c3.6,0,6.9-0.8,9.8-2.7
				c2.9-1.7,5.2-4.2,6.9-7.3c1.6-3.1,2.5-6.7,2.5-10.7V487c0-0.4-0.2-0.8-0.4-1C173.4,485.6,173,485.6,172.6,485.6L172.6,485.6
				L172.6,485.6z"/>
			<path class="st11" d="M212,475.5L212,475.5l-87.5-15.7l14.9,99l53.5-20.6l0,0c-2.5-0.4-4.2-0.8-6.5-2.1c-2.9-1.9-5.2-4.2-6.9-7.2
				c-1.7-2.9-2.5-6.3-2.5-9.7v-15.5c0-3.6,0.8-6.7,2.5-9.7c0.4-0.7,0.9-1.5,1.4-2.1c1.5-2.2,3.4-3.9,5.7-5.2
				c2.9-1.7,6.1-2.5,9.4-2.5c2.9,0,5.9,0.6,8.4,1.7c2.5,1,4.6,2.7,6.5,4.8c0.2,0.4,0.4,0.8,0.4,1.3s-0.2,1-0.6,1.5l-3.1,3.4
				c0,0,0,0,0,0l-0.2,0.2c-0.2,0.2-0.6,0.4-1,0.4s-0.8-0.2-1.3-0.6c-2.3-2.5-5.2-4-9-4c-1.9,0-3.6,0.4-5,1.5c-0.8,0.6-1.6,1.3-2.3,2
				c-0.5,0.6-1,1.3-1.5,2c-1,1.6-1.4,3.3-1.5,5.1v15.6c0,1.9,0.6,3.6,1.5,5.2c1,1.7,2.3,2.9,3.8,4c1.5,1.1,3.1,1.5,5,1.5
				c3.6,0,6.7-1.3,9-3.8c0.4-0.4,0.8-0.6,1.3-0.6s0.8,0.2,1.3,0.6l3.1,3.3c0.4,0.4,0.6,0.8,0.6,1.5v0.6c0,0.1-0.1,0.1-0.1,0.2
				l0.5-0.2l0,0l14.9-5.7L212,475.5L212,475.5L212,475.5z M135.3,517.9v-30.8c0-0.4,0.2-0.8,0.4-1c0.2-0.2,0.6-0.4,1-0.4h6.1
				c0.4,0,0.8,0.2,1,0.4c0.2,0.2,0.4,0.6,0.4,1v31.3c0,3.3,1,6.3,2.9,8.4c1.9,2.1,4.4,3.1,7.4,3.1c3.1,0,5.6-1.1,7.4-3.1
				c1.9-2.1,2.9-5,2.9-8.4V487c0-0.4,0.2-0.8,0.4-1s0.6-0.4,1-0.4h6.1c0.4,0,0.8,0,1,0.4c0.2,0.2,0.4,0.6,0.4,1v30.8
				c0,4-0.8,7.5-2.5,10.7c-1.7,3.1-4,5.7-6.9,7.3c-2.9,1.9-6.3,2.7-9.8,2.7c-3.8,0-7.1-0.8-10.1-2.7c-2.9-1.7-5.2-4.2-6.9-7.3
				C136.1,525.4,135.3,521.9,135.3,517.9L135.3,517.9z"/>
		</g>
		<rect x="175.3" y="459.8" class="st12" width="50.7" height="23.4"/>
		<path d="M182.4,478.9c-0.1-0.1-0.1-0.1-0.1-0.2v-13.3c0-0.2,0.1-0.4,0.2-0.5s0.3-0.2,0.5-0.2h3.5c0.8,0,1.6,0.2,2.3,0.6
			s1.2,0.9,1.6,1.6c0.4,0.7,0.6,1.4,0.6,2.2s-0.2,1.5-0.6,2.2c-0.4,0.7-0.9,1.2-1.6,1.6s-1.4,0.6-2.3,0.6h-2.5v5.2
			c0,0.1,0,0.1-0.1,0.2c-0.1,0.1-0.1,0.1-0.2,0.1h-1.1C182.6,479,182.5,479,182.4,478.9L182.4,478.9L182.4,478.9z M186.5,471.9
			c0.5,0,1-0.1,1.4-0.4s0.8-0.6,1-1c0.3-0.4,0.4-0.9,0.4-1.4s-0.1-1-0.4-1.4c-0.3-0.4-0.6-0.8-1-1c-0.4-0.3-0.9-0.4-1.4-0.4h-2.4
			v5.7L186.5,471.9L186.5,471.9z"/>
		<path d="M195.6,478.9c-0.1-0.1-0.1-0.1-0.1-0.2v-13.3c0-0.2,0.1-0.4,0.2-0.5s0.3-0.2,0.5-0.2h3.6c0.8,0,1.5,0.2,2.1,0.6
			s1.1,0.9,1.5,1.5c0.4,0.6,0.6,1.3,0.6,2.1c0,1-0.3,1.9-0.9,2.6c-0.6,0.8-1.4,1.2-2.4,1.4l3.4,5.5c0,0.1,0.1,0.1,0.1,0.2
			c0,0.1,0,0.2-0.1,0.3c-0.1,0.1-0.2,0.1-0.3,0.1h-1.1c-0.1,0-0.2-0.1-0.3-0.2l-3.6-5.8h-1.6v5.7c0,0.1,0,0.1-0.1,0.2
			c-0.1,0.1-0.1,0.1-0.2,0.1h-1.1C195.7,479,195.6,479,195.6,478.9L195.6,478.9L195.6,478.9z M199.7,471.4c0.7,0,1.4-0.2,1.9-0.7
			s0.7-1.1,0.7-1.8s-0.2-1.4-0.7-1.9c-0.5-0.5-1.1-0.7-1.9-0.7h-2.5v5.1H199.7z"/>
		<path d="M211.2,478.6c-0.8-0.5-1.4-1.1-1.9-1.8s-0.7-1.6-0.7-2.5v-4.8c0-0.9,0.2-1.8,0.7-2.5s1.1-1.4,1.9-1.8
			c0.8-0.5,1.6-0.7,2.5-0.7s1.8,0.2,2.5,0.7s1.4,1.1,1.9,1.8c0.4,0.8,0.7,1.6,0.7,2.5v4.8c0,0.9-0.2,1.8-0.7,2.5s-1.1,1.4-1.9,1.8
			c-0.8,0.5-1.6,0.7-2.5,0.7S212,479,211.2,478.6z M215.4,477.2c0.5-0.3,0.9-0.7,1.2-1.3s0.4-1.1,0.4-1.7v-4.8
			c0-0.6-0.1-1.2-0.4-1.7s-0.7-1-1.2-1.3s-1.1-0.5-1.7-0.5s-1.2,0.2-1.7,0.5c-0.5,0.3-0.9,0.7-1.2,1.3s-0.4,1.1-0.4,1.7v4.8
			c0,0.6,0.1,1.2,0.4,1.7s0.7,1,1.2,1.3c0.5,0.3,1.1,0.5,1.7,0.5S214.9,477.5,215.4,477.2z"/>
	</g>
</g>
<rect x="462.2" y="1.6" class="st13" width="1040" height="90.7"/>
<g class="st5">
	<path class="st4" d="M809.3,62c-0.2-0.2-0.3-0.4-0.3-0.7V47.6l-9.5-15.9c-0.1-0.2-0.2-0.3-0.2-0.6c0-0.3,0.1-0.5,0.3-0.7
		c0.2-0.2,0.5-0.3,0.8-0.3h3.7c0.4,0,0.7,0.2,0.9,0.5l6.7,11.6h0.1l6.7-11.6c0.2-0.3,0.5-0.5,0.9-0.5h3.7c0.3,0,0.6,0.1,0.8,0.3
		c0.2,0.2,0.3,0.4,0.3,0.7c0,0.2-0.1,0.4-0.2,0.6l-9.5,15.9v13.8c0,0.3-0.1,0.5-0.3,0.7c-0.2,0.2-0.4,0.3-0.7,0.3h-3.6
		C809.7,62.3,809.4,62.2,809.3,62z"/>
</g>
<g class="st5">
	<path class="st4" d="M832.7,61.3c-1.8-1.1-3.3-2.5-4.3-4.3s-1.6-3.8-1.6-6v-9.6c0-2.2,0.5-4.1,1.6-6c1.1-1.8,2.5-3.3,4.3-4.3
		c1.8-1.1,3.8-1.6,6-1.6s4.2,0.5,6,1.6c1.8,1.1,3.3,2.5,4.3,4.3c1.1,1.8,1.6,3.8,1.6,6V51c0,2.2-0.5,4.1-1.6,6
		c-1.1,1.8-2.5,3.3-4.3,4.3c-1.8,1.1-3.8,1.6-6,1.6S834.5,62.3,832.7,61.3z M841.9,56.7c1-0.6,1.8-1.4,2.4-2.4s0.9-2.1,0.9-3.3v-9.6
		c0-1.2-0.3-2.3-0.9-3.3c-0.6-1-1.4-1.8-2.4-2.4c-1-0.6-2.1-0.9-3.2-0.9c-1.1,0-2.2,0.3-3.2,0.9c-1,0.6-1.8,1.4-2.4,2.4
		c-0.6,1-0.9,2.1-0.9,3.3V51c0,1.2,0.3,2.3,0.9,3.3s1.4,1.8,2.4,2.4c1,0.6,2.1,0.9,3.2,0.9C839.8,57.6,840.9,57.3,841.9,56.7z"/>
</g>
<g class="st5">
	<path class="st4" d="M863,61.2c-1.8-1.1-3.2-2.6-4.3-4.6s-1.6-4.1-1.6-6.5V31c0-0.3,0.1-0.5,0.3-0.7c0.2-0.2,0.4-0.3,0.7-0.3h3.6
		c0.3,0,0.5,0.1,0.7,0.3c0.2,0.2,0.3,0.4,0.3,0.7v19.3c0,2.2,0.6,3.9,1.8,5.2c1.2,1.3,2.8,2,4.7,2c1.9,0,3.5-0.7,4.7-2
		c1.2-1.3,1.8-3.1,1.8-5.2V31c0-0.3,0.1-0.5,0.3-0.7c0.2-0.2,0.4-0.3,0.7-0.3h3.6c0.3,0,0.5,0.1,0.7,0.3c0.2,0.2,0.3,0.4,0.3,0.7v19
		c0,2.4-0.5,4.6-1.6,6.6s-2.5,3.5-4.3,4.6c-1.8,1.1-3.8,1.6-6.1,1.6C866.9,62.9,864.8,62.3,863,61.2z"/>
	<path class="st4" d="M888.5,62c-0.2-0.2-0.3-0.4-0.3-0.7V32c0-0.5,0.2-1,0.6-1.4s0.8-0.6,1.4-0.6h8.4c1.8,0,3.5,0.4,5,1.3
		c1.5,0.9,2.7,2.1,3.6,3.6c0.9,1.5,1.4,3.1,1.4,4.9c0,2.2-0.6,4.1-1.9,5.8c-1.3,1.7-3,2.9-5,3.5l7.5,11.6c0.1,0.2,0.2,0.4,0.2,0.6
		c0,0.3-0.1,0.5-0.3,0.7c-0.2,0.2-0.4,0.3-0.7,0.3h-3.7c-0.5,0-0.9-0.2-1.2-0.6l-7.5-12h-2.2v11.7c0,0.3-0.1,0.5-0.3,0.7
		c-0.2,0.2-0.4,0.3-0.7,0.3h-3.6C888.9,62.3,888.7,62.2,888.5,62z M898.3,44.4c1.4,0,2.5-0.4,3.4-1.3c0.9-0.9,1.3-1.9,1.3-3.3
		c0-1.3-0.4-2.5-1.3-3.3c-0.9-0.9-2-1.3-3.4-1.3h-4.6v9.2H898.3z"/>
</g>
<g class="st5">
	<path class="st4" d="M924,62c-0.1-0.2-0.1-0.3-0.1-0.5l7.6-23.1c0-0.1,0.1-0.2,0.3-0.3c0.1-0.1,0.3-0.1,0.4-0.1h2.3
		c0.1,0,0.3,0,0.4,0.1c0.1,0.1,0.2,0.2,0.3,0.3l7.6,23.1c0,0,0,0.1,0,0.2c0,0.1-0.1,0.3-0.2,0.4c-0.1,0.1-0.2,0.2-0.4,0.2h-1.7
		c-0.1,0-0.3,0-0.4-0.1s-0.2-0.2-0.3-0.3l-2-6.1h-9.1l-2,6.1c0,0.1-0.1,0.3-0.2,0.3s-0.3,0.1-0.4,0.1h-1.7
		C924.2,62.3,924.1,62.2,924,62z M937.1,53.2l-3.7-11.6l-3.7,11.6H937.1z"/>
</g>
<g class="st5">
	<path class="st4" d="M946.3,61.9c-0.2-0.3-0.3-0.5-0.3-0.9c0-0.2,0-0.4,0.1-0.6l9.6-15.4h-8.9c-0.1,0-0.3,0-0.4-0.1
		c-0.1-0.1-0.1-0.2-0.1-0.3v-1.6c0-0.1,0-0.3,0.1-0.3c0.1-0.1,0.2-0.1,0.4-0.1h11.3c0.3,0,0.6,0.1,0.8,0.4c0.2,0.3,0.3,0.5,0.3,0.8
		c0,0.2-0.1,0.4-0.2,0.6l-9.6,15.4h9.5c0.1,0,0.3,0,0.3,0.1c0.1,0.1,0.1,0.2,0.1,0.4v1.6c0,0.1,0,0.3-0.1,0.4
		c-0.1,0.1-0.2,0.1-0.3,0.1h-11.9C946.8,62.3,946.5,62.1,946.3,61.9z"/>
</g>
<g class="st5">
	<path class="st4" d="M965.7,60.9c-1.2-1.2-1.8-2.8-1.8-4.8V42.9c0-0.1,0-0.3,0.1-0.3c0.1-0.1,0.2-0.1,0.3-0.1h1.8
		c0.1,0,0.3,0,0.3,0.1c0.1,0.1,0.1,0.2,0.1,0.3v12.6c0,1.5,0.4,2.6,1.2,3.4c0.8,0.8,1.8,1.2,3.2,1.2c1.6,0,2.8-0.5,3.8-1.5
		c1-1,1.4-2.4,1.4-4.2V42.9c0-0.1,0-0.3,0.1-0.3c0.1-0.1,0.2-0.1,0.4-0.1h1.8c0.1,0,0.3,0,0.3,0.1c0.1,0.1,0.1,0.2,0.1,0.3v18.8
		c0,0.1,0,0.3-0.1,0.4c-0.1,0.1-0.2,0.1-0.3,0.1h-1.8c-0.1,0-0.3,0-0.4-0.1c-0.1-0.1-0.1-0.2-0.1-0.4v-2c-0.6,1-1.4,1.7-2.4,2.2
		c-1,0.5-2.1,0.7-3.3,0.7C968.6,62.7,966.9,62.1,965.7,60.9z"/>
</g>
<g class="st5">
	<path class="st4" d="M983.9,62.1c-0.1-0.1-0.1-0.2-0.1-0.4v-1.6c0-0.1,0-0.3,0.1-0.4c0.1-0.1,0.2-0.1,0.3-0.1h2.9V44.9h-2.9
		c-0.1,0-0.3,0-0.3-0.1c-0.1-0.1-0.1-0.2-0.1-0.4v-1.5c0-0.1,0-0.3,0.1-0.3c0.1-0.1,0.2-0.1,0.3-0.1h4.4c0.3,0,0.6,0.1,0.9,0.4
		s0.4,0.5,0.4,0.9v1.8l2-1.6c0.8-0.7,1.5-1.1,2-1.3c0.5-0.2,1.1-0.3,1.7-0.3h1c0.2,0,0.3,0,0.4,0.1c0.1,0.1,0.1,0.2,0.1,0.3v1.7
		c0,0.1,0,0.3-0.1,0.4c-0.1,0.1-0.2,0.1-0.4,0.1h-0.8c-0.6,0-1.1,0.1-1.6,0.4c-0.5,0.2-1.3,0.8-2.3,1.6l-2.1,1.6v11.1h4.1
		c0.1,0,0.3,0,0.3,0.1c0.1,0.1,0.1,0.2,0.1,0.4v1.6c0,0.1,0,0.3-0.1,0.4c-0.1,0.1-0.2,0.1-0.3,0.1h-9.7
		C984.2,62.3,984,62.2,983.9,62.1z"/>
</g>
<g class="st5">
	<path class="st4" d="M1003.8,61.3c-1.2-0.7-2.1-1.6-2.8-2.8c-0.7-1.2-1-2.5-1-3.8v-5c0-1.4,0.3-2.7,1-3.8c0.7-1.2,1.6-2.1,2.8-2.8
		c1.2-0.7,2.4-1,3.8-1s2.6,0.3,3.8,1s2.1,1.6,2.8,2.8c0.7,1.2,1,2.5,1,3.8V52c0,0.3-0.1,0.6-0.4,0.9c-0.2,0.2-0.5,0.4-0.9,0.4h-11.2
		v1.5c0,0.9,0.2,1.7,0.6,2.5s1,1.3,1.8,1.8c0.7,0.4,1.6,0.6,2.4,0.6h5.1c0.1,0,0.3,0,0.4,0.1c0.1,0.1,0.1,0.2,0.1,0.4v1.6
		c0,0.1,0,0.3-0.1,0.4c-0.1,0.1-0.2,0.1-0.4,0.1h-5.1C1006.2,62.3,1005,61.9,1003.8,61.3z M1012.5,50.8v-1.3c0-0.9-0.2-1.7-0.6-2.5
		c-0.4-0.7-1-1.3-1.8-1.8s-1.6-0.6-2.5-0.6s-1.7,0.2-2.4,0.6c-0.7,0.4-1.3,1-1.8,1.8s-0.6,1.6-0.6,2.5v1.3H1012.5z"/>
</g>
<g class="st5">
	<path class="st4" d="M1034.9,62.1c-0.1-0.1-0.1-0.2-0.1-0.4V40.6h-6.1c-0.1,0-0.3,0-0.3-0.1c-0.1-0.1-0.1-0.2-0.1-0.4v-1.7
		c0-0.1,0-0.3,0.1-0.3c0.1-0.1,0.2-0.1,0.3-0.1h15c0.1,0,0.3,0,0.4,0.1c0.1,0.1,0.1,0.2,0.1,0.3v1.7c0,0.1,0,0.3-0.1,0.4
		c-0.1,0.1-0.2,0.1-0.4,0.1h-6.1v21.1c0,0.1,0,0.3-0.1,0.4c-0.1,0.1-0.2,0.1-0.4,0.1h-1.9C1035.1,62.3,1035,62.2,1034.9,62.1z"/>
</g>
<g class="st5">
	<path class="st4" d="M1049.7,61.3c-1.2-0.7-2.1-1.6-2.8-2.8c-0.7-1.2-1-2.5-1-3.8v-5c0-1.4,0.3-2.7,1-3.8c0.7-1.2,1.6-2.1,2.8-2.8
		s2.4-1,3.8-1c1.4,0,2.6,0.3,3.8,1s2.1,1.6,2.8,2.8c0.7,1.2,1,2.5,1,3.8V52c0,0.3-0.1,0.6-0.4,0.9c-0.2,0.2-0.5,0.4-0.9,0.4h-11.2
		v1.5c0,0.9,0.2,1.7,0.6,2.5s1,1.3,1.8,1.8c0.7,0.4,1.6,0.6,2.5,0.6h5.1c0.1,0,0.3,0,0.4,0.1c0.1,0.1,0.1,0.2,0.1,0.4v1.6
		c0,0.1,0,0.3-0.1,0.4c-0.1,0.1-0.2,0.1-0.4,0.1h-5.1C1052.1,62.3,1050.8,61.9,1049.7,61.3z M1058.4,50.8v-1.3
		c0-0.9-0.2-1.7-0.6-2.5s-1-1.3-1.8-1.8s-1.6-0.6-2.4-0.6c-0.9,0-1.7,0.2-2.5,0.6c-0.7,0.4-1.3,1-1.8,1.8s-0.6,1.6-0.6,2.5v1.3
		H1058.4z"/>
	<path class="st4" d="M1066.4,62.1c-0.1-0.1-0.1-0.2-0.1-0.4V42.9c0-0.1,0-0.3,0.1-0.3c0.1-0.1,0.2-0.1,0.4-0.1h1.8
		c0.1,0,0.3,0,0.3,0.1c0.1,0.1,0.1,0.2,0.1,0.3v1.9c0.6-1,1.4-1.7,2.4-2.2c1-0.5,2.1-0.7,3.3-0.7c2,0,3.6,0.6,4.8,1.8
		c1.2,1.2,1.8,2.8,1.8,4.8v13.2c0,0.1,0,0.3-0.1,0.4c-0.1,0.1-0.2,0.1-0.4,0.1h-1.8c-0.1,0-0.3,0-0.3-0.1c-0.1-0.1-0.1-0.2-0.1-0.4
		V49.1c0-1.5-0.4-2.6-1.2-3.4c-0.8-0.8-1.8-1.2-3.2-1.2c-1.6,0-2.8,0.5-3.8,1.5c-1,1-1.4,2.4-1.4,4.2v11.4c0,0.1,0,0.3-0.1,0.4
		c-0.1,0.1-0.2,0.1-0.3,0.1h-1.8C1066.6,62.2,1066.5,62.2,1066.4,62.1z"/>
	<path class="st4" d="M1087.4,61.2c-1.1-1-1.7-2.4-1.7-4c0-1.5,0.5-2.8,1.6-3.8s2.5-1.6,4.4-1.9l4.5-0.6c0.7-0.1,1.2-0.3,1.5-0.7
		c0.3-0.4,0.5-0.9,0.5-1.6v-0.3c0-1.1-0.4-2-1.3-2.7c-0.9-0.7-2-1-3.3-1c-1,0-1.9,0.2-2.7,0.6c-0.8,0.4-1.4,1-1.8,1.7
		c-0.2,0.3-0.4,0.5-0.7,0.5c-0.1,0-0.3-0.1-0.5-0.2l-0.9-0.6c-0.2-0.2-0.3-0.4-0.3-0.6c0-0.1,0-0.2,0.1-0.4c0.7-1.1,1.6-2,2.8-2.6
		c1.2-0.6,2.5-1,4.1-1c1.4,0,2.6,0.3,3.7,0.8s1.9,1.3,2.5,2.2c0.6,1,0.9,2.1,0.9,3.3v13.4c0,0.1,0,0.3-0.1,0.4
		c-0.1,0.1-0.2,0.1-0.3,0.1h-1.5c-0.1,0-0.3,0-0.3-0.1c-0.1-0.1-0.1-0.2-0.1-0.4v-2.4c-0.7,1-1.7,1.9-2.8,2.5s-2.4,0.9-3.7,0.9
		C1090,62.7,1088.5,62.2,1087.4,61.2z M1095.2,59.4c0.9-0.6,1.7-1.4,2.2-2.3c0.5-0.9,0.8-1.8,0.8-2.7v-1.4c-0.6,0.1-2.4,0.3-5.4,0.7
		l-1,0.1c-2.3,0.3-3.5,1.4-3.5,3.3c0,1,0.4,1.7,1,2.3c0.7,0.6,1.6,0.9,2.7,0.9C1093.2,60.3,1094.2,60,1095.2,59.4z"/>
</g>
<g class="st5">
	<path class="st4" d="M1106.8,62.1c-0.1-0.1-0.1-0.2-0.1-0.4V42.9c0-0.1,0-0.3,0.1-0.3c0.1-0.1,0.2-0.1,0.4-0.1h1.8
		c0.1,0,0.3,0,0.3,0.1c0.1,0.1,0.1,0.2,0.1,0.3v1.9c0.6-1,1.4-1.7,2.4-2.2c1-0.5,2.1-0.7,3.3-0.7c2,0,3.6,0.6,4.8,1.8
		c1.2,1.2,1.8,2.8,1.8,4.8v13.2c0,0.1,0,0.3-0.1,0.4c-0.1,0.1-0.2,0.1-0.4,0.1h-1.8c-0.1,0-0.3,0-0.3-0.1c-0.1-0.1-0.1-0.2-0.1-0.4
		V49.1c0-1.5-0.4-2.6-1.2-3.4c-0.8-0.8-1.8-1.2-3.2-1.2c-1.6,0-2.8,0.5-3.8,1.5c-1,1-1.4,2.4-1.4,4.2v11.4c0,0.1,0,0.3-0.1,0.4
		c-0.1,0.1-0.2,0.1-0.3,0.1h-1.8C1107,62.2,1106.9,62.2,1106.8,62.1z"/>
</g>
<g class="st5">
	<path class="st4" d="M1129.8,60.7c-1-1-1.4-2.3-1.4-3.8V45h-2.3c-0.1,0-0.3,0-0.3-0.1c-0.1-0.1-0.1-0.2-0.1-0.4v-1.6
		c0-0.1,0-0.3,0.1-0.3c0.1-0.1,0.2-0.1,0.3-0.1h2.3v-3.7c0-0.1,0-0.3,0.1-0.3c0.1-0.1,0.2-0.1,0.3-0.1h1.8c0.1,0,0.3,0,0.4,0.1
		c0.1,0.1,0.1,0.2,0.1,0.3v3.7h6.2c0.1,0,0.3,0,0.3,0.1c0.1,0.1,0.1,0.2,0.1,0.3v1.6c0,0.1,0,0.3-0.1,0.3c-0.1,0.1-0.2,0.1-0.3,0.1
		h-6.2v11.5c0,0.9,0.3,1.6,0.8,2.2c0.5,0.5,1.3,0.8,2.2,0.9l3.2,0c0.1,0,0.3,0,0.3,0.1c0.1,0.1,0.1,0.2,0.1,0.4v1.6
		c0,0.1,0,0.3-0.1,0.4c-0.1,0.1-0.2,0.1-0.3,0.1h-3.5C1132,62.3,1130.7,61.8,1129.8,60.7z"/>
</g>
<path class="st4" d="M813.5,408.5L813.5,408.5l-168.2-30.3l28.6,190.4L776.6,529l0,0c-4.8-0.8-8-1.5-12.4-4
	c-5.6-3.6-10-8.1-13.3-13.8c-3.3-5.6-4.8-12.2-4.8-18.6v-29.8c0-6.9,1.6-12.9,4.8-18.6c0.8-1.5,1.7-2.8,2.6-4c2.9-4.2,6.6-7.5,11-10
	c5.6-3.3,11.7-4.8,18.2-4.8c5.6,0,11.3,1.2,16.1,3.3c4.8,2,8.9,5.3,12.5,9.3c0.4,0.8,0.8,1.6,0.8,2.5s-0.4,2-1.2,2.8l-6.1,6.4
	c0,0-0.1,0-0.1,0.1l-0.3,0.3c-0.4,0.4-1.2,0.8-2,0.8c-0.8,0-1.6-0.4-2.5-1.2c-4.5-4.7-10.1-7.6-17.4-7.6c-3.6,0-6.9,0.8-9.7,2.8
	c-1.6,1.2-3,2.5-4.4,3.9c-1,1.2-2,2.5-2.9,3.8c-2,3.1-2.8,6.3-2.8,9.9v30.1c0,3.6,1.2,6.9,2.8,10c2,3.3,4.4,5.6,7.2,7.7
	s6.1,2.8,9.7,2.8c6.9,0,12.9-2.5,17.3-7.2c0.8-0.8,1.6-1.2,2.5-1.2s1.6,0.4,2.5,1.2l6.1,6.4c0.8,0.8,1.2,1.6,1.2,2.8v1.2
	c-0.1,0.1-0.1,0.3-0.2,0.3l1-0.3l0,0l28.7-10.8L813.5,408.5L813.5,408.5z M665.9,490v-59.3c0-0.8,0.4-1.6,0.8-2
	c0.4-0.4,1.2-0.8,2-0.8h11.7c0.8,0,1.6,0.4,2,0.8c0.4,0.4,0.8,1.2,0.8,2v60.1c0,6.4,2,12.2,5.6,16.1c3.5,4,8.3,6,14.4,6
	c6-0.1,10.7-2.1,14.4-6c3.6-4,5.6-9.7,5.6-16.1v-60.1c0-0.8,0.4-1.6,0.8-2c0.4-0.4,1.2-0.8,2-0.8h11.7c0.8,0,1.6,0,2,0.8
	c0.4,0.4,0.8,1.2,0.8,2V490c0,7.7-1.6,14.5-4.8,20.5c-3.3,6.1-7.7,10.8-13.3,14.1c-5.6,3.6-12.2,5.3-18.9,5.3
	c-7.2,0-13.8-1.6-19.3-5.3c-5.6-3.3-10-8.1-13.3-14.1C667.4,504.5,665.9,497.6,665.9,490L665.9,490z"/>
<g class="st5">
	<path class="st4" d="M554.9,624.4c-1.5-0.9-2.7-2.1-3.5-3.7c-0.9-1.6-1.3-3.4-1.3-5.5V598c0-0.2,0.1-0.3,0.2-0.4s0.2-0.2,0.4-0.2
		h2.2c0.2,0,0.3,0.1,0.4,0.2c0.1,0.1,0.2,0.2,0.2,0.4v17.4c0,1.4,0.3,2.7,0.9,3.8c0.6,1.1,1.4,1.9,2.3,2.5c1,0.6,2.1,0.9,3.4,0.9
		c1.2,0,2.3-0.3,3.3-0.9c1-0.6,1.8-1.4,2.3-2.5c0.6-1.1,0.9-2.4,0.9-3.8V598c0-0.2,0.1-0.3,0.2-0.4c0.1-0.1,0.2-0.2,0.4-0.2h2.2
		c0.2,0,0.3,0.1,0.4,0.2c0.1,0.1,0.2,0.2,0.2,0.4v17.2c0,2.1-0.4,3.9-1.3,5.5c-0.9,1.6-2,2.9-3.5,3.7c-1.5,0.9-3.1,1.3-5,1.3
		C558.1,625.7,556.4,625.3,554.9,624.4z"/>
	<path class="st4" d="M577.1,625c-0.1-0.1-0.2-0.2-0.2-0.4v-21.5c0-0.2,0.1-0.3,0.2-0.4c0.1-0.1,0.2-0.2,0.4-0.2h2
		c0.2,0,0.3,0.1,0.4,0.2c0.1,0.1,0.2,0.2,0.2,0.4v2.2c0.7-1.1,1.6-1.9,2.7-2.5c1.1-0.6,2.4-0.8,3.7-0.8c2.3,0,4.1,0.7,5.5,2.1
		c1.4,1.4,2.1,3.2,2.1,5.5v15c0,0.2-0.1,0.3-0.2,0.4c-0.1,0.1-0.2,0.2-0.4,0.2h-2c-0.2,0-0.3-0.1-0.4-0.2c-0.1-0.1-0.2-0.2-0.2-0.4
		v-14.4c0-1.7-0.4-3-1.3-3.9c-0.9-0.9-2.1-1.3-3.6-1.3c-1.8,0-3.2,0.6-4.3,1.8c-1.1,1.2-1.6,2.8-1.6,4.8v13.1c0,0.2-0.1,0.3-0.2,0.4
		c-0.1,0.1-0.2,0.2-0.4,0.2h-2C577.3,625.2,577.2,625.1,577.1,625z"/>
</g>
<g class="st5">
	<path class="st4" d="M604.8,624.8c-0.3-0.3-0.4-0.6-0.4-1v-18.2h-4.2c-0.2,0-0.3-0.1-0.4-0.2c-0.1-0.1-0.2-0.2-0.2-0.4v-1.8
		c0-0.2,0.1-0.3,0.2-0.4c0.1-0.1,0.2-0.2,0.4-0.2h5.8c0.4,0,0.7,0.1,1,0.4c0.3,0.3,0.4,0.6,0.4,1v18.2h4.1c0.2,0,0.3,0.1,0.4,0.2
		c0.1,0.1,0.2,0.2,0.2,0.4v1.8c0,0.2-0.1,0.3-0.2,0.4c-0.1,0.1-0.2,0.2-0.4,0.2h-5.8C605.4,625.2,605.1,625.1,604.8,624.8z
		 M604.6,599.3c-0.1-0.1-0.2-0.2-0.2-0.4v-3.5c0-0.2,0.1-0.3,0.2-0.4c0.1-0.1,0.2-0.2,0.4-0.2h1.9c0.2,0,0.3,0.1,0.4,0.2
		c0.1,0.1,0.2,0.2,0.2,0.4v3.5c0,0.2-0.1,0.3-0.2,0.4c-0.1,0.1-0.2,0.2-0.4,0.2H605C604.8,599.5,604.7,599.4,604.6,599.3z"/>
	<path class="st4" d="M618.5,625c-0.1-0.1-0.2-0.2-0.2-0.4v-19.1h-3c-0.2,0-0.3-0.1-0.4-0.2s-0.2-0.2-0.2-0.4v-1.8
		c0-0.2,0.1-0.3,0.2-0.4c0.1-0.1,0.2-0.2,0.4-0.2h3V601c0-1.8,0.5-3.2,1.6-4.4c1.1-1.2,2.6-1.7,4.5-1.7h3.2c0.2,0,0.3,0.1,0.4,0.2
		c0.1,0.1,0.2,0.2,0.2,0.4v1.7c0,0.2-0.1,0.3-0.2,0.4c-0.1,0.1-0.2,0.2-0.4,0.2h-3.2c-0.9,0-1.6,0.3-2.2,0.9
		c-0.5,0.6-0.8,1.3-0.8,2.3v1.8h14.6c0.4,0,0.7,0.1,1,0.4c0.3,0.3,0.4,0.6,0.4,1v18.2h4.1c0.2,0,0.3,0.1,0.4,0.2
		c0.1,0.1,0.2,0.2,0.2,0.4v1.8c0,0.2-0.1,0.3-0.2,0.4c-0.1,0.1-0.2,0.2-0.4,0.2h-5.8c-0.4,0-0.7-0.1-1-0.4c-0.3-0.3-0.4-0.6-0.4-1
		v-18.2h-13v19.1c0,0.2-0.1,0.3-0.2,0.4c-0.1,0.1-0.2,0.2-0.4,0.2h-2C618.8,625.2,618.6,625.2,618.5,625z M634.7,598.5
		c-0.1-0.1-0.2-0.2-0.2-0.4v-3.5c0-0.2,0.1-0.3,0.2-0.4c0.1-0.1,0.2-0.2,0.4-0.2h1.9c0.2,0,0.3,0.1,0.4,0.2c0.1,0.1,0.2,0.2,0.2,0.4
		v3.5c0,0.2-0.1,0.3-0.2,0.4c-0.1,0.1-0.2,0.2-0.4,0.2h-1.9C634.9,598.7,634.8,598.6,634.7,598.5z"/>
</g>
<g class="st5">
	<path class="st4" d="M651,624c-1.3-0.8-2.4-1.8-3.2-3.2s-1.2-2.8-1.2-4.4v-5.7c0-1.6,0.4-3,1.2-4.4c0.8-1.3,1.8-2.4,3.2-3.2
		c1.3-0.8,2.8-1.2,4.4-1.2c1.6,0,3,0.4,4.4,1.2c1.3,0.8,2.4,1.8,3.2,3.2c0.8,1.3,1.2,2.8,1.2,4.4v2.7c0,0.4-0.1,0.7-0.4,1
		c-0.3,0.3-0.6,0.4-1,0.4h-12.8v1.8c0,1,0.2,1.9,0.7,2.8c0.5,0.9,1.2,1.5,2,2c0.9,0.5,1.8,0.7,2.8,0.7h5.8c0.2,0,0.3,0.1,0.4,0.2
		c0.1,0.1,0.2,0.2,0.2,0.4v1.8c0,0.2-0.1,0.3-0.2,0.4c-0.1,0.1-0.2,0.2-0.4,0.2h-5.8C653.8,625.2,652.3,624.8,651,624z M660.9,612
		v-1.5c0-1-0.2-1.9-0.7-2.8c-0.5-0.9-1.2-1.5-2-2c-0.9-0.5-1.8-0.7-2.8-0.7c-1,0-1.9,0.2-2.8,0.7c-0.9,0.5-1.5,1.2-2,2
		c-0.5,0.9-0.7,1.8-0.7,2.8v1.5H660.9z"/>
	<path class="st4" d="M673.5,624.6c-1.3-0.7-2.3-1.8-3-3c-0.7-1.3-1.1-2.7-1.1-4.2v-7c0-1.5,0.4-2.9,1.1-4.2c0.7-1.3,1.8-2.3,3.1-3
		c1.3-0.7,2.7-1.1,4.2-1.1c1.1,0,2.2,0.2,3.2,0.6c1,0.4,1.9,1,2.7,1.7v-8.9c0-0.2,0.1-0.3,0.2-0.4c0.1-0.1,0.2-0.2,0.4-0.2h2
		c0.2,0,0.3,0.1,0.4,0.2c0.1,0.1,0.2,0.2,0.2,0.4v29.2c0,0.2-0.1,0.3-0.2,0.4c-0.1,0.1-0.2,0.2-0.4,0.2h-1.8c-0.2,0-0.3-0.1-0.4-0.2
		c-0.1-0.1-0.2-0.2-0.2-0.4v-1.8c-0.7,0.9-1.6,1.6-2.7,2.1c-1.1,0.5-2.2,0.7-3.4,0.7C676.1,625.7,674.7,625.4,673.5,624.6z
		 M680.8,622c0.9-0.5,1.5-1.2,2-2c0.5-0.9,0.7-1.8,0.7-2.8v-6.6c0-1-0.2-1.9-0.7-2.8c-0.5-0.9-1.2-1.5-2-2c-0.9-0.5-1.8-0.7-2.8-0.7
		c-1,0-1.9,0.2-2.8,0.7c-0.9,0.5-1.5,1.2-2,2c-0.5,0.9-0.7,1.8-0.7,2.8v6.6c0,1,0.2,1.9,0.7,2.8c0.5,0.9,1.2,1.5,2,2
		c0.9,0.5,1.8,0.7,2.8,0.7C679,622.8,679.9,622.5,680.8,622z"/>
</g>
<g class="st5">
	<path class="st4" d="M698.3,624.4c-1.5-0.9-2.6-2.1-3.5-3.6c-0.9-1.5-1.3-3.1-1.3-4.9v-9.4c0-1.8,0.4-3.4,1.3-4.9
		c0.9-1.5,2-2.7,3.5-3.6s3.1-1.3,4.8-1.3c1.4,0,2.7,0.2,4,0.7c1.2,0.5,2.3,1.2,3.2,2.1c0.1,0.1,0.2,0.3,0.2,0.5
		c0,0.2-0.1,0.4-0.2,0.5c-0.6,0.6-0.9,1-1.1,1.2c-0.2,0.1-0.4,0.2-0.6,0.2c-0.2,0-0.4-0.1-0.6-0.3c-1.3-1.3-3-1.9-4.9-1.9
		c-1.1,0-2.2,0.3-3.2,0.9c-1,0.6-1.7,1.4-2.3,2.5c-0.6,1-0.8,2.1-0.8,3.3v9.4c0,1.2,0.3,2.3,0.8,3.3c0.6,1,1.3,1.8,2.3,2.5
		c1,0.6,2,0.9,3.2,0.9c1.9,0,3.6-0.6,4.9-1.9c0.2-0.2,0.4-0.3,0.6-0.3c0.2,0,0.4,0.1,0.6,0.2c0.2,0.2,0.5,0.6,1.1,1.2
		c0.1,0.1,0.2,0.3,0.2,0.5c0,0.2-0.1,0.3-0.2,0.5c-0.9,0.9-2,1.6-3.2,2.1s-2.5,0.7-4,0.7C701.4,625.7,699.8,625.3,698.3,624.4z"/>
</g>
<g class="st5">
	<path class="st4" d="M719.7,624.6c-1.3-0.8-2.4-1.8-3.2-3.2c-0.8-1.3-1.2-2.8-1.2-4.4v-6.2c0-1.6,0.4-3,1.2-4.4
		c0.8-1.3,1.8-2.4,3.2-3.2c1.3-0.8,2.8-1.2,4.4-1.2s3,0.4,4.4,1.2c1.3,0.8,2.4,1.8,3.2,3.2c0.8,1.3,1.2,2.8,1.2,4.4v6.2
		c0,1.6-0.4,3-1.2,4.4c-0.8,1.3-1.8,2.4-3.2,3.2c-1.3,0.8-2.8,1.2-4.4,1.2S721,625.3,719.7,624.6z M726.9,622c0.9-0.5,1.5-1.2,2-2
		c0.5-0.9,0.7-1.8,0.7-2.8v-6.6c0-1-0.2-1.9-0.7-2.8c-0.5-0.9-1.2-1.5-2-2c-0.9-0.5-1.8-0.7-2.8-0.7s-1.9,0.2-2.8,0.7
		c-0.9,0.5-1.5,1.2-2,2c-0.5,0.9-0.7,1.8-0.7,2.8v6.6c0,1,0.2,1.9,0.7,2.8c0.5,0.9,1.2,1.5,2,2s1.8,0.7,2.8,0.7S726,622.5,726.9,622
		z"/>
</g>
<g class="st5">
	<path class="st4" d="M739.5,625c-0.1-0.1-0.2-0.2-0.2-0.4v-21.5c0-0.2,0.1-0.3,0.2-0.4c0.1-0.1,0.2-0.2,0.4-0.2h2
		c0.2,0,0.3,0.1,0.4,0.2c0.1,0.1,0.2,0.2,0.2,0.4v2.2c0.7-1.1,1.6-1.9,2.7-2.5c1.1-0.6,2.4-0.8,3.7-0.8c2.3,0,4.1,0.7,5.5,2.1
		c1.4,1.4,2.1,3.2,2.1,5.5v15c0,0.2-0.1,0.3-0.2,0.4c-0.1,0.1-0.2,0.2-0.4,0.2h-2c-0.2,0-0.3-0.1-0.4-0.2c-0.1-0.1-0.2-0.2-0.2-0.4
		v-14.4c0-1.7-0.4-3-1.3-3.9c-0.9-0.9-2.1-1.3-3.6-1.3c-1.8,0-3.2,0.6-4.3,1.8c-1.1,1.2-1.6,2.8-1.6,4.8v13.1c0,0.2-0.1,0.3-0.2,0.4
		c-0.1,0.1-0.2,0.2-0.4,0.2h-2C739.7,625.2,739.6,625.1,739.5,625z"/>
	<path class="st4" d="M765.7,623.5c-1.1-1.2-1.6-2.6-1.6-4.4v-13.6h-2.6c-0.2,0-0.3-0.1-0.4-0.2s-0.2-0.2-0.2-0.4v-1.8
		c0-0.2,0.1-0.3,0.2-0.4c0.1-0.1,0.2-0.2,0.4-0.2h2.6v-4.2c0-0.2,0.1-0.3,0.2-0.4c0.1-0.1,0.2-0.2,0.4-0.2h2c0.2,0,0.3,0.1,0.4,0.2
		c0.1,0.1,0.2,0.2,0.2,0.4v4.2h7c0.2,0,0.3,0.1,0.4,0.2c0.1,0.1,0.2,0.2,0.2,0.4v1.8c0,0.2-0.1,0.3-0.2,0.4
		c-0.1,0.1-0.2,0.2-0.4,0.2h-7v13.2c0,1,0.3,1.9,0.9,2.5c0.6,0.6,1.4,1,2.5,1l3.6,0c0.2,0,0.3,0.1,0.4,0.2c0.1,0.1,0.2,0.2,0.2,0.4
		v1.8c0,0.2-0.1,0.3-0.2,0.4c-0.1,0.1-0.2,0.2-0.4,0.2h-4C768.3,625.2,766.8,624.6,765.7,623.5z"/>
</g>
<g class="st5">
	<path class="st4" d="M781.6,624c-1.3-1.2-2-2.7-2-4.6c0-1.8,0.6-3.2,1.8-4.4c1.2-1.1,2.8-1.9,5-2.2l5.2-0.7
		c0.8-0.1,1.3-0.4,1.7-0.8c0.3-0.4,0.5-1,0.5-1.8v-0.3c0-1.3-0.5-2.3-1.5-3.1c-1-0.8-2.2-1.2-3.7-1.2c-1.2,0-2.2,0.2-3.1,0.7
		c-0.9,0.5-1.6,1.1-2.1,1.9c-0.2,0.3-0.5,0.5-0.8,0.5c-0.2,0-0.3-0.1-0.5-0.2l-1.1-0.7c-0.2-0.2-0.4-0.4-0.4-0.7
		c0-0.1,0-0.2,0.1-0.4c0.8-1.3,1.8-2.3,3.2-3c1.3-0.7,2.9-1.1,4.7-1.1c1.6,0,3,0.3,4.3,0.9c1.3,0.6,2.2,1.4,2.9,2.5
		c0.7,1.1,1,2.4,1,3.8v15.4c0,0.2-0.1,0.3-0.2,0.4c-0.1,0.1-0.2,0.2-0.4,0.2h-1.7c-0.2,0-0.3-0.1-0.4-0.2c-0.1-0.1-0.2-0.2-0.2-0.4
		v-2.8c-0.8,1.2-1.9,2.1-3.2,2.8c-1.3,0.7-2.7,1-4.2,1C784.6,625.7,782.9,625.2,781.6,624z M790.5,621.9c1.1-0.7,1.9-1.6,2.5-2.6
		c0.6-1.1,0.9-2.1,0.9-3.1v-1.6c-0.6,0.1-2.7,0.4-6.2,0.8l-1.1,0.2c-2.7,0.4-4,1.7-4,3.8c0,1.1,0.4,2,1.2,2.6c0.8,0.7,1.8,1,3.1,1
		C788.2,622.9,789.4,622.6,790.5,621.9z"/>
</g>
<g class="st5">
	<path class="st4" d="M807.7,624.6c-1.3-0.8-2.4-1.8-3.2-3.2c-0.8-1.3-1.2-2.8-1.2-4.4v-6.2c0-1.6,0.4-3,1.2-4.4
		c0.8-1.3,1.8-2.4,3.2-3.2c1.3-0.8,2.8-1.2,4.4-1.2c1.1,0,2.2,0.2,3.3,0.6c1,0.4,1.9,1,2.7,1.8c0.2,0.2,0.2,0.3,0.2,0.6
		c0,0.2-0.1,0.4-0.2,0.6c-0.3,0.3-0.6,0.6-0.9,0.9c-0.2,0.2-0.4,0.2-0.6,0.2c-0.2,0-0.5-0.1-0.6-0.3c-1.1-1-2.3-1.5-3.8-1.5
		c-1,0-1.9,0.2-2.8,0.7c-0.9,0.5-1.5,1.2-2,2c-0.5,0.9-0.7,1.8-0.7,2.8v6.6c0,1,0.2,1.9,0.7,2.8c0.5,0.9,1.2,1.5,2,2
		c0.9,0.5,1.8,0.7,2.8,0.7c1.5,0,2.7-0.5,3.8-1.5c0.2-0.2,0.4-0.3,0.6-0.3c0.2,0,0.4,0.1,0.6,0.2c0.3,0.3,0.6,0.6,0.9,0.9
		c0.2,0.2,0.2,0.4,0.2,0.6c0,0.2-0.1,0.4-0.2,0.6c-0.8,0.7-1.7,1.3-2.7,1.8c-1,0.4-2.1,0.6-3.3,0.6
		C810.5,625.7,809.1,625.3,807.7,624.6z"/>
	<path class="st4" d="M826.9,623.5c-1.1-1.2-1.6-2.6-1.6-4.4v-13.6h-2.6c-0.2,0-0.3-0.1-0.4-0.2s-0.2-0.2-0.2-0.4v-1.8
		c0-0.2,0.1-0.3,0.2-0.4c0.1-0.1,0.2-0.2,0.4-0.2h2.6v-4.2c0-0.2,0.1-0.3,0.2-0.4c0.1-0.1,0.2-0.2,0.4-0.2h2c0.2,0,0.3,0.1,0.4,0.2
		c0.1,0.1,0.2,0.2,0.2,0.4v4.2h7c0.2,0,0.3,0.1,0.4,0.2c0.1,0.1,0.2,0.2,0.2,0.4v1.8c0,0.2-0.1,0.3-0.2,0.4
		c-0.1,0.1-0.2,0.2-0.4,0.2h-7v13.2c0,1,0.3,1.9,0.9,2.5c0.6,0.6,1.4,1,2.5,1l3.6,0c0.2,0,0.3,0.1,0.4,0.2c0.1,0.1,0.2,0.2,0.2,0.4
		v1.8c0,0.2-0.1,0.3-0.2,0.4c-0.1,0.1-0.2,0.2-0.4,0.2h-4C829.5,625.2,828,624.6,826.9,623.5z"/>
	<path class="st4" d="M843.7,625.1c-1.2-0.3-2.2-0.8-3-1.4c-0.1-0.1-0.2-0.1-0.2-0.3s0-0.2,0-0.4l0.8-1.7c0.1-0.2,0.3-0.3,0.5-0.3
		c0.1,0,0.2,0,0.3,0.1c1.8,1.1,3.5,1.6,5.3,1.6c1.4,0,2.5-0.3,3.3-0.9c0.8-0.6,1.2-1.5,1.2-2.7c0-0.7-0.2-1.3-0.5-1.7
		c-0.4-0.4-0.8-0.8-1.4-1.1c-0.6-0.3-1.5-0.7-2.8-1.1c-1.6-0.6-2.9-1.2-3.8-1.7c-0.9-0.5-1.7-1.2-2.2-2c-0.5-0.8-0.8-1.9-0.8-3.2
		c0-2.1,0.7-3.6,2-4.7c1.4-1.1,3.1-1.6,5.2-1.6c1.1,0,2.2,0.2,3.3,0.5c1.1,0.3,2.1,0.8,3,1.4c0.1,0.1,0.2,0.1,0.2,0.3
		c0,0.1,0,0.3,0,0.4l-0.8,1.6c-0.1,0.2-0.2,0.3-0.3,0.3c-0.1,0.1-0.3,0-0.5-0.1c-1.7-1-3.3-1.5-4.9-1.5c-1.3,0-2.3,0.3-3.1,0.8
		c-0.7,0.6-1.1,1.4-1.1,2.4c0,0.8,0.2,1.5,0.6,2c0.4,0.5,0.9,0.9,1.4,1.1c0.6,0.3,1.5,0.6,2.7,1.1c1.6,0.6,2.8,1.1,3.7,1.6
		c0.9,0.5,1.7,1.1,2.2,1.9c0.6,0.8,0.9,1.8,0.9,3.1c0,2.1-0.7,3.7-2.1,4.9c-1.4,1.2-3.3,1.8-5.7,1.8
		C846,625.6,844.8,625.5,843.7,625.1z"/>
</g>
<g class="st5">
	<path class="st4" d="M873.2,625c-0.1-0.1-0.2-0.2-0.2-0.4v-25.8c0-0.4,0.1-0.7,0.4-1s0.6-0.4,1-0.4h6.7c1.6,0,3.1,0.4,4.4,1.2
		c1.3,0.8,2.4,1.8,3.2,3.1s1.2,2.7,1.2,4.3c0,1.6-0.4,3-1.2,4.3s-1.8,2.3-3.2,3.1c-1.3,0.8-2.8,1.2-4.4,1.2h-4.9v10
		c0,0.2-0.1,0.3-0.2,0.4c-0.1,0.1-0.2,0.2-0.4,0.2h-2.2C873.4,625.2,873.3,625.2,873.2,625z M881,611.5c1,0,1.9-0.2,2.8-0.7
		c0.9-0.5,1.5-1.2,2-2c0.5-0.9,0.7-1.8,0.7-2.8c0-1-0.2-1.9-0.7-2.8c-0.5-0.9-1.2-1.5-2-2c-0.9-0.5-1.8-0.7-2.8-0.7h-4.7v11H881z"/>
</g>
<g class="st5">
	<path class="st4" d="M894.7,625c-0.1-0.1-0.2-0.2-0.2-0.4v-1.8c0-0.2,0.1-0.3,0.2-0.4c0.1-0.1,0.2-0.2,0.4-0.2h3.3v-16.8h-3.3
		c-0.2,0-0.3-0.1-0.4-0.2c-0.1-0.1-0.2-0.2-0.2-0.4v-1.7c0-0.2,0.1-0.3,0.2-0.4c0.1-0.1,0.2-0.2,0.4-0.2h5c0.4,0,0.7,0.1,1,0.4
		c0.3,0.3,0.4,0.6,0.4,1v2l2.3-1.8c1-0.7,1.7-1.2,2.3-1.5c0.6-0.3,1.2-0.4,1.9-0.4h1.2c0.2,0,0.3,0.1,0.4,0.2
		c0.1,0.1,0.1,0.2,0.1,0.4v2c0,0.2-0.1,0.3-0.2,0.4c-0.1,0.1-0.2,0.2-0.4,0.2h-0.9c-0.7,0-1.3,0.1-1.9,0.4c-0.6,0.3-1.5,0.9-2.6,1.8
		l-2.4,1.9v12.7h4.6c0.2,0,0.3,0.1,0.4,0.2c0.1,0.1,0.2,0.2,0.2,0.4v1.8c0,0.2-0.1,0.3-0.2,0.4c-0.1,0.1-0.2,0.2-0.4,0.2h-11.1
		C894.9,625.2,894.8,625.2,894.7,625z"/>
</g>
<g class="st5">
	<path class="st4" d="M917.7,624.6c-1.3-0.8-2.4-1.8-3.2-3.2c-0.8-1.3-1.2-2.8-1.2-4.4v-6.2c0-1.6,0.4-3,1.2-4.4
		c0.8-1.3,1.8-2.4,3.2-3.2c1.3-0.8,2.8-1.2,4.4-1.2c1.6,0,3,0.4,4.4,1.2c1.3,0.8,2.4,1.8,3.2,3.2c0.8,1.3,1.2,2.8,1.2,4.4v6.2
		c0,1.6-0.4,3-1.2,4.4c-0.8,1.3-1.8,2.4-3.2,3.2c-1.3,0.8-2.8,1.2-4.4,1.2C920.5,625.7,919.1,625.3,917.7,624.6z M924.9,622
		c0.9-0.5,1.5-1.2,2-2c0.5-0.9,0.7-1.8,0.7-2.8v-6.6c0-1-0.2-1.9-0.7-2.8c-0.5-0.9-1.2-1.5-2-2c-0.9-0.5-1.8-0.7-2.8-0.7
		c-1,0-1.9,0.2-2.8,0.7c-0.9,0.5-1.5,1.2-2,2c-0.5,0.9-0.7,1.8-0.7,2.8v6.6c0,1,0.2,1.9,0.7,2.8c0.5,0.9,1.2,1.5,2,2
		c0.9,0.5,1.8,0.7,2.8,0.7C923.1,622.8,924,622.5,924.9,622z"/>
</g>
<g id="UC-UC-Free-2">
	<rect x="740.3" y="393.6" class="st12" width="99.8" height="46"/>
	<path d="M754.3,431.1c-0.1-0.1-0.2-0.2-0.2-0.4v-26.2c0-0.4,0.1-0.8,0.4-1s0.6-0.4,1-0.4h6.8c1.6,0,3.1,0.4,4.5,1.1
		c1.4,0.8,2.4,1.8,3.2,3.2c0.8,1.3,1.2,2.8,1.2,4.4s-0.4,3-1.2,4.4c-0.8,1.3-1.8,2.4-3.2,3.2c-1.4,0.8-2.8,1.1-4.5,1.1h-4.9v10.2
		c0,0.2-0.1,0.3-0.2,0.4s-0.2,0.2-0.4,0.2h-2.2C754.6,431.3,754.5,431.2,754.3,431.1L754.3,431.1z M762.2,417.4c1,0,2-0.2,2.8-0.8
		s1.5-1.2,2.1-2.1c0.5-0.9,0.8-1.8,0.8-2.8c0-1-0.2-2-0.8-2.8s-1.2-1.5-2.1-2.1s-1.8-0.8-2.8-0.8h-4.8v11.2L762.2,417.4L762.2,417.4
		L762.2,417.4z"/>
	<path d="M780.1,431.1c-0.1-0.1-0.2-0.2-0.2-0.4v-26.2c0-0.4,0.1-0.8,0.4-1s0.6-0.4,1-0.4h7.1c1.5,0,2.9,0.3,4.1,1.1
		c1.3,0.8,2.2,1.7,3,3s1.1,2.6,1.1,4.1c0,2-0.6,3.7-1.8,5.2c-1.3,1.5-2.8,2.4-4.7,2.8l6.7,10.9c0.1,0.1,0.1,0.2,0.1,0.4
		c0,0.2-0.1,0.4-0.2,0.5c-0.2,0.1-0.3,0.2-0.6,0.2h-2.1c-0.3,0-0.5-0.1-0.6-0.3l-7.1-11.5h-3.2v11.2c0,0.2-0.1,0.3-0.2,0.4
		s-0.2,0.2-0.4,0.2h-2.2C780.3,431.3,780.2,431.2,780.1,431.1L780.1,431.1z M788.2,416.3c1.4,0,2.7-0.5,3.6-1.4
		c1-0.9,1.4-2.1,1.4-3.6s-0.5-2.7-1.4-3.7c-1-1-2.2-1.4-3.6-1.4h-4.9v10.1L788.2,416.3L788.2,416.3z"/>
	<path d="M811,430.5c-1.5-0.9-2.8-2.1-3.6-3.6c-0.9-1.5-1.3-3.2-1.3-4.9v-9.5c0-1.8,0.5-3.4,1.3-4.9c0.9-1.5,2.1-2.7,3.6-3.6
		c1.5-0.9,3.2-1.3,5-1.3s3.4,0.5,5,1.3c1.5,0.9,2.8,2.1,3.6,3.6c0.9,1.5,1.3,3.2,1.3,4.9v9.5c0,1.8-0.5,3.4-1.3,4.9
		c-0.9,1.5-2.1,2.7-3.6,3.6c-1.5,0.9-3.2,1.3-5,1.3S812.4,431.4,811,430.5z M819.2,427.8c1-0.6,1.8-1.4,2.4-2.5
		c0.6-1,0.9-2.2,0.9-3.3v-9.5c0-1.2-0.3-2.3-0.9-3.3c-0.6-1-1.4-1.9-2.4-2.5c-1-0.6-2.1-0.9-3.3-0.9s-2.3,0.3-3.3,0.9
		s-1.8,1.4-2.4,2.5s-0.9,2.2-0.9,3.3v9.5c0,1.2,0.3,2.3,0.9,3.3c0.6,1,1.4,1.9,2.4,2.5c1,0.6,2.1,0.9,3.3,0.9
		S818.2,428.4,819.2,427.8z"/>
</g>
<path class="st14" d="M388.5,539.1h101"/>
<path class="st14" d="M1452.8,808h101"/>
</svg>
